SplineFontDB: 3.2
FontName: Estedad-ExtraLight
FullName: Estedad ExtraLight
FamilyName: Estedad ExtraLight
Weight: Extra-light
Copyright: Copyright (c) 2020 by Amin Abedi (@aminabedi68)-www.fontamin.com,\nwith Reserved Font Name Estedad.\n\nThis Font Software is licensed under the SIL Open Font License, Version 1.1.
Version: 5.0
ItalicAngle: 0
UnderlinePosition: -750
UnderlineWidth: 150
Ascent: 1356
Descent: 692
InvalidEm: 0
LayerCount: 2
Layer: 0 0 "Back" 1
Layer: 1 0 "Estedad" 0
StyleMap: 0x0040
FSType: 0
OS2Version: 0
OS2_WeightWidthSlopeOnly: 0
OS2_UseTypoMetrics: 0
CreationTime: 1606825549
ModificationTime: 1606845107
PfmFamily: 16
TTFWeight: 200
TTFWidth: 5
LineGap: 0
VLineGap: 0
OS2TypoAscent: 2400
OS2TypoAOffset: 0
OS2TypoDescent: -1200
OS2TypoDOffset: 0
OS2TypoLinegap: 0
OS2WinAscent: 2400
OS2WinAOffset: 0
OS2WinDescent: 1200
OS2WinDOffset: 0
HheadAscent: 2400
HheadAOffset: 0
HheadDescent: -1200
HheadDOffset: 0
OS2CapHeight: 1500
OS2XHeight: 1090
OS2Vendor: 'amin'
Lookup: 4 0 0 "'ccmp' Glyph Composition Decomposition lookup 0" { "'ccmp' Glyph Composition Decomposition lookup 0 subtable"  } ['ccmp' ('DFLT' <'dflt' > 'arab' <'FAR ' 'MLY ' 'SND ' 'URD ' 'dflt' > ) ]
Lookup: 1 1 0 "'locl' Localized Forms in Arabic lookup 5" { "'locl' Localized Forms in Arabic lookup 5 subtable"  } ['locl' ('arab' <'URD ' > ) ]
Lookup: 1 1 0 "'locl' Localized Forms in Arabic lookup 6" { "'locl' Localized Forms in Arabic lookup 6 subtable"  } ['locl' ('arab' <'FAR ' > ) ]
Lookup: 1 0 0 "Single Substitution 1" { "Single Substitution 1 subtable"  } []
Lookup: 1 0 0 "Single Substitution 2" { "Single Substitution 2 subtable"  } []
Lookup: 1 9 0 "'isol' Isolated Forms in Arabic lookup 11" { "'isol' Isolated Forms in Arabic lookup 11 subtable"  } ['isol' ('DFLT' <'dflt' > 'arab' <'FAR ' 'MLY ' 'SND ' 'URD ' 'dflt' > ) ]

StartChar: A
Encoding: 65 65 0
GlifName: A_
Width: 1187
VWidth: 0
GlyphClass: 2
Flags: HW
LayerCount: 2
Fore
SplineSet
274 399 m 257
 125 0 l 257
 18 0 l 257
 530 1353 l 257
 660 1353 l 257
 1170 0 l 257
 1063 0 l 257
 914 399 l 257
 274 399 l 257
304 485 m 257
 884 485 l 257
 595 1262 l 257
 304 485 l 257
EndSplineSet
Substitution2: "'c2sc' Capitals to Small Capitals in Latin lookup 0 subtable" uni1D00
EndChar

StartChar: AE
Encoding: 198 198 1
GlifName: A_E_
Width: 1440
VWidth: 0
GlyphClass: 2
Flags: HW
LayerCount: 2
Fore
SplineSet
684 1265 m 257
 617 1265 l 257
 319 495 l 257
 684 495 l 257
 684 1265 l 257
555 1353 m 257
 1357 1353 l 257
 1357 1265 l 257
 785 1265 l 257
 785 720 l 257
 1301 720 l 257
 1301 632 l 257
 785 632 l 257
 785 87 l 257
 1357 87 l 257
 1357 0 l 257
 684 0 l 257
 684 410 l 257
 286 410 l 257
 127 0 l 257
 21 0 l 257
 555 1353 l 257
EndSplineSet
EndChar

StartChar: Arabic_Double_Dot_H.alt
Encoding: 1114113 -1 11
GlifName: A_rabic_D_ouble_D_ot_H_.alt
Width: 758
VWidth: 0
GlyphClass: 2
Flags: HW
LayerCount: 2
Fore
SplineSet
398 84 m 257
 494 180 l 257
 591 84 l 257
 494 -13 l 257
 398 84 l 257
158 84 m 257
 254 180 l 257
 351 84 l 257
 254 -13 l 257
 158 84 l 257
EndSplineSet
EndChar

StartChar: Arabic_Double_Dot_V.alt
Encoding: 1114115 -1 13
GlifName: A_rabic_D_ouble_D_ot_V_.alt
Width: 497
VWidth: 0
GlyphClass: 2
Flags: HW
LayerCount: 2
Fore
SplineSet
244 238 m 257
 147 334 l 257
 244 431 l 257
 341 334 l 257
 244 238 l 257
244 -2 m 257
 147 94 l 257
 244 191 l 257
 341 94 l 257
 244 -2 l 257
EndSplineSet
EndChar

StartChar: Arabic_Single_Dot
Encoding: 1114117 -1 15
GlifName: A_rabic_S_ingle_D_ot
Width: 442
VWidth: 0
GlyphClass: 2
Flags: HW
LayerCount: 2
Fore
SplineSet
99 117 m 257
 221 239 l 257
 344 117 l 257
 221 -6 l 257
 99 117 l 257
EndSplineSet
EndChar

StartChar: Arabic_Single_Dot.alt
Encoding: 1114118 -1 16
GlifName: A_rabic_S_ingle_D_ot.alt
Width: 460
VWidth: 0
GlyphClass: 2
Flags: HW
LayerCount: 2
Fore
SplineSet
118 113 m 257
 230 225 l 257
 343 113 l 257
 230 0 l 257
 118 113 l 257
EndSplineSet
EndChar

StartChar: B
Encoding: 66 66 23
GlifName: B_
Width: 1186
VWidth: 0
GlyphClass: 2
Flags: HW
LayerCount: 2
Fore
SplineSet
164 1353 m 257
 633 1353 l 258
 863 1353 1022 1223 1022 998 c 256
 1022 851 951 744 835 690 c 257
 984 647 1082 524 1082 353 c 256
 1082 128 924 0 691 0 c 258
 164 0 l 257
 164 1353 l 257
266 1265 m 257
 266 721 l 257
 627 721 l 258
 810 721 921 826 921 995 c 256
 921 1163 810 1265 627 1265 c 258
 266 1265 l 257
266 639 m 257
 266 87 l 257
 687 87 l 258
 870 87 982 192 982 361 c 256
 982 530 870 639 687 639 c 258
 266 639 l 257
EndSplineSet
Substitution2: "'c2sc' Capitals to Small Capitals in Latin lookup 0 subtable" uni0299
EndChar

StartChar: C
Encoding: 67 67 24
GlifName: C_
Width: 1333
VWidth: 0
GlyphClass: 2
Flags: HW
LayerCount: 2
Fore
SplineSet
228 676 m 256
 228 322 382 77 701 77 c 256
 932 77 1061 227 1107 372 c 257
 1205 357 l 257
 1156 184 992 -11 703 -11 c 256
 336 -11 126 253 126 676 c 256
 126 1098 336 1364 703 1364 c 256
 992 1364 1156 1169 1205 996 c 257
 1107 979 l 257
 1061 1124 932 1276 701 1276 c 256
 382 1276 228 1030 228 676 c 256
EndSplineSet
Substitution2: "'c2sc' Capitals to Small Capitals in Latin lookup 0 subtable" uni1D04
EndChar

StartChar: D
Encoding: 68 68 30
GlifName: D_
Width: 1344
VWidth: 0
GlyphClass: 2
Flags: HW
LayerCount: 2
Fore
SplineSet
1198 676 m 256
 1198 284 995 0 601 0 c 258
 214 0 l 257
 214 1353 l 257
 601 1353 l 258
 995 1353 1198 1068 1198 676 c 256
1096 676 m 256
 1096 1014 941 1265 601 1265 c 258
 314 1265 l 257
 314 87 l 257
 601 87 l 258
 941 87 1096 339 1096 676 c 256
EndSplineSet
Substitution2: "'c2sc' Capitals to Small Capitals in Latin lookup 0 subtable" uni1D05
EndChar

StartChar: E
Encoding: 69 69 33
GlifName: E_
Width: 1064
VWidth: 0
GlyphClass: 2
Flags: HW
LayerCount: 2
Fore
SplineSet
987 87 m 257
 987 0 l 257
 214 0 l 257
 214 1353 l 257
 987 1353 l 257
 987 1265 l 257
 314 1265 l 257
 314 720 l 257
 932 720 l 257
 932 632 l 257
 314 632 l 257
 314 87 l 257
 987 87 l 257
EndSplineSet
Substitution2: "'c2sc' Capitals to Small Capitals in Latin lookup 0 subtable" uni1D07
EndChar

StartChar: Eng
Encoding: 330 330 42
GlifName: E_ng
Width: 1374
VWidth: 0
GlyphClass: 2
Flags: HW
LayerCount: 2
Fore
SplineSet
255 1353 m 257
 357 1353 l 257
 357 0 l 257
 255 0 l 257
 255 1353 l 257
807 1364 m 256
 1107 1364 1258 1184 1258 875 c 258
 1258 234 l 258
 1258 60 1146 -11 994 -11 c 256
 945 -11 895 -3 851 10 c 257
 868 84 l 257
 894 78 937 72 979 72 c 256
 1096 72 1157 126 1157 244 c 258
 1157 875 l 258
 1157 1129 1028 1276 785 1276 c 256
 543 1276 400 1094 356 840 c 257
 309 840 l 257
 355 1147 522 1364 807 1364 c 256
EndSplineSet
EndChar

StartChar: F
Encoding: 70 70 46
GlifName: F_
Width: 1054
VWidth: 0
GlyphClass: 2
Flags: HW
LayerCount: 2
Fore
SplineSet
314 0 m 257
 214 0 l 257
 214 1353 l 257
 987 1353 l 257
 987 1265 l 257
 314 1265 l 257
 314 670 l 257
 936 670 l 257
 936 585 l 257
 314 585 l 257
 314 0 l 257
EndSplineSet
Substitution2: "'c2sc' Capitals to Small Capitals in Latin lookup 0 subtable" uniA730
EndChar

StartChar: G
Encoding: 71 71 47
GlifName: G_
Width: 1338
VWidth: 0
GlyphClass: 2
Flags: HW
LayerCount: 2
Fore
SplineSet
685 670 m 257
 1227 670 l 257
 1227 180 l 257
 1130 61 919 -11 720 -11 c 256
 330 -11 110 235 110 671 c 256
 110 1101 333 1364 694 1364 c 256
 921 1364 1108 1231 1187 1014 c 257
 1104 983 l 257
 1040 1164 882 1276 691 1276 c 256
 390 1276 213 1051 213 671 c 256
 213 282 388 77 722 77 c 256
 863 77 1052 136 1126 203 c 257
 1126 585 l 257
 685 585 l 257
 685 670 l 257
EndSplineSet
Substitution2: "'c2sc' Capitals to Small Capitals in Latin lookup 0 subtable" uni0262
EndChar

StartChar: GAFbar
Encoding: 1114122 -1 48
GlifName: G_A_F_bar
Width: 1105
VWidth: 0
GlyphClass: 2
Flags: HW
LayerCount: 2
Fore
SplineSet
847 2004 m 257
 862 1938 l 257
 594 1875 325 1765 95 1619 c 257
 58 1678 l 257
 294 1827 572 1939 847 2004 c 257
EndSplineSet
EndChar

StartChar: H
Encoding: 72 72 53
GlifName: H_
Width: 1396
VWidth: 0
GlyphClass: 2
Flags: HW
LayerCount: 2
Fore
SplineSet
1081 1353 m 257
 1182 1353 l 257
 1182 0 l 257
 1081 0 l 257
 1081 632 l 257
 314 632 l 257
 314 0 l 257
 214 0 l 257
 214 1353 l 257
 314 1353 l 257
 314 721 l 257
 1081 721 l 257
 1081 1353 l 257
EndSplineSet
Substitution2: "'c2sc' Capitals to Small Capitals in Latin lookup 0 subtable" uni029C
EndChar

StartChar: I
Encoding: 73 73 63
GlifName: I_
Width: 619
VWidth: 0
GlyphClass: 2
Flags: HW
LayerCount: 2
Fore
SplineSet
360 0 m 257
 259 0 l 257
 259 1353 l 257
 360 1353 l 257
 360 0 l 257
EndSplineSet
Substitution2: "'c2sc' Capitals to Small Capitals in Latin lookup 0 subtable" uni026A
EndChar

StartChar: J
Encoding: 74 74 74
GlifName: J_
Width: 708
VWidth: 0
GlyphClass: 2
Flags: HW
LayerCount: 2
Fore
SplineSet
90 10 m 257
 106 84 l 257
 132 78 176 72 218 72 c 256
 335 72 396 126 396 244 c 258
 396 1353 l 257
 496 1353 l 257
 496 234 l 258
 496 60 384 -11 232 -11 c 256
 183 -11 134 -3 90 10 c 257
EndSplineSet
Substitution2: "'c2sc' Capitals to Small Capitals in Latin lookup 0 subtable" uni1D0A
EndChar

StartChar: K
Encoding: 75 75 76
GlifName: K_
Width: 1186
VWidth: 0
GlyphClass: 2
Flags: HW
LayerCount: 2
Fore
SplineSet
1022 1353 m 257
 1149 1353 l 257
 561 676 l 257
 1149 0 l 257
 1022 0 l 257
 497 603 l 257
 314 396 l 257
 314 0 l 257
 214 0 l 257
 214 1353 l 257
 314 1353 l 257
 314 538 l 257
 1022 1353 l 257
EndSplineSet
Substitution2: "'c2sc' Capitals to Small Capitals in Latin lookup 0 subtable" uni1D0B
EndChar

StartChar: K.alt
Encoding: 1114130 -1 77
GlifName: K_.alt
Width: 1186
VWidth: 0
GlyphClass: 2
Flags: HW
LayerCount: 2
Fore
SplineSet
1022 1353 m 257
 1149 1353 l 257
 561 676 l 257
 1149 0 l 257
 1022 0 l 257
 476 629 l 257
 314 629 l 257
 314 0 l 257
 214 0 l 257
 214 1353 l 257
 314 1353 l 257
 314 718 l 257
 472 718 l 257
 1022 1353 l 257
EndSplineSet
Substitution2: "'c2sc' Capitals to Small Capitals in Latin lookup 0 subtable" uni1D0B
EndChar

StartChar: L
Encoding: 76 76 78
GlifName: L_
Width: 1029
VWidth: 0
GlyphClass: 2
Flags: HW
LayerCount: 2
Fore
SplineSet
969 87 m 257
 969 0 l 257
 214 0 l 257
 214 1353 l 257
 314 1353 l 257
 314 87 l 257
 969 87 l 257
EndSplineSet
Substitution2: "'c2sc' Capitals to Small Capitals in Latin lookup 0 subtable" uni029F
EndChar

StartChar: M
Encoding: 77 77 83
GlifName: M_
Width: 1833
VWidth: 0
GlyphClass: 2
Flags: HW
LayerCount: 2
Fore
SplineSet
314 0 m 257
 214 0 l 257
 214 1353 l 257
 368 1353 l 257
 889 75 l 257
 1466 1353 l 257
 1621 1353 l 257
 1621 0 l 257
 1520 0 l 257
 1520 1246 l 257
 959 0 l 257
 818 0 l 257
 314 1239 l 257
 314 0 l 257
EndSplineSet
Substitution2: "'c2sc' Capitals to Small Capitals in Latin lookup 0 subtable" uni1D0D
EndChar

StartChar: N
Encoding: 78 78 84
GlifName: N_
Width: 1409
VWidth: 0
GlyphClass: 2
Flags: HW
LayerCount: 2
Fore
SplineSet
1095 1353 m 257
 1196 1353 l 257
 1196 0 l 257
 1068 0 l 257
 314 1225 l 257
 314 0 l 257
 214 0 l 257
 214 1353 l 257
 342 1353 l 257
 1095 126 l 257
 1095 1353 l 257
EndSplineSet
Substitution2: "'c2sc' Capitals to Small Capitals in Latin lookup 0 subtable" uni0274
EndChar

StartChar: O
Encoding: 79 79 88
GlifName: O_
Width: 1521
VWidth: 0
GlyphClass: 2
Flags: HW
LayerCount: 2
Fore
SplineSet
761 1364 m 256
 1157 1364 1351 1072 1351 676 c 256
 1351 279 1157 -11 761 -11 c 256
 365 -11 170 279 170 676 c 256
 170 1072 365 1364 761 1364 c 256
761 1275 m 256
 422 1275 271 1015 271 676 c 256
 271 336 422 76 761 76 c 256
 1100 76 1250 337 1250 676 c 256
 1250 1016 1100 1275 761 1275 c 256
EndSplineSet
Substitution2: "'c2sc' Capitals to Small Capitals in Latin lookup 0 subtable" uni1D0F
EndChar

StartChar: OE
Encoding: 338 338 89
GlifName: O_E_
Width: 1623
VWidth: 0
GlyphClass: 2
Flags: HW
LayerCount: 2
Fore
SplineSet
887 1265 m 257
 760 1265 l 258
 434 1265 279 1014 279 676 c 256
 279 337 434 87 760 87 c 258
 887 87 l 257
 887 1265 l 257
987 1265 m 257
 987 720 l 257
 1504 720 l 257
 1504 632 l 257
 987 632 l 257
 987 87 l 257
 1560 87 l 257
 1560 0 l 257
 760 0 l 258
 381 0 177 279 177 676 c 256
 177 1073 381 1353 760 1353 c 258
 1560 1353 l 257
 1560 1265 l 257
 987 1265 l 257
EndSplineSet
EndChar

StartChar: P
Encoding: 80 80 102
GlifName: P_
Width: 1138
VWidth: 0
GlyphClass: 2
Flags: HW
LayerCount: 2
Fore
SplineSet
266 0 m 257
 164 0 l 257
 164 1353 l 257
 648 1353 l 258
 886 1353 1028 1203 1028 974 c 256
 1028 745 887 593 648 593 c 258
 266 593 l 257
 266 0 l 257
266 1265 m 257
 266 680 l 257
 647 680 l 258
 834 680 927 804 927 974 c 256
 927 1144 834 1265 647 1265 c 258
 266 1265 l 257
EndSplineSet
Substitution2: "'c2sc' Capitals to Small Capitals in Latin lookup 0 subtable" uni1D18
EndChar

StartChar: R
Encoding: 82 82 105
GlifName: R_
Width: 1141
VWidth: 0
GlyphClass: 2
Flags: HW
LayerCount: 2
Fore
SplineSet
746 650 m 257
 1104 0 l 257
 997 0 l 257
 653 650 l 257
 746 650 l 257
EndSplineSet
Refer: 102 80 N 1 0 0 1 0 0 2
Substitution2: "'c2sc' Capitals to Small Capitals in Latin lookup 0 subtable" uni0280
EndChar

StartChar: S
Encoding: 83 83 108
GlifName: S_
Width: 1159
VWidth: 0
GlyphClass: 2
Flags: HW
LayerCount: 2
Fore
SplineSet
112 377 m 257
 214 377 l 257
 214 179 395 77 594 77 c 256
 783 77 947 162 947 343 c 256
 947 527 761 581 580 634 c 256
 368 696 142 766 142 1013 c 256
 142 1229 326 1363 565 1363 c 256
 811 1363 1020 1213 1020 981 c 257
 920 981 l 257
 920 1166 757 1277 569 1277 c 256
 385 1277 244 1183 244 1017 c 256
 244 837 432 779 614 723 c 256
 825 659 1048 584 1048 346 c 256
 1048 110 840 -10 596 -10 c 256
 342 -10 112 123 112 377 c 257
EndSplineSet
Substitution2: "'c2sc' Capitals to Small Capitals in Latin lookup 0 subtable" uniA731
EndChar

StartChar: T
Encoding: 84 84 113
GlifName: T_
Width: 1325
VWidth: 0
GlyphClass: 2
Flags: HW
LayerCount: 2
Fore
SplineSet
714 0 m 257
 613 0 l 257
 613 1265 l 257
 114 1265 l 257
 114 1353 l 257
 1213 1353 l 257
 1213 1265 l 257
 714 1265 l 257
 714 0 l 257
EndSplineSet
Substitution2: "'c2sc' Capitals to Small Capitals in Latin lookup 0 subtable" uni1D1B
EndChar

StartChar: Thorn
Encoding: 222 222 123
GlifName: T_horn
Width: 1138
VWidth: 0
GlyphClass: 2
Flags: HW
LayerCount: 2
Fore
SplineSet
268 365 m 257
 646 365 l 258
 833 365 930 485 930 659 c 256
 930 833 833 950 646 950 c 258
 268 950 l 257
 268 365 l 257
268 0 m 257
 168 0 l 257
 168 1353 l 257
 268 1353 l 257
 268 1038 l 257
 646 1038 l 258
 878 1038 1031 888 1031 659 c 256
 1031 430 878 279 646 279 c 258
 268 279 l 257
 268 0 l 257
EndSplineSet
EndChar

StartChar: U
Encoding: 85 85 124
GlifName: U_
Width: 1340
VWidth: 0
GlyphClass: 2
Flags: HW
LayerCount: 2
Fore
SplineSet
1070 1353 m 257
 1172 1353 l 257
 1172 470 l 258
 1172 165 976 -11 669 -11 c 256
 362 -11 168 165 168 470 c 258
 168 1353 l 257
 269 1353 l 257
 269 470 l 258
 269 220 424 77 669 77 c 256
 914 77 1070 220 1070 470 c 258
 1070 1353 l 257
EndSplineSet
Substitution2: "'c2sc' Capitals to Small Capitals in Latin lookup 0 subtable" uni1D1C
EndChar

StartChar: V
Encoding: 86 86 136
GlifName: V_
Width: 1187
VWidth: 0
GlyphClass: 2
Flags: HW
LayerCount: 2
Fore
SplineSet
593 91 m 257
 1063 1353 l 257
 1170 1353 l 257
 658 0 l 257
 528 0 l 257
 18 1353 l 257
 125 1353 l 257
 593 91 l 257
EndSplineSet
Substitution2: "'c2sc' Capitals to Small Capitals in Latin lookup 0 subtable" uni1D20
EndChar

StartChar: W
Encoding: 87 87 137
GlifName: W_
Width: 1833
VWidth: 0
GlyphClass: 2
Flags: HW
LayerCount: 2
Fore
SplineSet
1678 1353 m 257
 1784 1353 l 257
 1393 0 l 257
 1247 0 l 257
 917 1248 l 257
 580 0 l 257
 439 0 l 257
 49 1353 l 257
 154 1353 l 257
 516 97 l 257
 848 1353 l 257
 985 1353 l 257
 1316 97 l 257
 1678 1353 l 257
EndSplineSet
Substitution2: "'c2sc' Capitals to Small Capitals in Latin lookup 0 subtable" uni1D21
EndChar

StartChar: X
Encoding: 88 88 142
GlifName: X_
Width: 1281
VWidth: 0
GlyphClass: 2
Flags: HW
LayerCount: 2
Fore
SplineSet
1245 0 m 257
 1122 0 l 257
 641 597 l 257
 159 0 l 257
 37 0 l 257
 577 676 l 257
 37 1353 l 257
 159 1353 l 257
 641 755 l 257
 1122 1353 l 257
 1245 1353 l 257
 703 676 l 257
 1245 0 l 257
EndSplineSet
Substitution2: "'c2sc' Capitals to Small Capitals in Latin lookup 0 subtable" uniA7EF
EndChar

StartChar: Y
Encoding: 89 89 143
GlifName: Y_
Width: 1140
VWidth: 0
GlyphClass: 2
Flags: HW
LayerCount: 2
Fore
SplineSet
1022 1353 m 257
 1137 1353 l 257
 620 582 l 257
 620 0 l 257
 519 0 l 257
 519 582 l 257
 3 1353 l 257
 119 1353 l 257
 569 672 l 257
 1022 1353 l 257
EndSplineSet
Substitution2: "'c2sc' Capitals to Small Capitals in Latin lookup 0 subtable" uni028F
EndChar

StartChar: Z
Encoding: 90 90 148
GlifName: Z_
Width: 1209
VWidth: 0
GlyphClass: 2
Flags: HW
LayerCount: 2
Fore
SplineSet
98 1267 m 257
 98 1353 l 257
 1111 1353 l 257
 1111 1252 l 257
 199 87 l 257
 1111 87 l 257
 1111 0 l 257
 98 0 l 257
 98 103 l 257
 1010 1267 l 257
 98 1267 l 257
EndSplineSet
Substitution2: "'c2sc' Capitals to Small Capitals in Latin lookup 0 subtable" uni1D22
EndChar

StartChar: a
Encoding: 97 97 152
GlifName: a
Width: 1044
VWidth: 0
GlyphClass: 2
Flags: HW
LayerCount: 2
Fore
SplineSet
508 1017 m 256
 722 1017 881 916 881 718 c 258
 881 229 l 258
 881 129 912 75 1019 75 c 257
 1020 -0 l 257
 869 -6 780 65 780 226 c 258
 780 718 l 258
 780 867 660 934 506 934 c 256
 352 934 231 867 231 718 c 257
 138 718 l 257
 136 917 294 1017 508 1017 c 256
EndSplineSet
Refer: 1670 57355 N 1 0 0 1 -2 0 2
Substitution2: "'smcp' Lowercase to Small Capitals in Latin lookup 0 subtable" uni1D00
EndChar

StartChar: acute
Encoding: 180 180 156
GlifName: acute
Width: 569
VWidth: 0
GlyphClass: 2
Flags: HW
LayerCount: 2
Fore
SplineSet
326 1460 m 257
 432 1460 l 257
 230 1132 l 257
 138 1132 l 257
 326 1460 l 257
EndSplineSet
EndChar

StartChar: ae
Encoding: 230 230 158
GlifName: ae
Width: 1755
VWidth: 0
GlyphClass: 2
Flags: HW
LayerCount: 2
Fore
SplineSet
780 258 m 257
 780 718 l 258
 780 867 660 934 506 934 c 256
 352 934 230 867 230 718 c 257
 138 718 l 257
 136 917 294 1017 508 1017 c 256
 722 1017 881 916 881 718 c 258
 881 257 l 257
 780 258 l 257
110 263 m 256
 110 479 276 561 489 561 c 258
 875 561 l 257
 875 484 l 257
 492 485 l 258
 325 485 206 425 206 273 c 256
 206 150 268 71 432 71 c 256
 625 71 759 228 792 282 c 257
 835 263 l 257
 799 181 642 -12 401 -12 c 256
 224 -12 110 84 110 263 c 256
EndSplineSet
Refer: 225 101 N 1 0 0 1 693 0 2
Substitution2: "'c2sc' Capitals to Small Capitals in Latin lookup 0 subtable" uni1D01
Substitution2: "'smcp' Lowercase to Small Capitals in Latin lookup 0 subtable" uni1D01
EndChar

StartChar: ampersand
Encoding: 38 38 162
GlifName: ampersand
Width: 1321
VWidth: 0
GlyphClass: 2
Flags: HW
LayerCount: 2
Fore
SplineSet
213 1058 m 256
 213 1212 327 1362 543 1362 c 256
 740 1362 870 1232 870 1064 c 256
 870 861 700 759 516 659 c 256
 352 570 203 474 203 326 c 256
 203 158 357 83 533 83 c 256
 836 83 1055 327 1055 571 c 257
 1146 571 l 257
 1146 288 912 -9 535 -9 c 256
 295 -9 106 105 106 320 c 256
 106 512 272 629 460 730 c 256
 628 820 774 900 774 1061 c 256
 774 1190 682 1278 543 1278 c 256
 391 1278 309 1172 309 1066 c 256
 309 966 360 893 435 820 c 258
 1222 56 l 257
 1159 -11 l 257
 361 765 l 258
 274 850 213 944 213 1058 c 256
EndSplineSet
EndChar

StartChar: approxequal
Encoding: 8776 8776 164
GlifName: approxequal
Width: 1149
VWidth: 0
GlyphClass: 2
Flags: HW
LayerCount: 2
Fore
SplineSet
161 306 m 257
 236 408 309 452 394 452 c 256
 442 452 502 435 587 387 c 256
 662 345 712 328 748 328 c 256
 804 328 861 363 921 439 c 257
 982 393 l 257
 906 290 835 248 750 248 c 256
 700 248 639 267 555 314 c 256
 483 355 429 372 392 372 c 256
 335 372 281 339 222 261 c 257
 161 306 l 257
161 801 m 257
 236 903 309 947 394 947 c 256
 442 947 502 929 587 881 c 256
 662 839 712 823 748 823 c 256
 804 823 861 858 921 934 c 257
 982 888 l 257
 906 785 835 742 750 742 c 256
 700 742 639 761 555 808 c 256
 483 849 429 867 392 867 c 256
 335 867 281 834 222 756 c 257
 161 801 l 257
EndSplineSet
EndChar

StartChar: arrowboth
Encoding: 8596 8596 167
GlifName: arrowboth
Width: 1626
VWidth: 0
GlyphClass: 2
Flags: HW
LayerCount: 2
Fore
SplineSet
502 859 m 257
 557 804 l 257
 285 532 l 257
 328 544 l 257
 1298 544 l 257
 1341 532 l 257
 1069 804 l 257
 1124 859 l 257
 1476 506 l 257
 1124 154 l 257
 1069 209 l 257
 1341 481 l 257
 1298 469 l 257
 328 469 l 257
 285 481 l 257
 557 209 l 257
 502 154 l 257
 150 506 l 257
 502 859 l 257
EndSplineSet
EndChar

StartChar: arrowdown
Encoding: 8595 8595 168
GlifName: arrowdown
Width: 1005
VWidth: 0
GlyphClass: 2
Flags: HW
LayerCount: 2
Fore
SplineSet
540 1034 m 257
 540 243 l 257
 528 200 l 257
 800 472 l 257
 855 417 l 257
 502 65 l 257
 150 417 l 257
 205 472 l 257
 477 200 l 257
 465 243 l 257
 465 1034 l 257
 540 1034 l 257
EndSplineSet
EndChar

StartChar: arrowleft
Encoding: 8592 8592 169
GlifName: arrowleft
Width: 1269
VWidth: 0
GlyphClass: 2
Flags: HW
LayerCount: 2
Fore
SplineSet
1119 469 m 257
 328 469 l 257
 285 481 l 257
 557 209 l 257
 502 154 l 257
 150 506 l 257
 502 859 l 257
 557 804 l 257
 285 532 l 257
 328 544 l 257
 1119 544 l 257
 1119 469 l 257
EndSplineSet
EndChar

StartChar: arrowright
Encoding: 8594 8594 170
GlifName: arrowright
Width: 1269
VWidth: 0
GlyphClass: 2
Flags: HW
LayerCount: 2
Fore
SplineSet
150 544 m 257
 941 544 l 257
 984 532 l 257
 712 804 l 257
 767 859 l 257
 1119 506 l 257
 767 154 l 257
 712 209 l 257
 984 481 l 257
 941 469 l 257
 150 469 l 257
 150 544 l 257
EndSplineSet
EndChar

StartChar: arrowup
Encoding: 8593 8593 171
GlifName: arrowup
Width: 1005
VWidth: 0
GlyphClass: 2
Flags: HW
LayerCount: 2
Fore
SplineSet
465 -23 m 257
 465 768 l 257
 477 812 l 257
 205 539 l 257
 150 594 l 257
 502 946 l 257
 855 594 l 257
 800 539 l 257
 528 812 l 257
 540 768 l 257
 540 -23 l 257
 465 -23 l 257
EndSplineSet
EndChar

StartChar: arrowupdn
Encoding: 8597 8597 172
GlifName: arrowupdn
Width: 1005
VWidth: 0
GlyphClass: 2
Flags: HW
LayerCount: 2
Fore
SplineSet
502 1170 m 257
 855 817 l 257
 800 762 l 257
 528 1035 l 257
 540 991 l 257
 540 22 l 257
 528 -22 l 257
 800 250 l 257
 855 196 l 257
 502 -157 l 257
 150 196 l 257
 205 250 l 257
 477 -22 l 257
 465 22 l 257
 465 991 l 257
 477 1035 l 257
 205 762 l 257
 150 817 l 257
 502 1170 l 257
EndSplineSet
EndChar

StartChar: asciicircum
Encoding: 94 94 173
GlifName: asciicircum
Width: 782
VWidth: 0
GlyphClass: 2
Flags: HW
LayerCount: 2
Fore
SplineSet
645 1132 m 257
 553 1132 l 257
 391 1391 l 257
 229 1132 l 257
 138 1132 l 257
 335 1460 l 257
 447 1460 l 257
 645 1132 l 257
EndSplineSet
Substitution2: "'tnum' Tabular Numbers lookup 22 subtable" asciicircum.tnum
EndChar

StartChar: asciitilde
Encoding: 126 126 175
GlifName: asciitilde
Width: 1025
VWidth: 0
GlyphClass: 2
Flags: HW
LayerCount: 2
Fore
SplineSet
139 1160 m 257
 193 1272 264 1327 347 1327 c 256
 397 1327 446 1309 530 1261 c 256
 602 1221 640 1204 676 1204 c 256
 731 1204 779 1242 824 1330 c 257
 887 1300 l 257
 833 1187 763 1132 681 1132 c 256
 630 1132 578 1152 494 1200 c 256
 427 1239 384 1256 348 1256 c 256
 293 1256 247 1220 201 1130 c 257
 139 1160 l 257
EndSplineSet
EndChar

StartChar: asterisk
Encoding: 42 42 176
GlifName: asterisk
Width: 1255
VWidth: 0
GlyphClass: 2
Flags: HW
LayerCount: 2
Fore
SplineSet
211 1021 m 257
 237 1094 l 257
 589 979 l 257
 590 1353 l 257
 667 1353 l 257
 666 979 l 257
 1020 1094 l 257
 1045 1021 l 257
 692 905 l 257
 910 605 l 257
 848 560 l 257
 628 859 l 257
 409 560 l 257
 348 605 l 257
 564 905 l 257
 211 1021 l 257
EndSplineSet
Substitution2: "'tnum' Tabular Numbers lookup 22 subtable" asterisk.tnum
EndChar

StartChar: at
Encoding: 64 64 178
GlifName: at
Width: 1912
VWidth: 0
GlyphClass: 2
Flags: HW
LayerCount: 2
Fore
SplineSet
958 850 m 256
 771 850 594 714 594 402 c 256
 594 142 748 76 883 76 c 256
 1018 76 1163 171 1186 426 c 258
 1218 770 l 257
 1156 817 1088 850 958 850 c 256
958 925 m 256
 1133 925 1221 868 1304 803 c 257
 1256 283 l 258
 1255 267 1254 252 1254 242 c 256
 1254 134 1317 74 1418 74 c 256
 1588 74 1677 261 1677 485 c 256
 1677 856 1380 1206 976 1206 c 256
 585 1206 238 898 238 438 c 256
 238 -7 522 -265 997 -265 c 256
 1069 -265 1140 -253 1206 -234 c 257
 1234 -306 l 257
 1158 -327 1080 -340 996 -340 c 256
 465 -340 154 -42 154 440 c 256
 154 935 525 1280 967 1280 c 256
 1442 1280 1758 890 1758 483 c 256
 1758 243 1650 -6 1420 -6 c 256
 1298 -6 1210 52 1195 191 c 257
 1138 52 994 -6 883 -6 c 256
 692 -6 512 118 512 402 c 256
 512 741 710 925 958 925 c 256
EndSplineSet
EndChar

StartChar: b
Encoding: 98 98 180
GlifName: b
Width: 1087
VWidth: 0
GlyphClass: 2
Flags: HW
LayerCount: 2
Fore
SplineSet
269 0 m 257
 168 0 l 257
 168 1410 l 257
 269 1410 l 257
 269 0 l 257
EndSplineSet
Refer: 1674 57359 N 1 0 0 1 -25 0 2
Substitution2: "'smcp' Lowercase to Small Capitals in Latin lookup 0 subtable" uni0299
EndChar

StartChar: backslash
Encoding: 92 92 181
GlifName: backslash
Width: 1157
VWidth: 0
GlyphClass: 2
Flags: HW
LayerCount: 2
Fore
SplineSet
958 0 m 257
 845 0 l 257
 191 1353 l 257
 305 1353 l 257
 958 0 l 257
EndSplineSet
Substitution2: "'tnum' Tabular Numbers lookup 22 subtable" backslash.tnum
EndChar

StartChar: bar
Encoding: 124 124 183
GlifName: bar
Width: 520
VWidth: 0
GlyphClass: 2
Flags: HW
LayerCount: 2
Fore
SplineSet
211 1360 m 257
 311 1360 l 257
 311 -438 l 257
 211 -438 l 257
 211 1360 l 257
EndSplineSet
Substitution2: "'tnum' Tabular Numbers lookup 22 subtable" bar.tnum
EndChar

StartChar: braceleft
Encoding: 123 123 185
GlifName: braceleft
Width: 822
VWidth: 0
GlyphClass: 2
Flags: HW
LayerCount: 2
Fore
SplineSet
187 650 m 257
 342 576 404 471 404 330 c 258
 404 106 l 258
 404 33 454 -29 534 -29 c 258
 713 -29 l 257
 713 -115 l 257
 539 -115 l 258
 401 -115 313 -21 313 100 c 258
 313 330 l 258
 313 472 217 573 102 605 c 257
 68 612 l 257
 68 690 l 257
 102 698 l 257
 217 730 313 830 313 972 c 258
 313 1201 l 258
 313 1322 401 1414 539 1414 c 258
 713 1414 l 257
 713 1330 l 257
 534 1330 l 258
 454 1330 404 1267 404 1194 c 258
 404 972 l 258
 404 830 341 723 187 650 c 257
EndSplineSet
Substitution2: "'tnum' Tabular Numbers lookup 22 subtable" braceleft.tnum
EndChar

StartChar: braceright
Encoding: 125 125 187
GlifName: braceright
Width: 822
VWidth: 0
GlyphClass: 2
Flags: HW
LayerCount: 2
Fore
SplineSet
635 649 m 257
 480 723 418 828 418 969 c 258
 418 1194 l 258
 418 1267 368 1328 288 1328 c 258
 109 1328 l 257
 109 1414 l 257
 283 1414 l 258
 421 1414 509 1321 509 1200 c 258
 509 969 l 258
 509 827 605 726 720 694 c 257
 754 688 l 257
 754 609 l 257
 720 601 l 258
 605 569 509 469 509 327 c 258
 509 99 l 258
 509 -22 421 -115 283 -115 c 258
 109 -115 l 257
 109 -31 l 257
 288 -31 l 258
 368 -31 418 32 418 105 c 258
 418 327 l 258
 418 469 481 576 635 649 c 257
EndSplineSet
Substitution2: "'tnum' Tabular Numbers lookup 22 subtable" braceright.tnum
EndChar

StartChar: bracketleft
Encoding: 91 91 189
GlifName: bracketleft
Width: 714
VWidth: 0
GlyphClass: 2
Flags: HW
LayerCount: 2
Fore
SplineSet
596 -29 m 257
 596 -115 l 257
 196 -115 l 257
 196 1415 l 257
 596 1415 l 257
 596 1330 l 257
 287 1330 l 257
 287 -29 l 257
 596 -29 l 257
EndSplineSet
Substitution2: "'tnum' Tabular Numbers lookup 22 subtable" bracketleft.tnum
EndChar

StartChar: bracketright
Encoding: 93 93 191
GlifName: bracketright
Width: 715
VWidth: 0
GlyphClass: 2
Flags: HW
LayerCount: 2
Fore
SplineSet
119 1328 m 257
 119 1414 l 257
 520 1414 l 257
 520 -115 l 257
 119 -115 l 257
 119 -31 l 257
 429 -31 l 257
 429 1328 l 257
 119 1328 l 257
EndSplineSet
Substitution2: "'tnum' Tabular Numbers lookup 22 subtable" bracketright.tnum
EndChar

StartChar: breve
Encoding: 728 728 193
GlifName: breve
Width: 899
VWidth: 0
GlyphClass: 2
Flags: HW
LayerCount: 2
Fore
SplineSet
761 1442 m 257
 761 1248 642 1132 450 1132 c 256
 258 1132 139 1248 139 1442 c 257
 214 1442 l 257
 214 1291 300 1204 450 1204 c 256
 600 1204 686 1291 686 1442 c 257
 761 1442 l 257
EndSplineSet
EndChar

StartChar: brokenbar
Encoding: 166 166 194
GlifName: brokenbar
Width: 482
VWidth: 0
GlyphClass: 2
Flags: HW
LayerCount: 2
Fore
SplineSet
292 865 m 257
 191 865 l 257
 191 1353 l 257
 292 1353 l 257
 292 865 l 257
292 0 m 257
 191 0 l 257
 191 489 l 257
 292 489 l 257
 292 0 l 257
EndSplineSet
EndChar

StartChar: bullet
Encoding: 8226 8226 195
GlifName: bullet
Width: 475
VWidth: 0
GlyphClass: 2
Flags: HW
LayerCount: 2
Fore
SplineSet
100 688 m 256
 100 765 156 825 238 825 c 256
 320 825 376 765 376 688 c 256
 376 611 320 549 238 549 c 256
 156 549 100 611 100 688 c 256
EndSplineSet
EndChar

StartChar: c
Encoding: 99 99 196
GlifName: c
Width: 1099
VWidth: 0
GlyphClass: 2
Flags: HW
LayerCount: 2
Fore
SplineSet
569 1017 m 256
 785 1017 932 908 986 723 c 257
 893 705 l 257
 848 848 734 933 569 933 c 256
 360 933 216 798 216 504 c 256
 216 209 360 74 569 74 c 256
 734 74 848 161 893 304 c 257
 986 286 l 257
 932 96 785 -11 569 -11 c 256
 295 -11 114 166 114 504 c 256
 114 842 295 1017 569 1017 c 256
EndSplineSet
Substitution2: "'smcp' Lowercase to Small Capitals in Latin lookup 0 subtable" uni1D04
EndChar

StartChar: caron
Encoding: 711 711 198
GlifName: caron
Width: 782
VWidth: 0
GlyphClass: 2
Flags: HW
LayerCount: 2
Fore
SplineSet
138 1460 m 257
 230 1460 l 257
 391 1200 l 257
 554 1460 l 257
 645 1460 l 257
 447 1132 l 257
 335 1132 l 257
 138 1460 l 257
EndSplineSet
EndChar

StartChar: cedilla
Encoding: 184 184 203
GlifName: cedilla
Width: 667
VWidth: 0
GlyphClass: 2
Flags: HW
LayerCount: 2
Fore
SplineSet
528 -277 m 256
 528 -381 447 -446 315 -446 c 256
 254 -446 194 -432 139 -404 c 257
 164 -346 l 257
 203 -367 262 -381 318 -381 c 256
 409 -381 459 -345 459 -282 c 256
 459 -210 395 -167 295 -167 c 256
 283 -167 270 -168 257 -169 c 257
 257 1 l 257
 326 1 l 257
 326 -111 l 257
 454 -111 528 -174 528 -277 c 256
EndSplineSet
EndChar

StartChar: circumflex
Encoding: 710 710 206
GlifName: circumflex
Width: 782
VWidth: 0
GlyphClass: 2
Flags: HW
LayerCount: 2
Fore
SplineSet
645 1132 m 257
 553 1132 l 257
 391 1391 l 257
 229 1132 l 257
 138 1132 l 257
 335 1460 l 257
 447 1460 l 257
 645 1132 l 257
EndSplineSet
EndChar

StartChar: comma
Encoding: 44 44 208
GlifName: comma
Width: 543
VWidth: 0
GlyphClass: 2
Flags: HW
LayerCount: 2
Fore
SplineSet
210 221 m 257
 326 221 l 257
 189 -216 l 257
 118 -187 l 257
 210 221 l 257
EndSplineSet
Substitution2: "'tnum' Tabular Numbers lookup 22 subtable" comma.tnum
EndChar

StartChar: copyright
Encoding: 169 169 210
GlifName: copyright
Width: 1937
VWidth: 0
GlyphClass: 2
Flags: HW
LayerCount: 2
Fore
SplineSet
239 769 m 256
 239 362 536 40 970 40 c 256
 1404 40 1700 362 1700 769 c 256
 1700 1176 1404 1498 970 1498 c 256
 536 1498 239 1176 239 769 c 256
153 769 m 256
 153 1210 469 1576 970 1576 c 256
 1471 1576 1786 1210 1786 769 c 256
 1786 328 1471 -38 970 -38 c 256
 469 -38 153 328 153 769 c 256
1252 1004 m 257
 1203 963 l 257
 1133 1034 1067 1070 966 1070 c 256
 794 1070 688 925 688 772 c 256
 688 619 794 476 966 476 c 256
 1067 476 1133 511 1203 582 c 257
 1252 540 l 257
 1167 454 1089 409 963 409 c 256
 750 409 620 587 620 772 c 256
 620 957 750 1136 963 1136 c 256
 1089 1136 1167 1090 1252 1004 c 257
EndSplineSet
EndChar

StartChar: currency
Encoding: 164 164 211
GlifName: currency
Width: 1313
VWidth: 0
GlyphClass: 2
Flags: HW
LayerCount: 2
Fore
SplineSet
895 99 m 257
 966 158 l 257
 1212 -122 l 257
 1142 -180 l 257
 895 99 l 257
349 158 m 257
 419 99 l 257
 173 -180 l 257
 102 -122 l 257
 349 158 l 257
966 843 m 257
 895 902 l 257
 1142 1182 l 257
 1212 1123 l 257
 966 843 l 257
419 902 m 257
 349 843 l 257
 102 1123 l 257
 173 1182 l 257
 419 902 l 257
EndSplineSet
Refer: 324 111 N 1 0 0 1 119 0 2
EndChar

StartChar: d
Encoding: 100 100 212
GlifName: d
Width: 1086
VWidth: 0
GlyphClass: 2
Flags: HW
LayerCount: 2
Fore
SplineSet
921 0 m 257
 818 0 l 257
 818 1360 l 257
 921 1360 l 257
 921 0 l 257
EndSplineSet
Refer: 1674 57359 N -1 0 0 -1 1113 1008 2
Substitution2: "'smcp' Lowercase to Small Capitals in Latin lookup 0 subtable" uni1D05
EndChar

StartChar: dagger
Encoding: 8224 8224 213
GlifName: dagger
Width: 1334
VWidth: 0
GlyphClass: 2
Flags: HW
LayerCount: 2
Fore
SplineSet
200 890 m 257
 200 984 l 257
 1134 984 l 257
 1134 890 l 257
 200 890 l 257
620 1353 m 257
 714 1353 l 257
 714 -475 l 257
 620 -475 l 257
 620 1353 l 257
EndSplineSet
EndChar

StartChar: daggerdbl
Encoding: 8225 8225 214
GlifName: daggerdbl
Width: 1334
VWidth: 0
GlyphClass: 2
Flags: HW
LayerCount: 2
Fore
SplineSet
200 -106 m 257
 200 -12 l 257
 1134 -12 l 257
 1134 -106 l 257
 200 -106 l 257
200 890 m 257
 200 984 l 257
 1134 984 l 257
 1134 890 l 257
 200 890 l 257
620 1353 m 257
 714 1353 l 257
 714 -475 l 257
 620 -475 l 257
 620 1353 l 257
EndSplineSet
EndChar

StartChar: degree
Encoding: 176 176 217
GlifName: degree
Width: 722
VWidth: 0
GlyphClass: 2
Flags: HW
LayerCount: 2
Fore
SplineSet
519 1354 m 256
 519 1443 450 1513 361 1513 c 256
 272 1513 203 1443 203 1354 c 256
 203 1265 272 1196 361 1196 c 256
 450 1196 519 1265 519 1354 c 256
584 1354 m 256
 584 1230 485 1132 361 1132 c 256
 238 1132 139 1230 139 1354 c 256
 139 1478 238 1577 361 1577 c 256
 485 1577 584 1478 584 1354 c 256
EndSplineSet
EndChar

StartChar: dieresis
Encoding: 168 168 218
GlifName: dieresis
Width: 778
VWidth: 0
GlyphClass: 2
Flags: HW
LayerCount: 2
Fore
SplineSet
139 1212 m 256
 139 1256 172 1292 219 1292 c 256
 266 1292 300 1256 300 1212 c 256
 300 1168 266 1132 219 1132 c 256
 172 1132 139 1168 139 1212 c 256
478 1212 m 256
 478 1256 511 1292 558 1292 c 256
 605 1292 640 1256 640 1212 c 256
 640 1168 605 1132 558 1132 c 256
 511 1132 478 1168 478 1212 c 256
EndSplineSet
EndChar

StartChar: dollar.alt
Encoding: 1114151 -1 222
GlifName: dollar.alt
Width: 1159
VWidth: 0
GlyphClass: 2
Flags: HW
LayerCount: 2
Fore
SplineSet
606 25 m 257
 606 -228 l 257
 534 -228 l 257
 534 25 l 257
 606 25 l 257
534 1325 m 257
 534 1570 l 257
 606 1570 l 257
 606 1325 l 257
 534 1325 l 257
EndSplineSet
Refer: 108 83 N 1 0 0 1 0 0 2
EndChar

StartChar: dotaccent
Encoding: 729 729 223
GlifName: dotaccent
Width: 527
VWidth: 0
GlyphClass: 2
Flags: HW
LayerCount: 2
Fore
SplineSet
139 1255 m 256
 139 1324 195 1380 264 1380 c 256
 333 1380 389 1324 389 1255 c 256
 389 1186 333 1132 264 1132 c 256
 195 1132 139 1186 139 1255 c 256
EndSplineSet
EndChar

StartChar: dotlessi
Encoding: 305 305 224
GlifName: dotlessi
Width: 479
VWidth: 0
GlyphClass: 2
Flags: HW
LayerCount: 2
Fore
SplineSet
189 1008 m 257
 291 1008 l 257
 291 0 l 257
 189 0 l 257
 189 1008 l 257
EndSplineSet
EndChar

StartChar: e
Encoding: 101 101 225
GlifName: e
Width: 1062
VWidth: 0
GlyphClass: 2
Flags: HW
LayerCount: 2
Fore
SplineSet
189 484 m 257
 192 244 312 74 546 74 c 256
 710 74 818 158 863 280 c 257
 958 254 l 257
 895 86 752 -11 545 -11 c 256
 258 -11 91 181 91 504 c 256
 91 829 264 1017 536 1017 c 256
 867 1017 991 789 982 484 c 257
 189 484 l 257
191 561 m 257
 880 561 l 257
 865 774 780 933 536 933 c 256
 328 933 204 782 191 561 c 257
EndSplineSet
Substitution2: "'smcp' Lowercase to Small Capitals in Latin lookup 0 subtable" uni1D07
EndChar

StartChar: eight
Encoding: 56 56 233
GlifName: eight
Width: 1082
VWidth: 0
GlyphClass: 2
Flags: HW
LayerCount: 2
Fore
SplineSet
542 1364 m 256
 764 1364 911 1221 911 1023 c 256
 911 885 840 763 722 704 c 257
 880 629 973 493 973 342 c 256
 973 135 802 -12 542 -12 c 256
 282 -12 110 137 110 346 c 256
 110 498 202 633 359 705 c 257
 242 764 171 885 171 1022 c 256
 171 1220 319 1364 542 1364 c 256
542 1279 m 256
 378 1279 271 1173 271 1011 c 256
 271 846 379 739 542 739 c 256
 705 739 810 846 810 1011 c 256
 810 1174 704 1279 542 1279 c 256
538 657 m 256
 349 657 214 528 214 348 c 256
 214 177 336 74 542 74 c 256
 748 74 870 176 870 345 c 256
 870 524 730 657 538 657 c 256
EndSplineSet
Substitution2: "'sups' Superscript lookup 0 subtable" uni2078
Substitution2: "'subs' Subscript lookup 0 subtable" uni2088
Substitution2: "'sinf' Scientific Inferiors lookup 20 subtable" uni2088
Substitution2: "'tnum' Tabular Numbers lookup 22 subtable" eight.tnum
Substitution2: "'onum' Oldstyle Figures lookup 23 subtable" eight.onum
Substitution2: "'smcp' Lowercase to Small Capitals in Latin lookup 0 subtable" eight.SC
EndChar

StartChar: eight.SC
Encoding: 1114152 -1 234
GlifName: eight.S_C_
Width: 872
VWidth: 0
GlyphClass: 2
Flags: HW
LayerCount: 2
Fore
SplineSet
437 1018 m 256
 605 1018 716 909 716 759 c 256
 716 659 670 561 578 522 c 257
 699 473 763 365 763 254 c 256
 763 96 639 -10 437 -10 c 256
 235 -10 110 98 110 257 c 256
 110 368 174 477 294 523 c 257
 203 562 155 659 155 758 c 256
 155 908 268 1018 437 1018 c 256
437 936 m 256
 320 936 245 861 245 746 c 256
 245 629 320 554 436 554 c 256
 552 554 626 629 626 746 c 256
 626 861 552 936 437 936 c 256
433 482 m 256
 298 482 203 389 203 261 c 256
 203 141 288 74 436 74 c 256
 584 74 670 141 670 260 c 256
 670 387 570 482 433 482 c 256
EndSplineSet
EndChar

StartChar: eight.onum
Encoding: 1114153 -1 235
GlifName: eight.onum
Width: 1082
VWidth: 0
GlyphClass: 2
Flags: HW
LayerCount: 2
Fore
SplineSet
542 1364 m 256
 764 1364 911 1194 911 1023 c 256
 911 885 840 763 722 704 c 257
 880 629 973 478 973 342 c 256
 973 167 802 -12 542 -12 c 256
 282 -12 110 169 110 346 c 256
 110 483 202 633 359 705 c 257
 242 764 171 885 171 1022 c 256
 171 1193 319 1364 542 1364 c 256
542 1279 m 256
 378 1279 271 1146 271 1011 c 256
 271 846 379 739 542 739 c 256
 705 739 810 846 810 1011 c 256
 810 1147 704 1279 542 1279 c 256
538 657 m 256
 349 657 214 513 214 348 c 256
 214 207 336 74 542 74 c 256
 748 74 870 206 870 345 c 256
 870 510 730 657 538 657 c 256
EndSplineSet
EndChar

StartChar: emdash
Encoding: 8212 8212 239
GlifName: emdash
Width: 2048
VWidth: 0
GlyphClass: 2
Flags: HW
LayerCount: 2
Fore
SplineSet
1953 612 m 257
 1953 525 l 257
 95 525 l 257
 95 612 l 257
 1953 612 l 257
EndSplineSet
EndChar

StartChar: eng
Encoding: 331 331 241
GlifName: eng
Width: 1118
VWidth: 0
GlyphClass: 2
Flags: HW
LayerCount: 2
Fore
SplineSet
863 12 m 257
 965 12 l 257
 965 -240 l 258
 965 -414 845 -487 693 -487 c 256
 616 -487 552 -466 512 -436 c 257
 545 -367 l 257
 570 -388 618 -403 678 -403 c 256
 795 -403 863 -350 863 -232 c 258
 863 12 l 257
EndSplineSet
Refer: 312 110 N 1 0 0 1 0 0 2
EndChar

StartChar: eth
Encoding: 240 240 245
GlifName: eth
Width: 1090
VWidth: 0
GlyphClass: 2
Flags: HW
LayerCount: 2
Fore
SplineSet
545 933 m 256
 299 933 192 752 192 504 c 256
 192 256 299 74 545 74 c 256
 791 74 898 256 898 504 c 256
 898 752 791 933 545 933 c 256
540 1017 m 256
 682 1017 805 969 884 824 c 257
 814 1003 683 1180 563 1282 c 257
 370 1122 l 257
 327 1174 l 257
 512 1324 l 257
 457 1369 382 1405 321 1431 c 257
 350 1504 l 257
 412 1479 497 1436 577 1375 c 257
 745 1511 l 257
 786 1460 l 257
 622 1333 l 257
 857 1123 1000 802 1000 520 c 256
 1000 189 840 -11 546 -11 c 256
 252 -11 91 191 91 504 c 256
 91 825 260 1017 540 1017 c 256
EndSplineSet
EndChar

StartChar: exclam
Encoding: 33 33 246
GlifName: exclam
Width: 643
VWidth: 0
GlyphClass: 2
Flags: HW
LayerCount: 2
Fore
SplineSet
368 395 m 257
 275 395 l 257
 270 1353 l 257
 373 1353 l 257
 368 395 l 257
EndSplineSet
Refer: 357 46 N 1 0 0 1 31 0 2
Substitution2: "'tnum' Tabular Numbers lookup 22 subtable" exclam.tnum
EndChar

StartChar: f
Encoding: 102 102 249
GlifName: f
Width: 726
VWidth: 0
GlyphClass: 2
Flags: HW
LayerCount: 2
Fore
SplineSet
722 1378 m 257
 689 1310 l 257
 664 1331 616 1346 556 1346 c 256
 439 1346 370 1293 370 1175 c 258
 370 0 l 257
 269 0 l 257
 269 1183 l 258
 269 1357 388 1430 541 1430 c 256
 618 1430 682 1408 722 1378 c 257
EndSplineSet
Refer: 1669 57354 N 1 0 0 1 -28 425 2
Substitution2: "'smcp' Lowercase to Small Capitals in Latin lookup 0 subtable" uniA730
EndChar

StartChar: figuredash
Encoding: 8210 8210 250
GlifName: figuredash
Width: 1396
VWidth: 0
GlyphClass: 2
Flags: HW
LayerCount: 2
Fore
SplineSet
1262 612 m 257
 1262 525 l 257
 135 525 l 257
 135 612 l 257
 1262 612 l 257
EndSplineSet
EndChar

StartChar: filledbox
Encoding: 9632 9632 251
GlifName: filledbox
Width: 1046
VWidth: 0
GlyphClass: 2
Flags: HW
LayerCount: 2
Fore
SplineSet
204 638 m 257
 843 638 l 257
 843 0 l 257
 204 0 l 257
 204 638 l 257
EndSplineSet
EndChar

StartChar: five
Encoding: 53 53 252
GlifName: five
Width: 1050
VWidth: 0
GlyphClass: 2
Flags: HW
LayerCount: 2
Fore
SplineSet
115 365 m 257
 216 365 l 257
 216 183 329 76 524 76 c 256
 714 76 836 191 836 436 c 256
 836 670 739 818 521 818 c 256
 402 818 312 772 208 677 c 257
 133 717 l 257
 186 1353 l 257
 941 1353 l 257
 941 1268 l 257
 275 1268 l 257
 236 790 l 257
 318 855 415 903 534 903 c 256
 801 903 936 719 936 439 c 256
 936 146 769 -11 518 -11 c 256
 277 -11 115 134 115 365 c 257
EndSplineSet
Substitution2: "'sups' Superscript lookup 0 subtable" uni2075
Substitution2: "'subs' Subscript lookup 0 subtable" uni2085
Substitution2: "'sinf' Scientific Inferiors lookup 20 subtable" uni2085
Substitution2: "'tnum' Tabular Numbers lookup 22 subtable" five.tnum
Substitution2: "'onum' Oldstyle Figures lookup 23 subtable" five.onum
Substitution2: "'smcp' Lowercase to Small Capitals in Latin lookup 0 subtable" five.SC
EndChar

StartChar: five.SC
Encoding: 1114157 -1 253
GlifName: five.S_C_
Width: 847
VWidth: 0
GlyphClass: 2
Flags: HW
LayerCount: 2
Fore
SplineSet
115 277 m 257
 206 277 l 257
 206 151 285 75 423 75 c 256
 556 75 643 157 643 330 c 256
 643 495 575 590 422 590 c 256
 336 590 271 558 197 490 c 257
 128 525 l 257
 168 1008 l 257
 740 1008 l 257
 740 924 l 257
 249 924 l 257
 222 594 l 257
 280 638 349 671 433 671 c 256
 635 671 736 538 736 329 c 256
 736 109 611 -10 422 -10 c 256
 239 -10 115 101 115 277 c 257
EndSplineSet
EndChar

StartChar: five.onum
Encoding: 1114158 -1 254
GlifName: five.onum
Width: 1050
VWidth: 0
GlyphClass: 2
Flags: HW
LayerCount: 2
Fore
SplineSet
161 -176 m 257
 243 -216 345 -246 458 -246 c 256
 699 -246 838 -143 838 91 c 256
 838 307 715 417 505 417 c 256
 393 417 282 383 202 342 c 257
 139 380 l 257
 189 1008 l 257
 937 1008 l 257
 937 923 l 257
 276 923 l 257
 238 448 l 257
 307 482 410 508 505 508 c 256
 772 508 933 352 933 84 c 256
 933 -202 753 -342 458 -342 c 256
 329 -342 223 -310 122 -260 c 257
 161 -176 l 257
EndSplineSet
EndChar

StartChar: four
Encoding: 52 52 257
GlifName: four
Width: 1158
VWidth: 0
GlyphClass: 2
Flags: HW
LayerCount: 2
Fore
SplineSet
762 406 m 257
 762 1222 l 257
 195 406 l 257
 762 406 l 257
762 318 m 257
 102 318 l 257
 102 407 l 257
 760 1353 l 257
 862 1353 l 257
 862 406 l 257
 1103 406 l 257
 1103 318 l 257
 862 318 l 257
 862 0 l 257
 762 0 l 257
 762 318 l 257
EndSplineSet
Substitution2: "'sups' Superscript lookup 0 subtable" uni2074
Substitution2: "'subs' Subscript lookup 0 subtable" uni2084
Substitution2: "'sinf' Scientific Inferiors lookup 20 subtable" uni2084
Substitution2: "'tnum' Tabular Numbers lookup 22 subtable" four.tnum
Substitution2: "'onum' Oldstyle Figures lookup 23 subtable" four.onum
Substitution2: "'smcp' Lowercase to Small Capitals in Latin lookup 0 subtable" four.SC
EndChar

StartChar: four.SC
Encoding: 1114160 -1 258
GlifName: four.S_C_
Width: 943
VWidth: 0
GlyphClass: 2
Flags: HW
LayerCount: 2
Fore
SplineSet
610 294 m 257
 610 897 l 257
 189 294 l 257
 610 294 l 257
610 211 m 257
 102 211 l 257
 102 306 l 257
 592 1008 l 257
 711 1008 l 257
 711 294 l 257
 888 294 l 257
 888 211 l 257
 711 211 l 257
 711 0 l 257
 610 0 l 257
 610 211 l 257
EndSplineSet
EndChar

StartChar: four.onum
Encoding: 1114161 -1 259
GlifName: four.onum
Width: 1158
VWidth: 0
GlyphClass: 2
Flags: HW
LayerCount: 2
Fore
SplineSet
762 86 m 257
 762 880 l 257
 193 86 l 257
 762 86 l 257
762 0 m 257
 102 0 l 257
 102 87 l 257
 760 1008 l 257
 863 1008 l 257
 863 86 l 257
 1103 86 l 257
 1103 0 l 257
 863 0 l 257
 863 -315 l 257
 762 -315 l 257
 762 0 l 257
EndSplineSet
EndChar

StartChar: g
Encoding: 103 103 261
GlifName: g
Width: 1087
VWidth: 0
GlyphClass: 2
Flags: HW
LayerCount: 2
Fore
SplineSet
520 -485 m 256
 290 -485 121 -375 123 -165 c 257
 217 -165 l 257
 217 -325 347 -402 518 -402 c 256
 689 -402 820 -325 820 -165 c 258
 820 1008 l 257
 921 1008 l 257
 921 -165 l 258
 921 -374 750 -485 520 -485 c 256
EndSplineSet
Refer: 1674 57359 N -1 0 0 -1 1114 1008 2
Substitution2: "'smcp' Lowercase to Small Capitals in Latin lookup 0 subtable" uni0262
EndChar

StartChar: g.alt
Encoding: 1114163 -1 262
GlifName: g.alt
Width: 1171
VWidth: 0
GlyphClass: 2
Flags: HW
LayerCount: 2
Fore
SplineSet
773 919 m 257
 839 1010 921 1067 1051 1067 c 257
 1051 993 l 257
 943 993 887 952 824 872 c 257
 773 919 l 257
562 1018 m 256
 795 1018 931 877 931 654 c 256
 931 431 795 289 562 289 c 256
 329 289 193 431 193 654 c 256
 193 877 329 1018 562 1018 c 256
1046 -167 m 256
 1046 -373 836 -487 563 -487 c 256
 288 -487 117 -408 117 -228 c 256
 117 -96 237 9 387 40 c 257
 443 -14 l 257
 303 -36 207 -120 207 -221 c 256
 207 -359 343 -404 561 -404 c 256
 775 -404 953 -321 953 -179 c 256
 953 -58 855 -27 588 -27 c 256
 311 -27 183 6 183 187 c 256
 183 275 245 365 319 411 c 257
 366 361 l 257
 306 320 262 252 262 197 c 256
 262 65 386 59 625 59 c 256
 941 59 1046 3 1046 -167 c 256
562 940 m 256
 393 940 294 839 294 654 c 256
 294 469 393 368 562 368 c 256
 731 368 830 469 830 654 c 256
 830 839 731 940 562 940 c 256
EndSplineSet
EndChar

StartChar: germandbls
Encoding: 223 223 267
GlifName: germandbls
Width: 1214
VWidth: 0
GlyphClass: 2
Flags: HW
LayerCount: 2
Fore
SplineSet
483 0 m 257
 494 86 l 257
 547 80 605 76 656 76 c 256
 862 76 995 150 995 261 c 256
 995 369 921 430 839 484 c 256
 751 543 653 623 653 744 c 256
 653 832 697 898 748 958 c 256
 807 1026 842 1097 842 1209 c 256
 842 1350 760 1477 567 1477 c 256
 369 1477 288 1351 288 1169 c 258
 288 0 l 257
 192 0 l 257
 192 1169 l 258
 192 1375 293 1562 567 1562 c 256
 833 1562 944 1377 944 1208 c 256
 944 1082 906 997 838 922 c 256
 779 858 743 815 743 749 c 256
 743 656 821 602 907 545 c 256
 996 488 1094 400 1094 256 c 256
 1094 69 884 -11 641 -11 c 256
 589 -11 536 -8 483 0 c 257
EndSplineSet
EndChar

StartChar: grave
Encoding: 96 96 268
GlifName: grave
Width: 569
VWidth: 0
GlyphClass: 2
Flags: HW
LayerCount: 2
Fore
SplineSet
432 1132 m 257
 339 1132 l 257
 138 1460 l 257
 243 1460 l 257
 432 1132 l 257
EndSplineSet
EndChar

StartChar: greater
Encoding: 62 62 269
GlifName: greater
Width: 725
VWidth: 0
GlyphClass: 2
Flags: HW
LayerCount: 2
Fore
SplineSet
146 185 m 257
 92 239 l 257
 532 638 l 257
 92 1038 l 257
 146 1092 l 257
 633 638 l 257
 146 185 l 257
EndSplineSet
EndChar

StartChar: guillemotleft.alt
Encoding: 1114164 -1 271
GlifName: guillemotleft.alt
Width: 863
VWidth: 0
GlyphClass: 2
Flags: HW
LayerCount: 2
Fore
SplineSet
416 640 m 256
 416 796 550 951 726 1078 c 257
 771 1019 l 257
 635 924 497 787 497 640 c 256
 497 493 635 355 771 260 c 257
 726 202 l 257
 550 329 416 484 416 640 c 256
92 640 m 256
 92 808 176 954 354 1133 c 257
 410 1080 l 257
 267 932 175 801 175 640 c 256
 175 479 267 347 410 199 c 257
 354 148 l 257
 176 327 92 472 92 640 c 256
EndSplineSet
EndChar

StartChar: guillemotright.alt
Encoding: 1114165 -1 273
GlifName: guillemotright.alt
Width: 863
VWidth: 0
GlyphClass: 2
Flags: HW
LayerCount: 2
Fore
SplineSet
448 640 m 256
 448 484 314 329 138 202 c 257
 92 260 l 257
 228 355 367 493 367 640 c 256
 367 787 228 924 92 1019 c 257
 138 1078 l 257
 314 951 448 796 448 640 c 256
771 640 m 256
 771 472 687 327 509 148 c 257
 454 199 l 257
 597 347 688 479 688 640 c 256
 688 801 597 932 454 1080 c 257
 509 1133 l 257
 687 954 771 808 771 640 c 256
EndSplineSet
EndChar

StartChar: h
Encoding: 104 104 274
GlifName: h
Width: 1118
VWidth: 0
GlyphClass: 2
Flags: HW
LayerCount: 2
Fore
SplineSet
266 0 m 257
 166 0 l 257
 166 1415 l 257
 266 1415 l 257
 266 0 l 257
EndSplineSet
Refer: 1672 57357 N 1 0 0 1 -7 0 2
Substitution2: "'smcp' Lowercase to Small Capitals in Latin lookup 0 subtable" uni029C
EndChar

StartChar: hyphen
Encoding: 45 45 279
GlifName: hyphen
Width: 1113
VWidth: 0
GlyphClass: 2
Flags: HW
LayerCount: 2
Fore
SplineSet
975 612 m 257
 975 525 l 257
 139 525 l 257
 139 612 l 257
 975 612 l 257
EndSplineSet
Substitution2: "'tnum' Tabular Numbers lookup 22 subtable" hyphen.tnum
EndChar

StartChar: k
Encoding: 107 107 293
GlifName: k
Width: 994
VWidth: 0
GlyphClass: 2
Flags: HW
LayerCount: 2
Fore
SplineSet
792 1008 m 257
 924 1008 l 257
 508 590 l 257
 966 0 l 257
 836 0 l 257
 440 519 l 257
 269 353 l 257
 269 0 l 257
 168 0 l 257
 168 1415 l 257
 269 1415 l 257
 269 490 l 257
 792 1008 l 257
EndSplineSet
Substitution2: "'smcp' Lowercase to Small Capitals in Latin lookup 0 subtable" uni1D0B
EndChar

StartChar: k.alt
Encoding: 1114167 -1 294
GlifName: k.alt
Width: 994
VWidth: 0
GlyphClass: 2
Flags: HW
LayerCount: 2
Fore
SplineSet
792 1008 m 257
 924 1008 l 257
 512 524 l 257
 966 0 l 257
 836 0 l 257
 426 470 l 257
 269 470 l 257
 269 0 l 257
 168 0 l 257
 168 1415 l 257
 269 1415 l 257
 269 564 l 257
 426 564 l 257
 792 1008 l 257
EndSplineSet
Substitution2: "'smcp' Lowercase to Small Capitals in Latin lookup 0 subtable" uni1D0B
EndChar

StartChar: kgreenlandic
Encoding: 312 312 295
GlifName: kgreenlandic
Width: 935
VWidth: 0
GlyphClass: 2
Flags: HW
LayerCount: 2
Fore
SplineSet
166 1008 m 257
 266 1008 l 257
 266 428 l 257
 770 1008 l 257
 878 1008 l 257
 458 507 l 257
 897 0 l 257
 770 0 l 257
 393 431 l 257
 266 283 l 257
 266 0 l 257
 166 0 l 257
 166 1008 l 257
EndSplineSet
EndChar

StartChar: l
Encoding: 108 108 296
GlifName: l
Width: 440
VWidth: 0
GlyphClass: 2
Flags: HW
LayerCount: 2
Fore
SplineSet
271 0 m 257
 170 0 l 257
 170 1415 l 257
 271 1415 l 257
 271 0 l 257
EndSplineSet
Substitution2: "'smcp' Lowercase to Small Capitals in Latin lookup 0 subtable" uni029F
EndChar

StartChar: less
Encoding: 60 60 300
GlifName: less
Width: 725
VWidth: 0
GlyphClass: 2
Flags: HW
LayerCount: 2
Fore
SplineSet
579 1092 m 257
 633 1038 l 257
 193 638 l 257
 633 239 l 257
 579 185 l 257
 92 638 l 257
 579 1092 l 257
EndSplineSet
EndChar

StartChar: logicalnot
Encoding: 172 172 301
GlifName: logicalnot
Width: 1189
VWidth: 0
GlyphClass: 2
Flags: HW
LayerCount: 2
Fore
SplineSet
115 525 m 257
 115 611 l 257
 1003 611 l 257
 1003 272 l 257
 917 272 l 257
 917 525 l 257
 115 525 l 257
EndSplineSet
EndChar

StartChar: longs
Encoding: 383 383 302
GlifName: longs
Width: 726
VWidth: 0
GlyphClass: 2
Flags: HW
LayerCount: 2
Fore
SplineSet
722 1378 m 257
 689 1310 l 257
 664 1331 616 1346 556 1346 c 256
 439 1346 370 1293 370 1175 c 258
 370 0 l 257
 269 0 l 257
 269 1183 l 258
 269 1357 388 1430 541 1430 c 256
 618 1430 682 1408 722 1378 c 257
EndSplineSet
Refer: 1681 57366 N 1 0 0 1 -7 0 2
EndChar

StartChar: m
Encoding: 109 109 304
GlifName: m
Width: 1656
VWidth: 0
GlyphClass: 2
Flags: HW
LayerCount: 2
Fore
SplineSet
146 1008 m 257
 244 1008 l 257
 246 706 l 257
 246 0 l 257
 146 0 l 257
 146 1008 l 257
EndSplineSet
Refer: 1671 57356 N 1 0 0 1 -663 2 2
Refer: 1671 57356 N 1 0 0 1 -20 2 2
Substitution2: "'smcp' Lowercase to Small Capitals in Latin lookup 0 subtable" uni1D0D
EndChar

StartChar: macron
Encoding: 175 175 305
GlifName: macron
Width: 991
VWidth: 0
GlyphClass: 2
Flags: HW
LayerCount: 2
Fore
SplineSet
852 1212 m 257
 852 1132 l 257
 139 1132 l 257
 139 1212 l 257
 852 1212 l 257
EndSplineSet
EndChar

StartChar: macron.alt
Encoding: 1114168 -1 306
GlifName: macron.alt
Width: 799
VWidth: 0
GlyphClass: 2
Flags: HW
LayerCount: 2
Fore
SplineSet
661 1212 m 257
 661 1132 l 257
 139 1132 l 257
 139 1212 l 257
 661 1212 l 257
EndSplineSet
EndChar

StartChar: minute
Encoding: 8242 8242 308
GlifName: minute
Width: 448
VWidth: 0
GlyphClass: 2
Flags: HW
LayerCount: 2
Fore
SplineSet
226 1353 m 257
 324 1353 l 257
 200 928 l 257
 124 928 l 257
 226 1353 l 257
EndSplineSet
EndChar

StartChar: mu
Encoding: 181 181 309
GlifName: mu
Width: 1118
VWidth: 0
GlyphClass: 2
Flags: HW
LayerCount: 2
Fore
SplineSet
153 1008 m 257
 254 1008 l 257
 254 -434 l 257
 153 -434 l 257
 153 1008 l 257
EndSplineSet
Refer: 422 117 N 1 0 0 1 0 0 2
EndChar

StartChar: multiply
Encoding: 215 215 310
GlifName: multiply
Width: 958
VWidth: 0
GlyphClass: 2
Flags: HW
LayerCount: 2
Fore
SplineSet
767 930 m 257
 829 868 l 257
 542 582 l 257
 829 296 l 257
 767 235 l 257
 481 520 l 257
 194 233 l 257
 132 295 l 257
 419 582 l 257
 132 871 l 257
 193 932 l 257
 481 643 l 257
 767 930 l 257
EndSplineSet
Substitution2: "'tnum' Tabular Numbers lookup 22 subtable" multiply.tnum
EndChar

StartChar: n
Encoding: 110 110 312
GlifName: n
Width: 1118
VWidth: 0
GlyphClass: 2
Flags: HW
LayerCount: 2
Fore
SplineSet
266 0 m 257
 166 0 l 257
 166 1008 l 257
 264 1008 l 257
 266 706 l 257
 266 0 l 257
EndSplineSet
Refer: 1672 57357 N 1 0 0 1 -7 0 2
Substitution2: "'smcp' Lowercase to Small Capitals in Latin lookup 0 subtable" uni0274
EndChar

StartChar: nine
Encoding: 57 57 316
GlifName: nine
Width: 1082
VWidth: 0
GlyphClass: 2
Flags: HW
LayerCount: 2
Fore
SplineSet
518 575 m 256
 677 575 806 676 862 834 c 257
 854 1105 760 1276 524 1276 c 256
 325 1276 222 1152 222 926 c 256
 222 718 324 575 518 575 c 256
507 -11 m 256
 282 -11 147 144 147 314 c 257
 235 314 l 257
 235 204 314 76 510 76 c 256
 796 76 876 394 867 722 c 257
 806 576 673 486 506 486 c 256
 260 486 121 668 121 915 c 256
 121 1197 265 1364 521 1364 c 256
 805 1364 960 1179 960 738 c 256
 960 276 831 -11 507 -11 c 256
EndSplineSet
Substitution2: "'sups' Superscript lookup 0 subtable" uni2079
Substitution2: "'subs' Subscript lookup 0 subtable" uni2089
Substitution2: "'sinf' Scientific Inferiors lookup 20 subtable" uni2089
Substitution2: "'tnum' Tabular Numbers lookup 22 subtable" nine.tnum
Substitution2: "'onum' Oldstyle Figures lookup 23 subtable" nine.onum
Substitution2: "'smcp' Lowercase to Small Capitals in Latin lookup 0 subtable" nine.SC
EndChar

StartChar: nine.SC
Encoding: 1114170 -1 317
GlifName: nine.S_C_
Width: 884
VWidth: 0
GlyphClass: 2
Flags: HW
LayerCount: 2
Fore
SplineSet
427 437 m 256
 541 437 632 510 671 623 c 257
 667 836 564 934 431 934 c 257
 283 934 215 839 215 686 c 256
 215 538 289 437 427 437 c 256
421 -14 m 256
 247 -14 146 107 146 237 c 257
 228 238 l 257
 228 163 283 70 421 70 c 256
 614 70 676 283 675 511 c 257
 625 418 528 361 414 361 c 256
 227 361 124 496 124 685 c 256
 124 897 236 1018 427 1018 c 256
 674 1018 762 819 762 548 c 256
 762 208 667 -14 421 -14 c 256
EndSplineSet
EndChar

StartChar: nine.onum
Encoding: 1114171 -1 318
GlifName: nine.onum
Width: 1082
VWidth: 0
GlyphClass: 2
Flags: HW
LayerCount: 2
Fore
SplineSet
531 930 m 256
 343 930 222 804 222 603 c 256
 222 416 354 303 517 303 c 256
 691 303 838 429 901 598 c 257
 919 497 l 257
 856 338 691 215 502 215 c 256
 291 215 122 363 122 598 c 256
 122 852 285 1018 534 1018 c 256
 807 1018 962 818 962 465 c 256
 962 58 757 -177 329 -325 c 257
 294 -239 l 257
 683 -112 870 96 870 475 c 256
 870 763 751 930 531 930 c 256
EndSplineSet
EndChar

StartChar: numbersign
Encoding: 35 35 322
GlifName: numbersign
Width: 1668
VWidth: 0
GlyphClass: 2
Flags: HW
LayerCount: 2
Fore
SplineSet
1104 900 m 257
 696 900 l 257
 578 471 l 257
 986 471 l 257
 1104 900 l 257
444 -14 m 257
 350 -14 l 257
 462 391 l 257
 166 391 l 257
 166 471 l 257
 485 471 l 257
 602 900 l 257
 282 900 l 257
 282 979 l 257
 624 979 l 257
 731 1364 l 257
 825 1364 l 257
 719 979 l 257
 1126 979 l 257
 1233 1364 l 257
 1325 1364 l 257
 1220 979 l 257
 1504 979 l 257
 1504 900 l 257
 1197 900 l 257
 1080 471 l 257
 1388 471 l 257
 1388 391 l 257
 1058 391 l 257
 947 -14 l 257
 851 -14 l 257
 962 391 l 257
 556 391 l 257
 444 -14 l 257
EndSplineSet
Substitution2: "'tnum' Tabular Numbers lookup 22 subtable" numbersign.tnum
EndChar

StartChar: o
Encoding: 111 111 324
GlifName: o
Width: 1091
VWidth: 0
GlyphClass: 2
Flags: HW
LayerCount: 2
Fore
SplineSet
546 933 m 256
 337 933 192 799 192 504 c 256
 192 209 337 74 546 74 c 256
 755 74 899 209 899 504 c 256
 899 799 755 933 546 933 c 256
546 1017 m 256
 820 1017 1000 842 1000 504 c 256
 1000 165 820 -11 546 -11 c 256
 272 -11 91 165 91 504 c 256
 91 842 272 1017 546 1017 c 256
EndSplineSet
Substitution2: "'smcp' Lowercase to Small Capitals in Latin lookup 0 subtable" uni1D0F
EndChar

StartChar: ogonek
Encoding: 731 731 330
GlifName: ogonek
Width: 716
VWidth: 0
GlyphClass: 2
Flags: HW
LayerCount: 2
Fore
SplineSet
356 -484 m 256
 225 -484 139 -405 139 -285 c 256
 139 -238 152 -190 177 -148 c 258
 262 0 l 257
 262 2 l 257
 349 2 l 257
 349 0 l 257
 246 -188 l 257
 228 -219 218 -255 218 -289 c 256
 218 -365 269 -411 356 -411 c 256
 445 -411 498 -363 498 -282 c 257
 578 -280 l 257
 578 -403 489 -484 356 -484 c 256
EndSplineSet
EndChar

StartChar: one
Encoding: 49 49 335
GlifName: one
Width: 688
VWidth: 0
GlyphClass: 2
Flags: HW
LayerCount: 2
Fore
SplineSet
412 1107 m 257
 355 1018 250 992 50 992 c 257
 50 1077 l 257
 314 1077 412 1121 412 1353 c 257
 512 1353 l 257
 512 0 l 257
 412 0 l 257
 412 1107 l 257
EndSplineSet
Substitution2: "'sups' Superscript lookup 0 subtable" uni00B9
Substitution2: "'subs' Subscript lookup 0 subtable" uni2081
Substitution2: "'sinf' Scientific Inferiors lookup 20 subtable" uni2081
Substitution2: "'tnum' Tabular Numbers lookup 22 subtable" one.tnum
Substitution2: "'onum' Oldstyle Figures lookup 23 subtable" one.onum
Substitution2: "'smcp' Lowercase to Small Capitals in Latin lookup 0 subtable" one.SC
EndChar

StartChar: one.SC
Encoding: 1114174 -1 336
GlifName: one.S_C_
Width: 605
VWidth: 0
GlyphClass: 2
Flags: HW
LayerCount: 2
Fore
SplineSet
366 738 m 257
 318 678 246 646 46 646 c 257
 46 730 l 257
 310 730 366 776 366 1008 c 257
 462 1008 l 257
 462 0 l 257
 366 0 l 257
 366 738 l 257
EndSplineSet
EndChar

StartChar: one.onum
Encoding: 1114175 -1 337
GlifName: one.onum
Width: 688
VWidth: 0
GlyphClass: 2
Flags: HW
LayerCount: 2
Fore
SplineSet
412 762 m 257
 355 673 250 647 50 647 c 257
 50 732 l 257
 314 732 412 776 412 1008 c 257
 512 1008 l 257
 512 0 l 257
 412 0 l 257
 412 762 l 257
EndSplineSet
EndChar

StartChar: ordfeminine
Encoding: 170 170 343
GlifName: ordfeminine
Width: 880
VWidth: 0
GlyphClass: 2
Flags: HW
LayerCount: 2
Fore
SplineSet
576 1495 m 257
 576 1590 l 258
 576 1680 501 1722 403 1722 c 256
 301 1722 233 1685 233 1589 c 257
 159 1589 l 257
 157 1728 261 1789 404 1789 c 256
 543 1789 655 1723 655 1590 c 258
 655 1283 l 258
 655 1217 675 1194 745 1194 c 257
 745 1131 l 257
 657 1128 602 1156 584 1227 c 257
 538 1174 458 1122 340 1122 c 256
 219 1122 141 1186 141 1303 c 256
 141 1442 253 1510 404 1510 c 256
 465 1510 523 1506 576 1495 c 257
576 1432 m 257
 528 1443 476 1447 408 1447 c 256
 284 1447 216 1393 216 1308 c 256
 216 1222 266 1188 359 1188 c 256
 476 1188 546 1261 576 1303 c 257
 576 1432 l 257
EndSplineSet
EndChar

StartChar: p
Encoding: 112 112 349
GlifName: p
Width: 1085
VWidth: 0
GlyphClass: 2
Flags: HW
LayerCount: 2
Fore
SplineSet
168 1008 m 257
 269 1008 l 257
 269 -471 l 257
 168 -471 l 257
 168 1008 l 257
EndSplineSet
Refer: 1674 57359 N 1 0 0 1 -25 0 2
Substitution2: "'smcp' Lowercase to Small Capitals in Latin lookup 0 subtable" uni1D18
EndChar

StartChar: paragraph
Encoding: 182 182 350
GlifName: paragraph
Width: 1342
VWidth: 0
GlyphClass: 2
Flags: HW
LayerCount: 2
Fore
SplineSet
1143 -475 m 257
 1055 -475 l 257
 1055 1265 l 257
 860 1265 l 257
 860 -475 l 257
 773 -475 l 257
 773 393 l 257
 555 393 l 258
 296 393 105 586 105 873 c 256
 105 1160 296 1353 555 1353 c 258
 1143 1353 l 257
 1143 -475 l 257
EndSplineSet
EndChar

StartChar: parenleft
Encoding: 40 40 351
GlifName: parenleft
Width: 661
VWidth: 0
GlyphClass: 2
Flags: HW
LayerCount: 2
Fore
SplineSet
468 1466 m 257
 542 1422 l 257
 356 1162 264 842 264 454 c 256
 264 67 355 -250 542 -511 c 257
 468 -556 l 257
 265 -272 168 51 168 454 c 256
 168 857 266 1183 468 1466 c 257
EndSplineSet
Substitution2: "'tnum' Tabular Numbers lookup 22 subtable" parenleft.tnum
EndChar

StartChar: parenright
Encoding: 41 41 353
GlifName: parenright
Width: 661
VWidth: 0
GlyphClass: 2
Flags: HW
LayerCount: 2
Fore
SplineSet
193 -556 m 257
 119 -512 l 257
 305 -252 397 68 397 456 c 256
 397 843 306 1159 119 1420 c 257
 193 1466 l 257
 396 1182 494 859 494 456 c 256
 494 53 395 -273 193 -556 c 257
EndSplineSet
Substitution2: "'tnum' Tabular Numbers lookup 22 subtable" parenright.tnum
EndChar

StartChar: period
Encoding: 46 46 357
GlifName: period
Width: 581
VWidth: 0
GlyphClass: 2
Flags: HW
LayerCount: 2
Fore
SplineSet
190 90 m 256
 190 146 232 189 291 189 c 256
 350 189 392 146 392 90 c 256
 392 34 350 -11 291 -11 c 256
 232 -11 190 34 190 90 c 256
EndSplineSet
Substitution2: "'tnum' Tabular Numbers lookup 22 subtable" period.tnum
EndChar

StartChar: periodcentered
Encoding: 183 183 359
GlifName: periodcentered
Width: 510
VWidth: 0
GlyphClass: 2
Flags: HW
LayerCount: 2
Fore
SplineSet
155 677 m 256
 155 733 197 776 256 776 c 256
 315 776 357 733 357 677 c 256
 357 621 315 576 256 576 c 256
 197 576 155 621 155 677 c 256
EndSplineSet
EndChar

StartChar: plus
Encoding: 43 43 361
GlifName: plus
Width: 1107
VWidth: 0
GlyphClass: 2
Flags: HW
LayerCount: 2
Fore
SplineSet
969 610 m 257
 969 522 l 257
 599 522 l 257
 599 150 l 257
 508 150 l 257
 508 522 l 257
 139 522 l 257
 139 610 l 257
 508 610 l 257
 508 981 l 257
 599 981 l 257
 599 610 l 257
 969 610 l 257
EndSplineSet
Substitution2: "'tnum' Tabular Numbers lookup 22 subtable" plus.tnum
EndChar

StartChar: q
Encoding: 113 113 365
GlifName: q
Width: 1086
VWidth: 0
GlyphClass: 2
Flags: HW
LayerCount: 2
Fore
SplineSet
818 1008 m 257
 921 1008 l 257
 921 -472 l 257
 818 -472 l 257
 818 1008 l 257
EndSplineSet
Refer: 1674 57359 N -1 0 0 -1 1113 1008 2
Substitution2: "'smcp' Lowercase to Small Capitals in Latin lookup 0 subtable" uniA7EE
EndChar

StartChar: question
Encoding: 63 63 366
GlifName: question
Width: 1068
VWidth: 0
GlyphClass: 2
Flags: HW
LayerCount: 2
Fore
SplineSet
483 -11 m 256
 424 -11 382 34 382 90 c 256
 382 146 424 189 483 189 c 256
 542 189 584 146 584 90 c 256
 584 34 542 -11 483 -11 c 256
276 884 m 257
 191 874 l 257
 179 915 172 959 172 999 c 256
 172 1185 302 1327 520 1327 c 256
 765 1327 898 1159 898 984 c 256
 898 824 809 737 710 659 c 256
 615 584 538 517 538 394 c 257
 437 394 l 257
 437 555 541 636 648 720 c 256
 742 792 795 859 795 970 c 256
 795 1128 692 1241 522 1241 c 256
 369 1241 266 1143 266 1000 c 256
 266 963 267 918 276 884 c 257
EndSplineSet
Substitution2: "'tnum' Tabular Numbers lookup 22 subtable" question.tnum
EndChar

StartChar: quoteleft
Encoding: 8216 8216 373
GlifName: quoteleft
Width: 550
VWidth: 0
GlyphClass: 2
Flags: HW
LayerCount: 2
Fore
SplineSet
287 1521 m 257
 379 1114 l 257
 308 1084 l 257
 171 1521 l 257
 287 1521 l 257
EndSplineSet
EndChar

StartChar: quoteright
Encoding: 8217 8217 375
GlifName: quoteright
Width: 550
VWidth: 0
GlyphClass: 2
Flags: HW
LayerCount: 2
Fore
SplineSet
263 1521 m 257
 379 1521 l 257
 242 1084 l 257
 171 1114 l 257
 263 1521 l 257
EndSplineSet
EndChar

StartChar: quotesingle
Encoding: 39 39 377
GlifName: quotesingle
Width: 436
VWidth: 0
GlyphClass: 2
Flags: HW
LayerCount: 2
Fore
SplineSet
167 1360 m 257
 270 1360 l 257
 258 931 l 257
 178 931 l 257
 167 1360 l 257
EndSplineSet
EndChar

StartChar: r
Encoding: 114 114 378
GlifName: r
Width: 778
VWidth: 0
GlyphClass: 2
Flags: HW
LayerCount: 2
Fore
SplineSet
168 1008 m 257
 266 1008 l 257
 269 583 l 257
 269 0 l 257
 168 0 l 257
 168 1008 l 257
EndSplineSet
Refer: 1673 57358 N 1 0 0 1 0 0 2
Substitution2: "'smcp' Lowercase to Small Capitals in Latin lookup 0 subtable" uni0280
EndChar

StartChar: registered
Encoding: 174 174 381
GlifName: registered
Width: 1937
VWidth: 0
GlyphClass: 2
Flags: HW
LayerCount: 2
Fore
SplineSet
239 769 m 256
 239 362 536 40 970 40 c 256
 1404 40 1700 362 1700 769 c 256
 1700 1176 1404 1498 970 1498 c 256
 536 1498 239 1176 239 769 c 256
153 769 m 256
 153 1210 469 1576 970 1576 c 256
 1471 1576 1786 1210 1786 769 c 256
 1786 328 1471 -38 970 -38 c 256
 469 -38 153 328 153 769 c 256
1276 418 m 257
 1198 418 l 257
 1033 621 l 257
 1017 619 1001 618 983 618 c 258
 807 618 l 257
 807 416 l 257
 740 416 l 257
 740 1120 l 257
 990 1120 l 258
 1153 1120 1265 1013 1265 868 c 256
 1265 759 1201 672 1099 636 c 257
 1276 418 l 257
807 680 m 257
 990 680 l 258
 1106 680 1199 755 1199 868 c 256
 1199 982 1107 1060 990 1060 c 258
 807 1060 l 257
 807 680 l 257
EndSplineSet
EndChar

StartChar: ring
Encoding: 730 730 382
GlifName: ring
Width: 777
VWidth: 0
GlyphClass: 2
Flags: HW
LayerCount: 2
Fore
SplineSet
389 1570 m 256
 273 1570 201 1486 201 1382 c 256
 201 1278 273 1193 388 1193 c 256
 504 1193 576 1278 576 1382 c 256
 576 1486 504 1570 389 1570 c 256
389 1632 m 256
 536 1632 638 1520 638 1382 c 256
 638 1244 537 1132 388 1132 c 256
 241 1132 139 1244 139 1382 c 256
 139 1520 240 1632 389 1632 c 256
EndSplineSet
EndChar

StartChar: s
Encoding: 115 115 383
GlifName: s
Width: 951
VWidth: 0
GlyphClass: 2
Flags: HW
LayerCount: 2
Fore
SplineSet
488 1017 m 256
 714 1017 851 904 848 717 c 257
 757 718 l 257
 757 853 657 934 490 934 c 256
 330 934 230 860 230 738 c 256
 230 640 295 593 495 545 c 256
 752 483 851 406 851 267 c 256
 851 98 707 -10 483 -10 c 256
 251 -10 107 107 110 291 c 257
 201 290 l 257
 201 156 309 73 486 73 c 256
 654 73 758 148 758 269 c 256
 758 364 690 410 491 457 c 256
 232 517 136 595 136 740 c 256
 136 911 271 1017 488 1017 c 256
EndSplineSet
Substitution2: "'smcp' Lowercase to Small Capitals in Latin lookup 0 subtable" uniA731
EndChar

StartChar: section
Encoding: 167 167 389
GlifName: section
Width: 937
VWidth: 0
GlyphClass: 2
Flags: HW
LayerCount: 2
Fore
SplineSet
807 212 m 256
 807 16 640 -68 452 -68 c 256
 316 -68 189 -26 113 22 c 257
 154 102 l 257
 220 61 336 16 452 16 c 256
 591 16 714 74 714 210 c 256
 714 333 601 367 464 402 c 256
 287 447 148 496 148 667 c 256
 148 797 230 881 330 920 c 257
 230 961 161 1019 161 1137 c 256
 161 1329 333 1426 495 1426 c 256
 618 1426 725 1382 800 1321 c 257
 755 1252 l 257
 690 1304 611 1342 496 1342 c 256
 377 1342 255 1277 255 1142 c 256
 255 1028 349 993 500 956 c 256
 665 916 821 873 821 682 c 256
 821 552 745 474 640 438 c 257
 734 400 807 340 807 212 c 256
494 483 m 257
 621 490 730 553 730 680 c 256
 730 803 614 840 469 874 c 257
 354 870 242 802 242 672 c 256
 242 554 343 518 494 483 c 257
EndSplineSet
EndChar

StartChar: seven
Encoding: 55 55 391
GlifName: seven
Width: 1126
VWidth: 0
GlyphClass: 2
Flags: HW
LayerCount: 2
Fore
SplineSet
1027 1267 m 257
 778 955 547 486 547 0 c 257
 447 0 l 257
 447 478 684 982 916 1264 c 257
 113 1264 l 257
 113 1353 l 257
 1005 1353 l 257
 1027 1267 l 257
EndSplineSet
Substitution2: "'sups' Superscript lookup 0 subtable" uni2077
Substitution2: "'subs' Subscript lookup 0 subtable" uni2087
Substitution2: "'sinf' Scientific Inferiors lookup 20 subtable" uni2087
Substitution2: "'tnum' Tabular Numbers lookup 22 subtable" seven.tnum
Substitution2: "'onum' Oldstyle Figures lookup 23 subtable" seven.onum
Substitution2: "'smcp' Lowercase to Small Capitals in Latin lookup 0 subtable" seven.SC
EndChar

StartChar: seven.SC
Encoding: 1114185 -1 392
GlifName: seven.S_C_
Width: 926
VWidth: 0
GlyphClass: 2
Flags: HW
LayerCount: 2
Fore
SplineSet
119 921 m 257
 119 1008 l 257
 803 1008 l 257
 822 937 l 257
 638 705 465 360 465 0 c 257
 369 0 l 257
 369 351 537 715 702 921 c 257
 119 921 l 257
EndSplineSet
EndChar

StartChar: seven.onum
Encoding: 1114186 -1 393
GlifName: seven.onum
Width: 1126
VWidth: 0
GlyphClass: 2
Flags: HW
LayerCount: 2
Fore
SplineSet
1027 923 m 257
 778 611 547 171 547 -315 c 257
 447 -315 l 257
 447 163 684 637 916 919 c 257
 113 919 l 257
 113 1008 l 257
 1005 1008 l 257
 1027 923 l 257
EndSplineSet
EndChar

StartChar: six
Encoding: 54 54 396
GlifName: six
Width: 1082
VWidth: 0
GlyphClass: 2
Flags: HW
LayerCount: 2
Fore
SplineSet
565 778 m 256
 406 778 278 676 222 518 c 257
 230 247 323 77 559 77 c 256
 758 77 861 201 861 427 c 256
 861 635 759 778 565 778 c 256
576 1364 m 256
 801 1364 936 1208 936 1038 c 257
 848 1038 l 257
 848 1148 769 1277 573 1277 c 256
 287 1277 207 958 216 630 c 257
 277 776 410 866 577 866 c 256
 823 866 962 684 962 437 c 256
 962 155 818 -11 562 -11 c 256
 278 -11 124 174 124 615 c 256
 124 1077 252 1364 576 1364 c 256
EndSplineSet
Substitution2: "'sups' Superscript lookup 0 subtable" uni2076
Substitution2: "'subs' Subscript lookup 0 subtable" uni2086
Substitution2: "'sinf' Scientific Inferiors lookup 20 subtable" uni2086
Substitution2: "'tnum' Tabular Numbers lookup 22 subtable" six.tnum
Substitution2: "'onum' Oldstyle Figures lookup 23 subtable" six.onum
Substitution2: "'smcp' Lowercase to Small Capitals in Latin lookup 0 subtable" six.SC
EndChar

StartChar: six.SC
Encoding: 1114188 -1 397
GlifName: six.S_C_
Width: 884
VWidth: 0
GlyphClass: 2
Flags: HW
LayerCount: 2
Fore
SplineSet
459 566 m 256
 345 566 253 494 214 381 c 257
 218 168 323 70 455 70 c 257
 603 70 671 164 671 317 c 256
 671 465 598 566 459 566 c 256
465 1018 m 256
 639 1018 740 896 740 766 c 257
 657 766 l 257
 657 841 603 934 465 934 c 256
 271 934 209 721 210 493 c 257
 260 586 358 643 472 643 c 256
 659 643 762 507 762 318 c 256
 762 106 649 -14 458 -14 c 256
 211 -14 124 185 124 456 c 256
 124 796 219 1018 465 1018 c 256
EndSplineSet
EndChar

StartChar: six.onum
Encoding: 1114189 -1 398
GlifName: six.onum
Width: 1082
VWidth: 0
GlyphClass: 2
Flags: HW
LayerCount: 2
Fore
SplineSet
553 77 m 256
 741 77 862 203 862 404 c 256
 862 591 730 703 567 703 c 256
 393 703 245 577 182 408 c 257
 165 509 l 257
 228 668 393 792 582 792 c 256
 793 792 962 643 962 408 c 256
 962 154 799 -12 550 -12 c 256
 277 -12 122 189 122 542 c 256
 122 949 327 1215 755 1363 c 257
 790 1278 l 257
 401 1151 214 910 214 531 c 256
 214 243 333 77 553 77 c 256
EndSplineSet
EndChar

StartChar: slash
Encoding: 47 47 400
GlifName: slash
Width: 1177
VWidth: 0
GlyphClass: 2
Flags: HW
LayerCount: 2
Fore
SplineSet
882 1353 m 257
 990 1353 l 257
 298 0 l 257
 189 0 l 257
 882 1353 l 257
EndSplineSet
Substitution2: "'tnum' Tabular Numbers lookup 22 subtable" slash.tnum
Substitution2: "'smcp' Lowercase to Small Capitals in Latin lookup 0 subtable" slash.sc
EndChar

StartChar: slash.fraction
Encoding: 1114191 -1 401
GlifName: slash.fraction
Width: 1487
VWidth: 0
GlyphClass: 2
Flags: HW
LayerCount: 2
Fore
SplineSet
341 0 m 257
 225 0 l 257
 1146 1353 l 257
 1262 1353 l 257
 341 0 l 257
EndSplineSet
EndChar

StartChar: slash.sc
Encoding: 1114192 -1 402
GlifName: slash.sc
Width: 1007
VWidth: 0
GlyphClass: 2
Flags: HW
LayerCount: 2
Fore
SplineSet
710 1008 m 257
 818 1008 l 257
 299 0 l 257
 189 0 l 257
 710 1008 l 257
EndSplineSet
EndChar

StartChar: sterling
Encoding: 163 163 405
GlifName: sterling
Width: 1238
VWidth: 0
GlyphClass: 2
Flags: HW
LayerCount: 2
Fore
SplineSet
654 1275 m 256
 538 1275 444 1221 444 1051 c 258
 444 285 l 258
 444 210 424 140 373 88 c 257
 1106 88 l 257
 1106 0 l 257
 134 0 l 257
 134 87 l 257
 271 87 342 149 342 285 c 258
 342 1055 l 258
 342 1254 463 1364 654 1364 c 256
 874 1364 964 1220 962 1082 c 257
 863 1082 l 257
 863 1182 798 1275 654 1275 c 256
EndSplineSet
Refer: 1669 57354 N 1 0 0 1 22 10 2
EndChar

StartChar: t
Encoding: 116 116 406
GlifName: t
Width: 748
VWidth: 0
GlyphClass: 2
Flags: HW
LayerCount: 2
Fore
SplineSet
654 85 m 257
 670 11 l 257
 626 -2 577 -10 528 -10 c 256
 376 -10 256 61 256 235 c 258
 256 1296 l 257
 357 1296 l 257
 357 244 l 258
 357 126 425 73 542 73 c 256
 584 73 628 79 654 85 c 257
EndSplineSet
Refer: 1669 57354 N 1 0 0 1 -27 425 2
Substitution2: "'smcp' Lowercase to Small Capitals in Latin lookup 0 subtable" uni1D1B
EndChar

StartChar: three
Encoding: 51 51 410
GlifName: three
Width: 1132
VWidth: 0
GlyphClass: 2
Flags: HW
LayerCount: 2
Fore
SplineSet
113 378 m 257
 214 378 l 257
 212 191 350 76 570 76 c 256
 788 76 912 186 912 381 c 256
 912 575 790 678 552 678 c 258
 477 678 l 257
 477 760 l 257
 552 760 l 258
 762 760 869 847 869 1009 c 256
 869 1174 757 1275 570 1275 c 256
 385 1275 272 1176 274 1018 c 257
 177 1018 l 257
 174 1231 328 1364 568 1364 c 256
 802 1364 971 1226 971 1011 c 256
 971 881 902 780 766 720 c 257
 932 652 1012 536 1012 375 c 256
 1012 132 842 -11 572 -11 c 256
 292 -11 109 139 113 378 c 257
EndSplineSet
Substitution2: "'sups' Superscript lookup 0 subtable" uni00B3
Substitution2: "'subs' Subscript lookup 0 subtable" uni2083
Substitution2: "'sinf' Scientific Inferiors lookup 20 subtable" uni2083
Substitution2: "'tnum' Tabular Numbers lookup 22 subtable" three.tnum
Substitution2: "'onum' Oldstyle Figures lookup 23 subtable" three.onum
Substitution2: "'smcp' Lowercase to Small Capitals in Latin lookup 0 subtable" three.SC
EndChar

StartChar: three.SC
Encoding: 1114194 -1 411
GlifName: three.S_C_
Width: 912
VWidth: 0
GlyphClass: 2
Flags: HW
LayerCount: 2
Fore
SplineSet
113 293 m 257
 202 293 l 257
 202 160 295 80 456 80 c 256
 610 80 704 156 704 292 c 256
 704 430 609 502 438 502 c 258
 372 502 l 257
 373 571 l 257
 440 571 l 258
 591 571 676 644 676 758 c 256
 676 876 588 946 455 946 c 256
 321 946 244 878 244 765 c 257
 160 765 l 257
 157 926 271 1026 454 1026 c 256
 629 1026 760 925 760 765 c 256
 760 673 714 584 619 538 c 257
 735 487 792 402 792 284 c 256
 792 105 654 -1 454 -1 c 256
 245 -1 110 111 113 293 c 257
EndSplineSet
EndChar

StartChar: three.onum
Encoding: 1114195 -1 412
GlifName: three.onum
Width: 1055
VWidth: 0
GlyphClass: 2
Flags: HW
LayerCount: 2
Fore
SplineSet
544 334 m 258
 452 334 l 257
 452 417 l 257
 543 418 l 258
 687 420 798 550 798 674 c 256
 798 834 680 931 531 931 c 256
 383 931 266 836 263 709 c 257
 169 709 l 257
 172 887 326 1018 533 1018 c 256
 738 1018 893 888 893 683 c 256
 893 556 804 443 694 384 c 257
 872 342 950 204 950 44 c 256
 950 -176 787 -323 519 -323 c 256
 253 -323 87 -194 90 50 c 257
 187 50 l 257
 185 -145 312 -239 538 -239 c 256
 735 -239 858 -127 858 49 c 256
 858 191 782 334 544 334 c 258
EndSplineSet
EndChar

StartChar: two
Encoding: 50 50 417
GlifName: two
Width: 1066
VWidth: 0
GlyphClass: 2
Flags: HW
LayerCount: 2
Fore
SplineSet
140 976 m 257
 136 1227 317 1364 549 1364 c 256
 789 1364 967 1216 967 964 c 256
 967 749 826 642 610 508 c 256
 419 389 217 234 214 88 c 257
 984 88 l 257
 984 0 l 257
 112 0 l 257
 110 16 110 30 110 44 c 256
 110 291 394 469 562 574 c 256
 766 700 880 791 880 964 c 256
 880 1160 740 1277 548 1277 c 256
 370 1277 225 1179 226 976 c 257
 140 976 l 257
EndSplineSet
Substitution2: "'sups' Superscript lookup 0 subtable" uni00B2
Substitution2: "'subs' Subscript lookup 0 subtable" uni2082
Substitution2: "'sinf' Scientific Inferiors lookup 20 subtable" uni2082
Substitution2: "'tnum' Tabular Numbers lookup 22 subtable" two.tnum
Substitution2: "'onum' Oldstyle Figures lookup 23 subtable" two.onum
Substitution2: "'smcp' Lowercase to Small Capitals in Latin lookup 0 subtable" two.SC
EndChar

StartChar: two.SC
Encoding: 1114197 -1 418
GlifName: two.S_C_
Width: 885
VWidth: 0
GlyphClass: 2
Flags: HW
LayerCount: 2
Fore
SplineSet
128 718 m 257
 124 898 250 1018 442 1018 c 256
 637 1018 765 895 765 705 c 256
 765 569 698 495 500 377 c 256
 402 318 227 213 215 86 c 257
 778 86 l 257
 778 0 l 257
 109 0 l 257
 86 217 303 355 444 434 c 256
 629 540 680 600 680 703 c 256
 680 843 586 932 440 932 c 256
 299 932 209 849 211 719 c 257
 128 718 l 257
EndSplineSet
EndChar

StartChar: two.onum
Encoding: 1114198 -1 419
GlifName: two.onum
Width: 964
VWidth: 0
GlyphClass: 2
Flags: HW
LayerCount: 2
Fore
SplineSet
728 706 m 256
 728 833 610 931 460 931 c 256
 312 931 196 836 192 709 c 257
 99 709 l 257
 101 887 256 1018 463 1018 c 256
 667 1018 821 888 821 716 c 256
 821 611 765 523 637 421 c 258
 235 90 l 257
 866 90 l 257
 866 0 l 257
 97 0 l 257
 97 106 l 257
 565 468 l 258
 683 561 728 626 728 706 c 256
EndSplineSet
EndChar

StartChar: u
Encoding: 117 117 422
GlifName: u
Width: 1118
VWidth: 0
GlyphClass: 2
Flags: HW
LayerCount: 2
Fore
SplineSet
852 1008 m 257
 952 1008 l 257
 952 0 l 257
 854 0 l 257
 852 302 l 257
 852 1008 l 257
EndSplineSet
Refer: 1672 57357 N -1 0 0 -1 1125 1008 2
Substitution2: "'smcp' Lowercase to Small Capitals in Latin lookup 0 subtable" uni1D1C
EndChar

StartChar: underscore
Encoding: 95 95 431
GlifName: underscore
Width: 850
VWidth: 0
GlyphClass: 2
Flags: HW
LayerCount: 2
Fore
SplineSet
750 0 m 257
 750 -100 l 257
 100 -100 l 257
 100 0 l 257
 750 0 l 257
EndSplineSet
EndChar

StartChar: uni00AD
Encoding: 173 173 433
GlifName: uni00A_D_
Width: 1105
VWidth: 0
GlyphClass: 2
Flags: HW
LayerCount: 2
Fore
SplineSet
969 611 m 257
 969 525 l 257
 138 525 l 257
 138 611 l 257
 969 611 l 257
EndSplineSet
EndChar

StartChar: uni00B2
Encoding: 178 178 434
GlifName: uni00B_2
Width: 711
VWidth: 0
GlyphClass: 2
Flags: HW
LayerCount: 2
Fore
SplineSet
141 1132 m 257
 141 1196 l 257
 440 1473 l 258
 474 1505 493 1530 493 1590 c 256
 493 1681 425 1726 349 1726 c 256
 274 1726 205 1681 205 1590 c 257
 141 1590 l 257
 141 1725 248 1789 349 1789 c 256
 450 1789 558 1725 558 1590 c 256
 558 1511 525 1464 484 1428 c 258
 232 1196 l 257
 569 1196 l 257
 569 1132 l 257
 141 1132 l 257
EndSplineSet
EndChar

StartChar: uni00B3
Encoding: 179 179 435
GlifName: uni00B_3
Width: 724
VWidth: 0
GlyphClass: 2
Flags: HW
LayerCount: 2
Fore
SplineSet
236 1619 m 257
 169 1619 l 257
 169 1727 252 1789 365 1789 c 256
 477 1789 564 1719 564 1612 c 256
 564 1555 522 1491 455 1469 c 257
 522 1449 583 1385 583 1305 c 256
 583 1182 493 1122 366 1122 c 256
 232 1122 141 1195 141 1312 c 257
 209 1312 l 257
 209 1226 276 1184 366 1184 c 256
 458 1184 515 1220 515 1308 c 256
 515 1400 446 1438 348 1438 c 258
 302 1438 l 257
 302 1499 l 257
 348 1499 l 258
 431 1499 495 1534 495 1610 c 256
 495 1684 442 1726 364 1726 c 256
 288 1726 236 1691 236 1619 c 257
EndSplineSet
EndChar

StartChar: uni00B9
Encoding: 185 185 436
GlifName: uni00B_9
Width: 559
VWidth: 0
GlyphClass: 2
Flags: HW
LayerCount: 2
Fore
SplineSet
141 1553 m 257
 141 1616 l 257
 354 1616 l 257
 354 1779 l 257
 418 1779 l 257
 418 1132 l 257
 354 1132 l 257
 354 1553 l 257
 141 1553 l 257
EndSplineSet
EndChar

StartChar: uni018F
Encoding: 399 399 451
GlifName: uni018F_
Width: 1372
VWidth: 0
GlyphClass: 2
Flags: HW
LayerCount: 2
Fore
SplineSet
1169 593 m 257
 190 593 l 257
 192 311 368 77 681 77 c 256
 977 77 1164 294 1169 593 c 257
1173 681 m 257
 1170 1055 989 1276 670 1276 c 256
 440 1276 274 1151 211 975 c 257
 119 1008 l 257
 202 1231 394 1364 668 1364 c 256
 1052 1364 1275 1101 1275 674 c 256
 1275 247 1056 -11 678 -11 c 256
 268 -11 70 307 89 681 c 257
 1173 681 l 257
EndSplineSet
EndChar

StartChar: uni01B7
Encoding: 439 439 452
GlifName: uni01B_7
Width: 1261
VWidth: 0
GlyphClass: 2
Flags: HW
LayerCount: 2
Fore
SplineSet
597 -487 m 256
 347 -487 168 -379 94 -196 c 257
 186 -168 l 257
 259 -314 404 -399 600 -399 c 256
 917 -399 1068 -219 1068 83 c 256
 1068 387 848 564 534 562 c 257
 490 629 l 257
 996 1267 l 257
 84 1267 l 257
 84 1353 l 257
 1097 1353 l 257
 1097 1252 l 257
 622 651 l 257
 940 621 1170 426 1170 83 c 256
 1170 -290 963 -487 597 -487 c 256
EndSplineSet
EndChar

StartChar: uni0237
Encoding: 567 567 544
GlifName: uni0237
Width: 452
VWidth: 0
GlyphClass: 2
Flags: HW
LayerCount: 2
Fore
SplineSet
-141 -460 m 257
 -124 -386 l 257
 -98 -392 -55 -397 -13 -397 c 256
 104 -397 172 -344 172 -226 c 258
 172 1008 l 257
 274 1008 l 257
 274 -235 l 258
 274 -409 154 -481 1 -481 c 256
 -48 -481 -97 -473 -141 -460 c 257
EndSplineSet
EndChar

StartChar: uni0239
Encoding: 569 569 546
GlifName: uni0239
Width: 1734
VWidth: 0
GlyphClass: 2
Flags: HW
LayerCount: 2
Fore
SplineSet
817 1008 m 257
 918 1008 l 257
 918 -472 l 257
 817 -472 l 257
 817 1008 l 257
EndSplineSet
Refer: 1674 57359 N -1 0 0 -1 1111 1006 2
Refer: 1674 57359 N 1 0 0 1 624 0 2
EndChar

StartChar: uni0240
Encoding: 576 576 547
GlifName: uni0240
Width: 898
VWidth: 0
GlyphClass: 2
Flags: HW
LayerCount: 2
Fore
SplineSet
781 -280 m 256
 661 -280 574 -217 498 -149 c 256
 408 -69 314 0 57 0 c 257
 57 98 l 257
 741 919 l 257
 57 919 l 257
 57 1008 l 257
 841 1008 l 257
 841 911 l 257
 146 77 l 257
 366 75 455 9 538 -68 c 256
 607 -132 687 -192 781 -192 c 256
 870 -192 902 -166 950 -98 c 257
 1019 -148 l 257
 958 -233 896 -280 781 -280 c 256
EndSplineSet
EndChar

StartChar: uni0255
Encoding: 597 597 550
GlifName: uni0255
Width: 1094
VWidth: 0
GlyphClass: 2
Flags: HW
LayerCount: 2
Fore
SplineSet
586 74 m 256
 360 74 216 210 216 504 c 256
 216 798 361 933 570 933 c 256
 734 933 847 850 893 706 c 257
 986 734 l 257
 925 916 778 1017 568 1017 c 256
 294 1017 114 840 114 504 c 256
 114 168 294 -11 582 -11 c 256
 790 -11 981 116 981 304 c 256
 981 448 878 537 735 537 c 256
 509 537 357 364 90 -21 c 257
 151 -65 l 257
 421 306 551 462 730 462 c 256
 832 462 894 396 894 306 c 256
 894 161 737 74 586 74 c 256
EndSplineSet
EndChar

StartChar: uni0262
Encoding: 610 610 552
GlifName: uni0262
Width: 1050
VWidth: 0
GlyphClass: 2
Flags: HW
LayerCount: 2
Fore
SplineSet
184 500 m 256
 184 222 323 77 574 77 c 256
 695 77 791 115 861 188 c 257
 861 430 l 257
 535 430 l 257
 535 507 l 257
 955 508 l 257
 955 155 l 257
 858 45 736 -11 574 -11 c 256
 267 -11 89 173 89 500 c 256
 89 817 265 1019 540 1019 c 256
 714 1019 868 915 925 763 c 257
 844 732 l 257
 800 853 675 931 539 931 c 256
 322 931 184 766 184 500 c 256
EndSplineSet
EndChar

StartChar: uni0274
Encoding: 628 628 555
GlifName: uni0274
Width: 1127
VWidth: 0
GlyphClass: 2
Flags: HW
LayerCount: 2
Fore
SplineSet
858 1008 m 257
 959 1008 l 257
 959 0 l 257
 831 0 l 257
 268 894 l 257
 268 0 l 257
 168 0 l 257
 168 1008 l 257
 296 1008 l 257
 858 114 l 257
 858 1008 l 257
EndSplineSet
EndChar

StartChar: uni0280
Encoding: 640 640 556
GlifName: uni0280
Width: 1049
VWidth: 0
GlyphClass: 2
Flags: HW
LayerCount: 2
Fore
SplineSet
271 457 m 257
 508 457 l 258
 693 457 784 524 784 693 c 256
 784 863 692 929 508 929 c 258
 271 929 l 257
 271 457 l 257
271 379 m 257
 271 0 l 257
 170 0 l 257
 170 1008 l 257
 516 1008 l 258
 746 1008 885 912 885 693 c 256
 885 474 746 379 516 379 c 258
 271 379 l 257
603 428 m 257
 697 428 l 257
 963 0 l 257
 856 0 l 257
 603 428 l 257
EndSplineSet
EndChar

StartChar: uni0283
Encoding: 643 643 557
GlifName: uni0283
Width: 803
VWidth: 0
GlyphClass: 2
Flags: HW
LayerCount: 2
Fore
SplineSet
799 1378 m 257
 766 1310 l 257
 741 1331 693 1346 633 1346 c 256
 516 1346 447 1293 447 1175 c 258
 447 -238 l 258
 447 -412 328 -485 176 -485 c 256
 99 -485 34 -464 -6 -434 c 257
 27 -365 l 257
 52 -386 100 -401 160 -401 c 256
 277 -401 346 -348 346 -230 c 258
 346 1183 l 258
 346 1357 465 1430 618 1430 c 256
 695 1430 759 1408 799 1378 c 257
EndSplineSet
EndChar

StartChar: uni028F
Encoding: 655 655 558
GlifName: uni028F_
Width: 879
VWidth: 0
GlyphClass: 2
Flags: HW
LayerCount: 2
Fore
SplineSet
761 1008 m 257
 876 1008 l 257
 489 434 l 257
 489 0 l 257
 388 0 l 257
 388 434 l 257
 2 1008 l 257
 118 1008 l 257
 439 523 l 257
 761 1008 l 257
EndSplineSet
EndChar

StartChar: uni0291
Encoding: 657 657 559
GlifName: uni0291
Width: 1319
VWidth: 0
GlyphClass: 2
Flags: HW
LayerCount: 2
Fore
SplineSet
856 88 m 258
 156 88 l 257
 841 911 l 257
 841 1008 l 257
 57 1008 l 257
 57 919 l 257
 741 919 l 257
 57 98 l 257
 57 0 l 257
 854 0 l 258
 1060 0 1251 126 1251 314 c 256
 1251 458 1157 555 1002 555 c 256
 774 555 613 375 256 -162 c 257
 318 -205 l 257
 676 316 821 473 1000 473 c 256
 1101 473 1164 407 1164 318 c 256
 1164 173 1007 88 856 88 c 258
EndSplineSet
EndChar

StartChar: uni0292
Encoding: 658 658 560
GlifName: uni0292
Width: 1075
VWidth: 0
GlyphClass: 2
Flags: HW
LayerCount: 2
Fore
SplineSet
511 -487 m 256
 298 -487 149 -387 91 -192 c 257
 186 -171 l 257
 233 -314 344 -402 510 -402 c 256
 717 -402 864 -285 864 -28 c 256
 864 272 654 349 436 341 c 257
 390 400 l 257
 818 920 l 257
 133 920 l 257
 133 1008 l 257
 924 1008 l 257
 924 911 l 257
 523 425 l 257
 759 410 965 289 965 -28 c 256
 965 -332 782 -487 511 -487 c 256
EndSplineSet
EndChar

StartChar: uni0293
Encoding: 659 659 561
GlifName: uni0293
Width: 1076
VWidth: 0
GlyphClass: 2
Flags: HW
LayerCount: 2
Fore
SplineSet
134 919 m 257
 134 1008 l 257
 925 1008 l 257
 925 911 l 257
 524 425 l 257
 760 410 966 289 966 -28 c 256
 966 -332 776 -487 505 -487 c 256
 296 -487 104 -362 104 -173 c 256
 104 -29 207 61 350 61 c 256
 576 61 728 -113 995 -498 c 257
 934 -541 l 257
 664 -170 534 -14 355 -14 c 256
 253 -14 190 -80 190 -170 c 256
 190 -316 352 -402 504 -402 c 256
 711 -402 865 -285 865 -28 c 256
 865 272 655 349 437 341 c 257
 391 400 l 257
 819 919 l 257
 134 919 l 257
EndSplineSet
EndChar

StartChar: uni0299
Encoding: 665 665 562
GlifName: uni0299
Width: 983
VWidth: 0
GlyphClass: 2
Flags: HW
LayerCount: 2
Fore
SplineSet
170 1008 m 257
 550 1008 l 258
 730 1008 844 907 844 743 c 256
 844 637 793 557 710 518 c 257
 821 484 891 392 891 267 c 256
 891 100 774 0 601 0 c 258
 170 0 l 257
 170 1008 l 257
275 930 m 257
 275 540 l 257
 535 540 l 258
 671 540 745 610 745 737 c 256
 745 864 671 930 535 930 c 258
 275 930 l 257
275 467 m 257
 275 78 l 257
 575 78 l 258
 711 78 784 144 784 271 c 256
 784 398 711 467 575 467 c 258
 275 467 l 257
EndSplineSet
EndChar

StartChar: uni029C
Encoding: 668 668 563
GlifName: uni029C_
Width: 1123
VWidth: 0
GlyphClass: 2
Flags: HW
LayerCount: 2
Fore
SplineSet
854 1008 m 257
 956 1008 l 257
 956 0 l 257
 854 0 l 257
 854 460 l 257
 268 460 l 257
 268 0 l 257
 168 0 l 257
 168 1008 l 257
 268 1008 l 257
 268 549 l 257
 854 549 l 257
 854 1008 l 257
EndSplineSet
EndChar

StartChar: uni029F
Encoding: 671 671 565
GlifName: uni029F_
Width: 919
VWidth: 0
GlyphClass: 2
Flags: HW
LayerCount: 2
Fore
SplineSet
214 1008 m 257
 314 1008 l 257
 314 84 l 257
 859 84 l 257
 859 0 l 257
 214 0 l 257
 214 1008 l 257
EndSplineSet
EndChar

StartChar: uni02C2
Encoding: 706 706 575
GlifName: uni02C_2
Width: 672
VWidth: 0
GlyphClass: 2
Flags: HW
LayerCount: 2
Fore
SplineSet
252 717 m 257
 536 433 l 257
 478 375 l 257
 136 717 l 257
 478 1059 l 257
 536 1001 l 257
 252 717 l 257
EndSplineSet
EndChar

StartChar: uni02C3
Encoding: 707 707 576
GlifName: uni02C_3
Width: 672
VWidth: 0
GlyphClass: 2
Flags: HW
LayerCount: 2
Fore
SplineSet
420 717 m 257
 136 1001 l 257
 194 1059 l 257
 536 717 l 257
 194 375 l 257
 136 433 l 257
 420 717 l 257
EndSplineSet
EndChar

StartChar: uni02C4
Encoding: 708 708 577
GlifName: uni02C_4
Width: 956
VWidth: 0
GlyphClass: 2
Flags: HW
LayerCount: 2
Fore
SplineSet
478 801 m 257
 194 517 l 257
 136 575 l 257
 478 917 l 257
 820 575 l 257
 762 517 l 257
 478 801 l 257
EndSplineSet
EndChar

StartChar: uni02C5
Encoding: 709 709 578
GlifName: uni02C_5
Width: 956
VWidth: 0
GlyphClass: 2
Flags: HW
LayerCount: 2
Fore
SplineSet
478 633 m 257
 762 917 l 257
 820 859 l 257
 478 517 l 257
 136 859 l 257
 194 917 l 257
 478 633 l 257
EndSplineSet
EndChar

StartChar: uni02D2
Encoding: 722 722 579
GlifName: uni02D_2
Width: 532
VWidth: 0
GlyphClass: 2
Flags: HW
LayerCount: 2
Fore
SplineSet
139 1195 m 257
 259 1195 329 1279 329 1385 c 256
 329 1491 259 1575 140 1575 c 257
 140 1639 l 257
 292 1639 394 1529 394 1385 c 256
 394 1241 293 1131 139 1131 c 257
 139 1195 l 257
EndSplineSet
EndChar

StartChar: uni02D3
Encoding: 723 723 580
GlifName: uni02D_3
Width: 555
VWidth: 0
GlyphClass: 2
Flags: HW
LayerCount: 2
Fore
SplineSet
405 1575 m 257
 285 1575 215 1491 215 1385 c 256
 215 1279 285 1195 404 1195 c 257
 404 1131 l 257
 252 1131 150 1241 150 1385 c 256
 150 1529 252 1639 405 1639 c 257
 405 1575 l 257
EndSplineSet
EndChar

StartChar: uni031B
Encoding: 795 795 584
GlifName: uni031B_
Width: 642
VWidth: 0
GlyphClass: 2
Flags: HW
LayerCount: 2
Fore
SplineSet
453 1514 m 257
 478 1434 492 1373 492 1304 c 256
 492 1203 440 1132 282 1132 c 258
 150 1132 l 257
 150 1200 l 257
 292 1200 l 258
 389 1200 420 1241 420 1305 c 256
 420 1356 408 1412 384 1489 c 257
 453 1514 l 257
EndSplineSet
EndChar

StartChar: uni0600
Encoding: 1536 1536 585
GlifName: uni0600
Width: 2921
VWidth: 0
GlyphClass: 2
Flags: HW
LayerCount: 2
Fore
SplineSet
2318 101 m 257
 2256 144 2221 219 2221 309 c 256
 2221 452 2297 599 2453 793 c 257
 2532 731 l 257
 2389 552 2322 418 2322 308 c 256
 2322 173 2415 102 2621 54 c 258
 2798 14 l 257
 2768 -85 l 257
 2530 -18 2443 0 2365 0 c 258
 123 0 l 257
 123 101 l 257
 2318 101 l 257
EndSplineSet
EndChar

StartChar: uni0601
Encoding: 1537 1537 586
GlifName: uni0601
Width: 3881
VWidth: 0
GlyphClass: 2
Flags: HW
LayerCount: 2
Fore
SplineSet
122 201 m 257
 206 248 l 257
 267 131 304 65 392 65 c 256
 477 65 509 164 545 280 c 256
 598 440 655 589 812 589 c 256
 947 589 1034 471 1130 329 c 256
 1223 191 1313 65 1460 65 c 256
 1602 65 1684 217 1760 373 c 257
 1831 383 l 257
 2045 133 2362 65 2573 65 c 256
 2848 65 3069 196 3255 322 c 256
 3414 430 3478 466 3572 466 c 256
 3679 466 3754 388 3754 278 c 256
 3754 176 3704 67 3588 -52 c 257
 3521 12 l 257
 3611 103 3648 185 3648 255 c 256
 3648 317 3613 354 3558 354 c 256
 3490 354 3442 325 3307 234 c 256
 3117 106 2874 -36 2574 -36 c 256
 2353 -36 2065 23 1814 261 c 257
 1734 114 1643 -36 1456 -36 c 256
 1268 -36 1150 118 1040 279 c 256
 963 391 896 486 810 486 c 256
 709 486 673 375 633 251 c 256
 582 97 531 -36 390 -36 c 256
 257 -36 203 48 122 201 c 257
EndSplineSet
EndChar

StartChar: uni0603
Encoding: 1539 1539 587
GlifName: uni0603
Width: 2052
VWidth: 0
GlyphClass: 2
Flags: HW
LayerCount: 2
Fore
SplineSet
122 0 m 257
 122 101 l 257
 426 101 648 241 734 613 c 257
 832 591 l 257
 741 188 511 0 122 0 c 257
1823 368 m 256
 1823 502 1734 598 1587 598 c 256
 1447 598 1257 487 1044 169 c 257
 963 216 l 257
 1190 556 1417 699 1596 699 c 256
 1808 699 1930 555 1930 368 c 256
 1930 82 1693 1 1406 1 c 256
 1065 1 846 129 672 349 c 257
 746 418 l 257
 914 220 1113 100 1419 100 c 256
 1629 100 1823 151 1823 368 c 256
EndSplineSet
EndChar

StartChar: uni0604
Encoding: 1540 1540 588
GlifName: uni0604
Width: 2893
VWidth: 0
GlyphClass: 2
Flags: HW
LayerCount: 2
Fore
SplineSet
1290 -165 m 257
 1068 -57 942 0 718 0 c 258
 123 0 l 257
 123 101 l 257
 697 101 l 258
 755 101 814 97 874 81 c 257
 814 146 788 226 788 306 c 256
 788 519 953 724 1170 724 c 256
 1353 724 1441 621 1531 514 c 256
 1623 404 1712 301 1905 301 c 256
 2081 301 2157 389 2157 564 c 258
 2157 766 l 257
 2252 766 l 257
 2252 564 l 258
 2252 392 2319 301 2470 301 c 256
 2619 301 2671 398 2671 540 c 256
 2671 620 2656 739 2638 823 c 257
 2737 844 l 257
 2757 748 2770 631 2770 539 c 256
 2770 342 2698 200 2477 200 c 256
 2311 200 2237 271 2204 397 c 257
 2171 271 2098 200 1912 200 c 256
 1681 200 1572 325 1473 440 c 256
 1390 536 1313 622 1176 622 c 256
 994 622 888 470 888 304 c 256
 888 118 1082 34 1228 -26 c 256
 1271 -44 1307 -60 1335 -73 c 257
 1290 -165 l 257
EndSplineSet
EndChar

StartChar: uni060C
Encoding: 1548 1548 592
GlifName: uni060C_
Width: 618
VWidth: 0
GlyphClass: 2
Flags: HW
LayerCount: 2
Fore
SplineSet
271 216 m 257
 365 237 432 200 432 110 c 256
 432 38 388 -10 318 -10 c 256
 235 -10 187 54 187 175 c 256
 187 339 248 467 365 582 c 257
 419 524 l 257
 326 433 274 332 271 216 c 257
EndSplineSet
EndChar

StartChar: uni060D
Encoding: 1549 1549 593
GlifName: uni060D_
Width: 876
VWidth: 0
GlyphClass: 2
Flags: HW
LayerCount: 2
Fore
SplineSet
234 -660 m 257
 124 -660 l 257
 618 602 l 257
 728 602 l 257
 234 -660 l 257
EndSplineSet
EndChar

StartChar: uni060E
Encoding: 1550 1550 594
GlifName: uni060E_
Width: 2203
VWidth: 0
GlyphClass: 2
Flags: HW
LayerCount: 2
Fore
SplineSet
965 415 m 256
 965 269 884 124 787 -10 c 257
 707 49 l 257
 798 174 864 300 864 410 c 256
 864 579 737 697 554 697 c 256
 394 697 223 564 223 354 c 256
 223 155 408 79 628 79 c 258
 2080 79 l 257
 2080 -21 l 257
 624 -21 l 258
 329 -21 123 105 123 351 c 256
 123 618 336 798 554 798 c 256
 793 798 965 638 965 415 c 256
EndSplineSet
EndChar

StartChar: uni060F
Encoding: 1551 1551 595
GlifName: uni060F_
Width: 1510
VWidth: 0
GlyphClass: 2
Flags: HW
LayerCount: 2
Fore
SplineSet
817 -742 m 256
 462 -742 123 -590 123 -244 c 256
 123 23 325 264 625 365 c 257
 396 375 208 497 208 719 c 256
 208 981 417 1161 638 1161 c 256
 792 1161 901 1092 974 1011 c 257
 904 936 l 257
 847 1002 769 1061 639 1061 c 256
 478 1061 309 930 309 722 c 256
 309 524 487 446 747 446 c 256
 835 446 964 463 1041 473 c 257
 1049 369 l 257
 639 341 224 147 224 -249 c 256
 224 -529 533 -643 825 -643 c 256
 1039 -643 1280 -578 1280 -370 c 256
 1280 -236 1192 -141 1044 -141 c 256
 904 -141 722 -241 488 -593 c 257
 300 -873 l 257
 219 -818 l 257
 409 -548 l 257
 660 -171 878 -42 1057 -42 c 256
 1267 -42 1387 -184 1387 -368 c 256
 1387 -640 1101 -742 817 -742 c 256
EndSplineSet
EndChar

StartChar: uni0615.alt
Encoding: 1114200 -1 597
GlifName: uni0615.alt
Width: 755
VWidth: 0
GlyphClass: 2
Flags: HW
LayerCount: 2
Fore
SplineSet
291 48 m 257
 399 48 l 258
 496 48 573 66 573 138 c 256
 573 184 543 217 494 217 c 256
 440 217 376 171 291 48 c 257
246 48 m 257
 246 420 l 257
 294 420 l 257
 294 125 l 257
 372 228 433 266 500 266 c 256
 573 266 622 212 622 138 c 256
 622 30 525 -1 399 -1 c 258
 133 -1 l 257
 133 48 l 257
 246 48 l 257
EndSplineSet
EndChar

StartChar: uni061C
Encoding: 1564 1564 599
GlifName: uni061C_
Width: 2285
VWidth: 0
GlyphClass: 2
Flags: HW
LayerCount: 2
Fore
SplineSet
797 1093 m 257
 1030 1093 l 257
 1030 1047 l 257
 797 1047 l 257
 797 1093 l 257
1263 1093 m 257
 1496 1093 l 257
 1496 1047 l 257
 1263 1047 l 257
 1263 1093 l 257
2040 1047 m 257
 1729 1047 l 257
 1729 1093 l 257
 2086 1091 l 257
 2086 783 l 257
 2040 783 l 257
 2040 1047 l 257
200 1093 m 257
 564 1093 l 257
 564 1047 l 257
 246 1049 l 257
 246 785 l 257
 200 785 l 257
 200 1093 l 257
1498 -280 m 257
 1265 -280 l 257
 1265 -234 l 257
 1498 -234 l 257
 1498 -280 l 257
200 -280 m 257
 566 -280 l 257
 566 -234 l 257
 246 -234 l 257
 246 30 l 257
 200 30 l 257
 200 -280 l 257
2040 -234 m 257
 1731 -234 l 257
 1731 -280 l 257
 2086 -280 l 257
 2086 28 l 257
 2040 28 l 257
 2040 -234 l 257
1032 -280 m 257
 799 -280 l 257
 799 -234 l 257
 1032 -234 l 257
 1032 -280 l 257
2040 261 m 257
 2040 550 l 257
 2086 550 l 257
 2086 261 l 257
 2040 261 l 257
246 552 m 257
 246 263 l 257
 200 263 l 257
 200 552 l 257
 246 552 l 257
EndSplineSet
Refer: 1334 7437 N 0.5 0 0 0.5 1211 146 2
Refer: 1327 7424 N 0.5 0 0 0.5 386 146 2
Refer: 565 671 N 0.5 0 0 0.5 790 146 2
EndChar

StartChar: uni061F
Encoding: 1567 1567 601
GlifName: uni061F_
Width: 1068
VWidth: 0
GlyphClass: 2
Flags: HW
LayerCount: 2
Fore
SplineSet
567 -11 m 256
 508 -11 466 34 466 90 c 256
 466 146 508 189 567 189 c 256
 626 189 668 146 668 90 c 256
 668 34 626 -11 567 -11 c 256
794 884 m 257
 803 918 804 963 804 1000 c 256
 804 1143 701 1241 548 1241 c 256
 378 1241 274 1128 274 970 c 256
 274 859 327 792 422 720 c 256
 530 637 634 555 634 394 c 257
 532 394 l 257
 532 517 455 584 360 659 c 256
 261 737 172 824 172 984 c 256
 172 1159 305 1327 550 1327 c 256
 768 1327 898 1185 898 999 c 256
 898 959 892 915 880 874 c 257
 794 884 l 257
EndSplineSet
Substitution2: "'tnum' Tabular Numbers lookup 22 subtable" uni061F.tnum
EndChar

StartChar: uni0652.alt
Encoding: 1114236 -1 688
GlifName: uni0652.alt
Width: 533
VWidth: 0
GlyphClass: 2
Flags: HW
LayerCount: 2
Fore
SplineSet
267 248 m 256
 204 248 169 212 169 150 c 256
 169 88 204 51 267 51 c 256
 329 51 364 90 364 150 c 256
 364 210 331 248 267 248 c 256
267 298 m 256
 357 298 416 240 416 150 c 256
 416 60 358 0 267 0 c 256
 176 0 118 61 118 150 c 256
 118 240 176 298 267 298 c 256
EndSplineSet
EndChar

StartChar: uni0660
Encoding: 1632 1632 702
GlifName: uni0660
Width: 644
VWidth: 0
GlyphClass: 2
Flags: HW
LayerCount: 2
Fore
SplineSet
321 628 m 257
 144 449 l 257
 321 269 l 257
 501 449 l 257
 321 628 l 257
EndSplineSet
PairPos2: "'kern' Horizontal Kerning in Arabic lookup 7 subtable" uni0662 dx=-111 dy=0 dh=-111 dv=0 dx=0 dy=0 dh=0 dv=0
PairPos2: "'kern' Horizontal Kerning in Arabic lookup 7 subtable" uni0667 dx=-89 dy=0 dh=-89 dv=0 dx=0 dy=0 dh=0 dv=0
PairPos2: "'kern' Horizontal Kerning in Arabic lookup 7 subtable" uni0661 dx=45 dy=0 dh=45 dv=0 dx=0 dy=0 dh=0 dv=0
Substitution2: "'tnum' Tabular Numbers lookup 22 subtable" uni0660.tnum
EndChar

StartChar: uni0661
Encoding: 1633 1633 704
GlifName: uni0661
Width: 638
VWidth: 0
GlyphClass: 2
Flags: HW
LayerCount: 2
Fore
SplineSet
469 0 m 257
 368 0 l 257
 368 508 313 872 126 1321 c 257
 225 1365 l 257
 410 908 469 518 469 0 c 257
EndSplineSet
PairPos2: "'kern' Horizontal Kerning in Arabic lookup 7 subtable" uni0665 dx=-56 dy=0 dh=-56 dv=0 dx=0 dy=0 dh=0 dv=0
Substitution2: "'tnum' Tabular Numbers lookup 22 subtable" uni0661.tnum
EndChar

StartChar: uni0662
Encoding: 1634 1634 706
GlifName: uni0662
Width: 1129
VWidth: 0
GlyphClass: 2
Flags: HW
LayerCount: 2
Fore
SplineSet
590 870 m 256
 792 870 850 1008 870 1248 c 258
 879 1350 l 257
 978 1339 l 257
 956 1060 927 770 596 770 c 256
 509 770 435 802 382 864 c 257
 446 593 469 320 469 0 c 257
 368 0 l 257
 368 502 315 866 126 1321 c 257
 225 1365 l 257
 270 1247 l 258
 376 973 437 870 590 870 c 256
EndSplineSet
Substitution2: "'tnum' Tabular Numbers lookup 22 subtable" uni0662.tnum
EndChar

StartChar: uni0663
Encoding: 1635 1635 708
GlifName: uni0663
Width: 1488
VWidth: 0
GlyphClass: 2
Flags: HW
LayerCount: 2
Fore
SplineSet
562 868 m 256
 676 868 731 955 749 1107 c 256
 757 1181 763 1250 766 1336 c 257
 857 1331 l 257
 848 1253 840 1171 840 1098 c 256
 840 953 893 868 1034 868 c 256
 1173 868 1213 964 1213 1102 c 256
 1213 1178 1206 1264 1193 1351 c 257
 1290 1367 l 257
 1302 1279 1310 1200 1310 1128 c 256
 1310 904 1237 767 1031 767 c 256
 901 767 796 851 789 985 c 257
 765 856 688 767 566 767 c 256
 477 767 430 798 382 860 c 257
 446 588 467 318 467 0 c 257
 366 0 l 257
 366 510 310 882 126 1322 c 257
 225 1365 l 257
 271 1229 l 257
 370 971 431 868 562 868 c 256
EndSplineSet
PairPos2: "'kern' Horizontal Kerning in Arabic lookup 7 subtable" uni0668 dx=-56 dy=0 dh=-56 dv=0 dx=0 dy=0 dh=0 dv=0
Substitution2: "'tnum' Tabular Numbers lookup 22 subtable" uni0663.tnum
EndChar

StartChar: uni0664
Encoding: 1636 1636 710
GlifName: uni0664
Width: 1047
VWidth: 0
GlyphClass: 2
Flags: HW
LayerCount: 2
Fore
SplineSet
513 698 m 257
 338 736 216 803 216 954 c 256
 216 1156 449 1333 727 1365 c 257
 742 1267 l 257
 471 1237 317 1087 317 955 c 256
 317 815 487 755 739 755 c 257
 739 661 l 257
 458 661 249 461 249 292 c 256
 249 122 412 102 585 102 c 258
 872 102 l 257
 872 0 l 257
 558 0 l 258
 362 0 148 45 148 283 c 256
 148 441 276 626 513 698 c 257
EndSplineSet
PairPos2: "'kern' Horizontal Kerning in Arabic lookup 7 subtable" uni0666 dx=56 dy=0 dh=56 dv=0 dx=0 dy=0 dh=0 dv=0
Substitution2: "'tnum' Tabular Numbers lookup 22 subtable" uni0664.tnum
EndChar

StartChar: uni0664.urdu
Encoding: 1114242 -1 712
GlifName: uni0664.urdu
Width: 1144
VWidth: 0
GlyphClass: 2
Flags: HW
LayerCount: 2
Fore
SplineSet
1023 1288 m 257
 887 1209 766 1124 670 1013 c 257
 608 1015 l 257
 492 1174 l 258
 449 1233 396 1261 344 1261 c 256
 263 1261 193 1192 193 1110 c 256
 193 1078 204 1042 230 1005 c 258
 581 406 l 258
 626 328 662 233 662 136 c 256
 662 83 652 30 629 -21 c 257
 535 20 l 257
 552 59 560 97 560 136 c 256
 560 213 532 288 495 351 c 258
 146 952 l 257
 110 1004 92 1060 92 1114 c 256
 92 1252 206 1364 341 1364 c 256
 427 1364 505 1319 565 1240 c 258
 644 1132 l 257
 737 1228 854 1307 972 1376 c 257
 1023 1288 l 257
EndSplineSet
Substitution2: "'tnum' Tabular Numbers lookup 22 subtable" uni0664.urdu.tnum
EndChar

StartChar: uni0665
Encoding: 1637 1637 714
GlifName: uni0665
Width: 1299
VWidth: 0
GlyphClass: 2
Flags: HW
LayerCount: 2
Fore
SplineSet
539 1365 m 257
 806 1144 1125 745 1125 377 c 256
 1125 88 945 -22 659 -22 c 256
 382 -22 176 88 176 370 c 256
 176 646 317 923 592 1183 c 257
 553 1221 514 1256 476 1286 c 257
 539 1365 l 257
654 1122 m 257
 388 873 276 606 276 373 c 256
 276 156 409 81 659 81 c 256
 917 81 1024 152 1024 377 c 256
 1024 616 860 909 654 1122 c 257
EndSplineSet
PairPos2: "'kern' Horizontal Kerning in Arabic lookup 7 subtable" uni0667 dx=-111 dy=0 dh=-111 dv=0 dx=0 dy=0 dh=0 dv=0
PairPos2: "'kern' Horizontal Kerning in Arabic lookup 7 subtable" uni0661 dx=56 dy=0 dh=56 dv=0 dx=0 dy=0 dh=0 dv=0
Substitution2: "'tnum' Tabular Numbers lookup 22 subtable" uni0665.tnum
EndChar

StartChar: uni0666
Encoding: 1638 1638 716
GlifName: uni0666
Width: 1157
VWidth: 0
GlyphClass: 2
Flags: HW
LayerCount: 2
Fore
SplineSet
148 1248 m 257
 148 1353 l 257
 857 1353 l 257
 922 1286 l 257
 918 1190 915 1097 915 1004 c 256
 915 600 946 352 1041 30 c 257
 942 6 l 257
 846 333 815 595 815 1004 c 256
 815 1081 815 1163 819 1248 c 257
 148 1248 l 257
EndSplineSet
PairPos2: "'kern' Horizontal Kerning in Arabic lookup 7 subtable" uni0668 dx=-222 dy=0 dh=-222 dv=0 dx=0 dy=0 dh=0 dv=0
PairPos2: "'kern' Horizontal Kerning in Arabic lookup 7 subtable" uni066B dx=-167 dy=0 dh=-167 dv=0 dx=0 dy=0 dh=0 dv=0
PairPos2: "'kern' Horizontal Kerning in Arabic lookup 7 subtable" uni0660 dx=-222 dy=0 dh=-222 dv=0 dx=0 dy=0 dh=0 dv=0
PairPos2: "'kern' Horizontal Kerning in Arabic lookup 7 subtable" uni0665 dx=-195 dy=0 dh=-195 dv=0 dx=0 dy=0 dh=0 dv=0
PairPos2: "'kern' Horizontal Kerning in Arabic lookup 7 subtable" uni0664 dx=-56 dy=0 dh=-56 dv=0 dx=0 dy=0 dh=0 dv=0
Substitution2: "'tnum' Tabular Numbers lookup 22 subtable" uni0666.tnum
EndChar

StartChar: uni0667
Encoding: 1639 1639 718
GlifName: uni0667
Width: 1376
VWidth: 0
GlyphClass: 2
Flags: HW
LayerCount: 2
Fore
SplineSet
1153 1371 m 257
 1234 1306 l 257
 978 974 809 556 736 0 c 257
 641 0 l 257
 568 556 399 974 143 1306 c 257
 224 1371 l 257
 453 1073 652 597 689 170 c 257
 726 597 924 1073 1153 1371 c 257
EndSplineSet
PairPos2: "'kern' Horizontal Kerning in Arabic lookup 7 subtable" uni066B dx=-139 dy=0 dh=-139 dv=0 dx=0 dy=0 dh=0 dv=0
PairPos2: "'kern' Horizontal Kerning in Arabic lookup 7 subtable" uni0668 dx=-167 dy=0 dh=-167 dv=0 dx=0 dy=0 dh=0 dv=0
PairPos2: "'kern' Horizontal Kerning in Arabic lookup 7 subtable" uni0665 dx=-111 dy=0 dh=-111 dv=0 dx=0 dy=0 dh=0 dv=0
PairPos2: "'kern' Horizontal Kerning in Arabic lookup 7 subtable" uni0660 dx=-111 dy=0 dh=-111 dv=0 dx=0 dy=0 dh=0 dv=0
Substitution2: "'tnum' Tabular Numbers lookup 22 subtable" uni0667.tnum
Substitution2: "'locl' Localized Forms in Arabic lookup 5 subtable" uni0667.urdu
EndChar

StartChar: uni0667.urdu
Encoding: 1114247 -1 720
GlifName: uni0667.urdu
Width: 1131
VWidth: 0
GlyphClass: 2
Flags: HW
LayerCount: 2
Fore
SplineSet
975 158 m 257
 1010 64 l 257
 873 14 736 -10 596 -10 c 256
 450 -10 302 17 149 65 c 257
 121 141 l 257
 314 459 441 928 501 1365 c 257
 602 1352 l 257
 545 929 426 474 242 145 c 257
 367 111 486 92 602 92 c 256
 728 92 850 112 975 158 c 257
EndSplineSet
Substitution2: "'tnum' Tabular Numbers lookup 22 subtable" uni0667.urdu.tnum
EndChar

StartChar: uni0668
Encoding: 1640 1640 722
GlifName: uni0668
Width: 1376
VWidth: 0
GlyphClass: 2
Flags: HW
LayerCount: 2
Fore
SplineSet
224 -16 m 257
 143 49 l 257
 399 381 568 799 641 1355 c 257
 736 1355 l 257
 809 799 978 381 1234 49 c 257
 1153 -16 l 257
 924 282 726 758 689 1184 c 257
 652 758 453 282 224 -16 c 257
EndSplineSet
PairPos2: "'kern' Horizontal Kerning in Arabic lookup 7 subtable" uni0667 dx=-167 dy=0 dh=-167 dv=0 dx=0 dy=0 dh=0 dv=0
PairPos2: "'kern' Horizontal Kerning in Arabic lookup 7 subtable" uni0662 dx=-195 dy=0 dh=-195 dv=0 dx=0 dy=0 dh=0 dv=0
PairPos2: "'kern' Horizontal Kerning in Arabic lookup 7 subtable" uni0663 dx=-222 dy=0 dh=-222 dv=0 dx=0 dy=0 dh=0 dv=0
Substitution2: "'tnum' Tabular Numbers lookup 22 subtable" uni0668.tnum
EndChar

StartChar: uni0669
Encoding: 1641 1641 724
GlifName: uni0669
Width: 1083
VWidth: 0
GlyphClass: 2
Flags: HW
LayerCount: 2
Fore
SplineSet
750 661 m 257
 678 639 612 626 524 626 c 256
 329 626 157 687 157 935 c 256
 157 1148 275 1365 505 1365 c 256
 784 1365 839 1142 841 795 c 257
 843 412 879 234 963 42 c 257
 871 2 l 257
 792 176 753 415 750 661 c 257
743 763 m 257
 743 796 l 258
 743 1094 697 1263 503 1263 c 256
 358 1263 255 1119 255 935 c 256
 255 784 343 725 518 725 c 256
 606 725 669 738 743 763 c 257
EndSplineSet
PairPos2: "'kern' Horizontal Kerning in Arabic lookup 7 subtable" uni0665 dx=-56 dy=0 dh=-56 dv=0 dx=0 dy=0 dh=0 dv=0
PairPos2: "'kern' Horizontal Kerning in Arabic lookup 7 subtable" uni0668 dx=-167 dy=0 dh=-167 dv=0 dx=0 dy=0 dh=0 dv=0
Substitution2: "'tnum' Tabular Numbers lookup 22 subtable" uni0669.tnum
EndChar

StartChar: uni066B
Encoding: 1643 1643 728
GlifName: uni066B_
Width: 876
VWidth: 0
GlyphClass: 2
Flags: HW
LayerCount: 2
Fore
SplineSet
234 -660 m 257
 124 -660 l 257
 619 602 l 257
 728 602 l 257
 234 -660 l 257
EndSplineSet
PairPos2: "'kern' Horizontal Kerning in Arabic lookup 7 subtable" uni0667 dx=-111 dy=0 dh=-111 dv=0 dx=0 dy=0 dh=0 dv=0
PairPos2: "'kern' Horizontal Kerning in Arabic lookup 7 subtable" uni0662 dx=-111 dy=0 dh=-111 dv=0 dx=0 dy=0 dh=0 dv=0
PairPos2: "'kern' Horizontal Kerning in Arabic lookup 7 subtable" uni0663 dx=-167 dy=0 dh=-167 dv=0 dx=0 dy=0 dh=0 dv=0
PairPos2: "'kern' Horizontal Kerning in Arabic lookup 7 subtable" uni066B dx=-56 dy=0 dh=-56 dv=0 dx=0 dy=0 dh=0 dv=0
PairPos2: "'kern' Horizontal Kerning in Arabic lookup 7 subtable" uni06F2 dx=-111 dy=0 dh=-111 dv=0 dx=0 dy=0 dh=0 dv=0
PairPos2: "'kern' Horizontal Kerning in Arabic lookup 7 subtable" uni06F3 dx=-84 dy=0 dh=-84 dv=0 dx=0 dy=0 dh=0 dv=0
PairPos2: "'kern' Horizontal Kerning in Arabic lookup 7 subtable" uni06F0 dx=-56 dy=0 dh=-56 dv=0 dx=0 dy=0 dh=0 dv=0
PairPos2: "'kern' Horizontal Kerning in Arabic lookup 7 subtable" uni06F7 dx=-111 dy=0 dh=-111 dv=0 dx=0 dy=0 dh=0 dv=0
Substitution2: "'tnum' Tabular Numbers lookup 22 subtable" uni066B.tnum
EndChar

StartChar: uni066C
Encoding: 1644 1644 730
GlifName: uni066C_
Width: 648
VWidth: 0
GlyphClass: 2
Flags: HW
LayerCount: 2
Fore
SplineSet
353 0 m 257
 288 -19 224 11 224 80 c 256
 224 133 260 172 322 172 c 256
 393 172 428 118 428 31 c 256
 428 -101 367 -201 274 -278 c 257
 225 -224 l 257
 292 -168 349 -88 353 0 c 257
EndSplineSet
Substitution2: "'tnum' Tabular Numbers lookup 22 subtable" uni066C.tnum
EndChar

StartChar: uni066D
Encoding: 1645 1645 732
GlifName: uni066D_
Width: 1006
VWidth: 0
GlyphClass: 2
Flags: HW
LayerCount: 2
Fore
SplineSet
542 632 m 257
 465 632 l 257
 471 1020 l 257
 137 824 l 257
 98 890 l 257
 436 1080 l 257
 98 1271 l 257
 137 1336 l 257
 471 1142 l 257
 465 1527 l 257
 542 1527 l 257
 538 1142 l 257
 871 1336 l 257
 909 1271 l 257
 574 1080 l 257
 909 890 l 257
 871 824 l 257
 538 1020 l 257
 542 632 l 257
EndSplineSet
Substitution2: "'tnum' Tabular Numbers lookup 22 subtable" uni066D.tnum
EndChar

StartChar: uni06DD
Encoding: 1757 1757 985
GlifName: uni06D_D_
Width: 0
VWidth: 0
GlyphClass: 2
Flags: H
LayerCount: 2
Fore
SplineSet
995 641 m 256
 995 431 1006 181 1034 -63 c 256
 1034 -64 1034 -65 1034 -66 c 256
 1034 -78 1023 -89 1012 -91 c 256
 774 -135 630 -196 501 -253 c 256
 350 -319 202 -374 0 -374 c 256
 -202 -374 -350 -319 -501 -253 c 256
 -630 -196 -774 -135 -1012 -91 c 256
 -1023 -89 -1034 -78 -1034 -66 c 256
 -1034 -65 -1034 -64 -1034 -63 c 256
 -1006 181 -995 431 -995 641 c 256
 -995 851 -1006 1102 -1034 1346 c 256
 -1034 1347 -1034 1348 -1034 1349 c 256
 -1034 1361 -1023 1372 -1012 1374 c 256
 -774 1418 -630 1479 -501 1536 c 256
 -350 1602 -202 1656 0 1656 c 256
 202 1656 350 1602 501 1536 c 256
 630 1479 774 1418 1012 1374 c 256
 1023 1372 1034 1361 1034 1349 c 256
 1034 1348 1034 1347 1034 1346 c 256
 1006 1102 995 851 995 641 c 256
0 1594 m 256
 -189 1594 -328 1544 -475 1479 c 256
 -598 1425 -743 1363 -969 1320 c 257
 -943 1084 -933 843 -933 641 c 256
 -933 439 -943 199 -969 -37 c 257
 -743 -80 -598 -142 -475 -196 c 256
 -328 -261 -189 -311 0 -311 c 256
 189 -311 328 -261 475 -196 c 256
 598 -142 743 -80 969 -37 c 257
 943 199 933 439 933 641 c 256
 933 843 943 1084 969 1320 c 257
 743 1363 598 1425 475 1479 c 256
 328 1544 189 1594 0 1594 c 256
EndSplineSet
EndChar

StartChar: uni06DE
Encoding: 1758 1758 986
GlifName: uni06D_E_
Width: 2663
VWidth: 0
GlyphClass: 2
Flags: HW
LayerCount: 2
Fore
SplineSet
1331 1485 m 256
 1371 1485 1404 1451 1404 1411 c 256
 1404 1371 1371 1337 1331 1337 c 256
 1291 1337 1257 1371 1257 1411 c 256
 1257 1451 1291 1485 1331 1485 c 256
1331 -117 m 256
 1371 -117 1405 -151 1405 -191 c 256
 1405 -231 1371 -265 1331 -265 c 256
 1291 -265 1258 -231 1258 -191 c 256
 1258 -151 1291 -117 1331 -117 c 256
530 683 m 256
 570 683 604 650 604 610 c 256
 604 570 570 536 530 536 c 256
 490 536 456 570 456 610 c 256
 456 650 490 683 530 683 c 256
2132 684 m 256
 2172 684 2206 650 2206 610 c 256
 2206 570 2172 537 2132 537 c 256
 2092 537 2058 570 2058 610 c 256
 2058 650 2092 684 2132 684 c 256
790 1224 m 256
 829 1224 864 1189 864 1150 c 256
 864 1111 829 1077 790 1077 c 256
 751 1077 717 1111 717 1150 c 256
 717 1189 751 1224 790 1224 c 256
1872 143 m 256
 1911 143 1945 109 1945 70 c 256
 1945 31 1911 -4 1872 -4 c 256
 1833 -4 1798 31 1798 70 c 256
 1798 109 1833 143 1872 143 c 256
791 143 m 256
 830 143 864 108 864 69 c 256
 864 30 830 -4 791 -4 c 256
 752 -4 717 30 717 69 c 256
 717 108 752 143 791 143 c 256
1871 1224 m 256
 1910 1224 1945 1190 1945 1151 c 256
 1945 1112 1910 1077 1871 1077 c 256
 1832 1077 1798 1112 1798 1151 c 256
 1798 1190 1832 1224 1871 1224 c 256
1332 1670 m 257
 1021 1360 l 257
 581 1360 l 257
 581 921 l 257
 271 610 l 257
 581 299 l 257
 581 -140 l 257
 1021 -140 l 257
 1332 -450 l 257
 1642 -140 l 257
 2081 -140 l 257
 2081 299 l 257
 2392 610 l 257
 2081 921 l 257
 2081 1360 l 257
 1642 1360 l 257
 1332 1670 l 257
1331 1755 m 257
 1667 1420 l 257
 2141 1420 l 257
 2141 946 l 257
 2477 610 l 257
 2141 274 l 257
 2141 -200 l 257
 1667 -200 l 257
 1331 -535 l 257
 996 -200 l 257
 521 -200 l 257
 521 275 l 257
 186 610 l 257
 521 945 l 257
 521 1420 l 257
 996 1420 l 257
 1331 1755 l 257
EndSplineSet
Refer: 1700 57390 N 1 0 0 1 891 171 2
EndChar

StartChar: uni06DF
Encoding: 1759 1759 987
GlifName: uni06D_F_
Width: 0
VWidth: 0
GlyphClass: 2
Flags: H
LayerCount: 2
Fore
SplineSet
-82 1464 m 256
 -82 1509 -45 1545 0 1545 c 256
 45 1545 82 1509 82 1464 c 256
 82 1419 45 1382 0 1382 c 256
 -45 1382 -82 1419 -82 1464 c 256
EndSplineSet
EndChar

StartChar: uni06E0
Encoding: 1760 1760 988
GlifName: uni06E_0
Width: 0
VWidth: 0
GlyphClass: 2
Flags: H
LayerCount: 2
Fore
SplineSet
-82 1382 m 257
 -82 1545 l 257
 82 1545 l 257
 82 1382 l 257
 -82 1382 l 257
EndSplineSet
EndChar

StartChar: uni06E9
Encoding: 1769 1769 997
GlifName: uni06E_9
Width: 1236
VWidth: 0
GlyphClass: 2
Flags: HW
LayerCount: 2
Fore
SplineSet
355 56 m 257
 355 698 l 257
 127 958 l 257
 618 1409 l 257
 1109 958 l 257
 881 698 l 257
 881 56 l 257
 1045 56 l 257
 1045 0 l 257
 191 0 l 257
 191 56 l 257
 355 56 l 257
819 722 m 257
 1025 947 l 257
 618 1316 l 257
 211 947 l 257
 417 722 l 257
 417 56 l 257
 819 56 l 257
 819 722 l 257
650 892 m 257
 650 202 l 257
 586 202 l 257
 586 892 l 257
 650 892 l 257
EndSplineSet
EndChar

StartChar: uni06F0
Encoding: 1776 1776 1005
GlifName: uni06F_0
Width: 867
VWidth: 0
GlyphClass: 2
Flags: HW
LayerCount: 2
Fore
SplineSet
433 639 m 256
 312 639 254 561 254 460 c 256
 254 359 313 279 433 279 c 256
 553 279 613 359 613 460 c 256
 613 560 554 639 433 639 c 256
433 727 m 256
 602 727 702 611 702 460 c 256
 702 310 603 191 433 191 c 256
 263 191 166 310 166 460 c 256
 166 610 264 727 433 727 c 256
EndSplineSet
PairPos2: "'kern' Horizontal Kerning in Arabic lookup 7 subtable" uni06F7 dx=-167 dy=0 dh=-167 dv=0 dx=0 dy=0 dh=0 dv=0
PairPos2: "'kern' Horizontal Kerning in Arabic lookup 7 subtable" uni06F3 dx=-111 dy=0 dh=-111 dv=0 dx=0 dy=0 dh=0 dv=0
PairPos2: "'kern' Horizontal Kerning in Arabic lookup 7 subtable" uni06F2 dx=-111 dy=0 dh=-111 dv=0 dx=0 dy=0 dh=0 dv=0
PairPos2: "'kern' Horizontal Kerning in Arabic lookup 7 subtable" uni06F1 dx=56 dy=0 dh=56 dv=0 dx=0 dy=0 dh=0 dv=0
Substitution2: "'tnum' Tabular Numbers lookup 22 subtable" uni06F0.tnum
EndChar

StartChar: uni06F4
Encoding: 1780 1780 1010
GlifName: uni06F_4
Width: 1179
VWidth: 0
GlyphClass: 2
Flags: HW
LayerCount: 2
Fore
SplineSet
793 1364 m 256
 853 1364 923 1349 992 1321 c 257
 961 1227 l 257
 903 1250 840 1262 787 1262 c 256
 589 1262 493 1105 488 857 c 257
 553 773 667 731 782 731 c 256
 866 731 951 753 1019 799 c 257
 1054 712 l 257
 963 660 868 634 775 634 c 256
 597 634 435 730 356 908 c 257
 439 664 468 322 468 0 c 257
 367 0 l 257
 367 505 313 876 127 1323 c 257
 228 1365 l 257
 285 1209 362 1032 425 928 c 257
 440 1192 570 1364 793 1364 c 256
EndSplineSet
PairPos2: "'kern' Horizontal Kerning in Arabic lookup 7 subtable" uni06F8 dx=-56 dy=0 dh=-56 dv=0 dx=0 dy=0 dh=0 dv=0
Substitution2: "'tnum' Tabular Numbers lookup 22 subtable" uni06F4.tnum
Substitution2: "'locl' Localized Forms in Arabic lookup 5 subtable" uni0664.urdu
EndChar

StartChar: uni06F5
Encoding: 1781 1781 1012
GlifName: uni06F_5
Width: 1408
VWidth: 0
GlyphClass: 2
Flags: HW
LayerCount: 2
Fore
SplineSet
707 192 m 257
 681 78 597 -1 470 -1 c 256
 298 -1 176 120 176 363 c 256
 176 588 268 886 611 1188 c 257
 572 1220 528 1253 486 1283 c 257
 540 1365 l 257
 601 1323 657 1276 713 1228 c 256
 1067 924 1234 643 1234 344 c 256
 1234 114 1109 -1 952 -1 c 256
 823 -1 735 78 707 192 c 257
666 374 m 257
 748 374 l 257
 750 330 l 258
 755 183 812 99 949 99 c 256
 1046 99 1137 152 1137 344 c 256
 1137 589 999 845 679 1131 c 257
 377 880 274 578 274 371 c 256
 274 170 365 99 473 99 c 256
 602 99 658 185 664 327 c 258
 666 374 l 257
EndSplineSet
PairPos2: "'kern' Horizontal Kerning in Arabic lookup 7 subtable" uni06F7 dx=-111 dy=0 dh=-111 dv=0 dx=0 dy=0 dh=0 dv=0
PairPos2: "'kern' Horizontal Kerning in Arabic lookup 7 subtable" uni06F3 dx=-56 dy=0 dh=-56 dv=0 dx=0 dy=0 dh=0 dv=0
PairPos2: "'kern' Horizontal Kerning in Arabic lookup 7 subtable" uni06F2 dx=-56 dy=0 dh=-56 dv=0 dx=0 dy=0 dh=0 dv=0
PairPos2: "'kern' Horizontal Kerning in Arabic lookup 7 subtable" uni06F1 dx=56 dy=0 dh=56 dv=0 dx=0 dy=0 dh=0 dv=0
Substitution2: "'tnum' Tabular Numbers lookup 22 subtable" uni06F5.tnum
EndChar

StartChar: uni06F6
Encoding: 1782 1782 1014
GlifName: uni06F_6
Width: 1139
VWidth: 0
GlyphClass: 2
Flags: HW
LayerCount: 2
Fore
SplineSet
713 636 m 257
 429 587 201 718 201 960 c 256
 201 1215 407 1364 612 1364 c 256
 724 1364 828 1324 906 1234 c 257
 846 1163 l 257
 786 1230 696 1263 606 1263 c 256
 453 1263 300 1160 300 963 c 256
 300 795 428 707 635 707 c 256
 739 707 841 732 960 765 c 258
 989 774 l 257
 1023 677 l 257
 998 671 l 257
 665 581 412 286 235 -20 c 257
 148 34 l 257
 277 273 507 548 713 636 c 257
EndSplineSet
Substitution2: "'tnum' Tabular Numbers lookup 22 subtable" uni0666.tnum
Substitution2: "'locl' Localized Forms in Arabic lookup 5 subtable" uni0666
EndChar

StartChar: uni1D00
Encoding: 7424 7424 1327
GlifName: uni1D_00
Width: 929
VWidth: 0
GlyphClass: 2
Flags: HW
LayerCount: 2
Fore
SplineSet
708 288 m 257
 214 288 l 257
 238 364 l 257
 686 364 l 257
 708 288 l 257
120 0 m 257
 16 0 l 257
 392 1008 l 257
 524 1008 l 257
 901 0 l 257
 797 0 l 257
 458 927 l 257
 120 0 l 257
EndSplineSet
EndChar

StartChar: uni1D01
Encoding: 7425 7425 1328
GlifName: uni1D_01
Width: 1164
VWidth: 0
GlyphClass: 2
Flags: HW
LayerCount: 2
Fore
SplineSet
250 364 m 257
 491 364 l 257
 491 924 l 257
 457 924 l 257
 250 364 l 257
120 0 m 257
 16 0 l 257
 392 1008 l 257
 1085 1008 l 257
 1085 922 l 257
 590 922 l 257
 590 544 l 257
 1042 544 l 257
 1042 464 l 257
 590 464 l 257
 590 85 l 257
 1085 85 l 257
 1085 0 l 257
 491 0 l 257
 491 288 l 257
 225 288 l 257
 120 0 l 257
EndSplineSet
EndChar

StartChar: uni1D04
Encoding: 7428 7428 1329
GlifName: uni1D_04
Width: 1066
VWidth: 0
GlyphClass: 2
Flags: HW
LayerCount: 2
Fore
SplineSet
563 1019 m 256
 782 1019 910 874 947 741 c 257
 859 724 l 257
 824 827 725 934 563 934 c 256
 331 934 220 751 220 504 c 256
 220 257 330 74 562 74 c 256
 725 74 824 181 859 284 c 257
 947 267 l 257
 910 134 782 -11 564 -11 c 256
 287 -11 123 185 123 504 c 256
 123 823 287 1019 563 1019 c 256
EndSplineSet
EndChar

StartChar: uni1D05
Encoding: 7429 7429 1330
GlifName: uni1D_05
Width: 1032
VWidth: 0
GlyphClass: 2
Flags: HW
LayerCount: 2
Fore
SplineSet
166 1008 m 257
 500 1008 l 258
 790 1008 941 802 941 504 c 256
 941 206 790 0 500 0 c 258
 166 0 l 257
 166 1008 l 257
266 930 m 257
 266 80 l 257
 495 80 l 258
 730 80 841 253 841 504 c 256
 841 755 730 930 495 930 c 258
 266 930 l 257
EndSplineSet
EndChar

StartChar: uni1D07
Encoding: 7431 7431 1331
GlifName: uni1D_07
Width: 839
VWidth: 0
GlyphClass: 2
Flags: HW
LayerCount: 2
Fore
SplineSet
760 84 m 257
 760 0 l 257
 166 0 l 257
 166 1008 l 257
 760 1008 l 257
 760 923 l 257
 266 923 l 257
 266 544 l 257
 717 544 l 257
 717 464 l 257
 266 464 l 257
 266 84 l 257
 760 84 l 257
EndSplineSet
EndChar

StartChar: uni1D0A
Encoding: 7434 7434 1332
GlifName: uni1D_0A_
Width: 658
VWidth: 0
GlyphClass: 2
Flags: HW
LayerCount: 2
Fore
SplineSet
87 11 m 257
 104 85 l 257
 130 79 173 73 215 73 c 256
 332 73 393 127 393 245 c 258
 393 1008 l 257
 493 1008 l 257
 493 235 l 258
 493 61 382 -10 229 -10 c 256
 180 -10 131 -2 87 11 c 257
EndSplineSet
EndChar

StartChar: uni1D0B
Encoding: 7435 7435 1333
GlifName: uni1D_0B_
Width: 935
VWidth: 0
GlyphClass: 2
Flags: HW
LayerCount: 2
Fore
SplineSet
166 1008 m 257
 266 1008 l 257
 266 428 l 257
 770 1008 l 257
 897 1008 l 257
 459 507 l 257
 897 0 l 257
 771 0 l 257
 393 431 l 257
 266 283 l 257
 266 0 l 257
 166 0 l 257
 166 1008 l 257
EndSplineSet
EndChar

StartChar: uni1D0D
Encoding: 7437 7437 1334
GlifName: uni1D_0D_
Width: 1434
VWidth: 0
GlyphClass: 2
Flags: HW
LayerCount: 2
Fore
SplineSet
266 0 m 257
 166 0 l 257
 166 1008 l 257
 320 1008 l 257
 697 75 l 257
 1115 1008 l 257
 1269 1008 l 257
 1269 0 l 257
 1168 0 l 257
 1168 908 l 257
 759 0 l 257
 633 0 l 257
 266 901 l 257
 266 0 l 257
EndSplineSet
EndChar

StartChar: uni1D0F
Encoding: 7439 7439 1335
GlifName: uni1D_0F_
Width: 1075
VWidth: 0
GlyphClass: 2
Flags: HW
LayerCount: 2
Fore
SplineSet
538 1019 m 256
 833 1019 986 805 986 504 c 256
 986 203 833 -11 538 -11 c 256
 243 -11 89 203 89 504 c 256
 89 805 243 1019 538 1019 c 256
538 935 m 256
 296 935 182 746 182 504 c 256
 182 262 296 73 538 73 c 256
 780 73 895 262 895 504 c 256
 895 746 780 935 538 935 c 256
EndSplineSet
EndChar

StartChar: uni1D18
Encoding: 7448 7448 1336
GlifName: uni1D_18
Width: 927
VWidth: 0
GlyphClass: 2
Flags: HW
LayerCount: 2
Fore
SplineSet
267 0 m 257
 166 0 l 257
 166 1008 l 257
 544 1008 l 258
 725 1008 839 895 839 724 c 256
 839 553 724 431 544 431 c 258
 267 431 l 257
 267 0 l 257
267 929 m 257
 267 509 l 257
 535 509 l 258
 676 509 738 595 738 724 c 256
 738 853 676 929 535 929 c 258
 267 929 l 257
EndSplineSet
EndChar

StartChar: uni1D1B
Encoding: 7451 7451 1337
GlifName: uni1D_1B_
Width: 989
VWidth: 0
GlyphClass: 2
Flags: HW
LayerCount: 2
Fore
SplineSet
546 0 m 257
 444 0 l 257
 444 920 l 257
 81 920 l 257
 81 1008 l 257
 908 1008 l 257
 908 920 l 257
 546 920 l 257
 546 0 l 257
EndSplineSet
EndChar

StartChar: uni1D1C
Encoding: 7452 7452 1338
GlifName: uni1D_1C_
Width: 1001
VWidth: 0
GlyphClass: 2
Flags: HW
LayerCount: 2
Fore
SplineSet
783 1008 m 257
 881 1008 l 257
 881 357 l 258
 881 123 729 -11 500 -11 c 256
 271 -11 121 123 121 357 c 258
 121 1008 l 257
 218 1008 l 257
 218 361 l 258
 218 181 325 72 500 72 c 256
 675 72 783 181 783 361 c 258
 783 1008 l 257
EndSplineSet
EndChar

StartChar: uni1D20
Encoding: 7456 7456 1339
GlifName: uni1D_20
Width: 916
VWidth: 0
GlyphClass: 2
Flags: HW
LayerCount: 2
Fore
SplineSet
120 1008 m 257
 459 81 l 257
 797 1008 l 257
 901 1008 l 257
 525 0 l 257
 392 0 l 257
 16 1008 l 257
 120 1008 l 257
EndSplineSet
EndChar

StartChar: uni1D21
Encoding: 7457 7457 1340
GlifName: uni1D_21
Width: 1461
VWidth: 0
GlyphClass: 2
Flags: HW
LayerCount: 2
Fore
SplineSet
48 1008 m 257
 148 1008 l 257
 416 85 l 257
 666 1008 l 257
 795 1008 l 257
 1046 85 l 257
 1312 1008 l 257
 1413 1008 l 257
 1127 0 l 257
 978 0 l 257
 730 906 l 257
 477 0 l 257
 334 0 l 257
 48 1008 l 257
EndSplineSet
EndChar

StartChar: uni1D22
Encoding: 7458 7458 1341
GlifName: uni1D_22
Width: 965
VWidth: 0
GlyphClass: 2
Flags: HW
LayerCount: 2
Fore
SplineSet
103 1008 m 257
 861 1008 l 257
 861 911 l 257
 202 87 l 257
 861 87 l 257
 861 0 l 257
 103 0 l 257
 103 99 l 257
 761 923 l 257
 103 923 l 257
 103 1008 l 257
EndSplineSet
EndChar

StartChar: uni1E9E
Encoding: 7838 7838 1495
GlifName: uni1E_9E_
Width: 1188
VWidth: 0
GlyphClass: 2
Flags: HW
LayerCount: 2
Fore
SplineSet
162 0 m 257
 162 894 l 258
 162 1196 304 1376 578 1378 c 256
 782 1378 967 1264 967 1038 c 256
 967 889 893 774 754 722 c 257
 944 684 1090 577 1090 337 c 256
 1090 127 975 -10 763 -10 c 256
 570 -10 441 88 441 288 c 257
 522 288 l 257
 522 142 617 74 754 74 c 256
 917 74 992 189 992 344 c 256
 992 595 794 676 546 676 c 257
 546 758 l 257
 791 758 869 905 869 1034 c 256
 869 1209 727 1292 578 1292 c 256
 369 1292 264 1148 264 901 c 258
 264 0 l 257
 162 0 l 257
EndSplineSet
EndChar

StartChar: uni200C
Encoding: 8204 8204 1584
GlifName: uni200C_
Width: 0
VWidth: 0
GlyphClass: 2
Flags: H
LayerCount: 2
Fore
SplineSet
34 1366 m 257
 34 -291 l 257
 -34 -291 l 257
 -34 1366 l 257
 34 1366 l 257
EndSplineSet
EndChar

StartChar: uni200D
Encoding: 8205 8205 1585
GlifName: uni200D_
Width: 0
VWidth: 0
GlyphClass: 2
Flags: H
LayerCount: 2
Fore
SplineSet
181 -284 m 257
 45 -147 l 257
 94 -98 l 257
 231 -234 l 257
 181 -284 l 257
-94 -8 m 257
 -231 128 l 257
 -181 178 l 257
 -45 41 l 257
 -94 -8 l 257
231 128 m 257
 -181 -284 l 257
 -231 -234 l 257
 181 178 l 257
 231 128 l 257
181 1029 m 257
 45 1166 l 257
 94 1215 l 257
 231 1079 l 257
 181 1029 l 257
-94 1305 m 257
 -231 1441 l 257
 -181 1491 l 257
 -45 1354 l 257
 -94 1305 l 257
231 1441 m 257
 -181 1029 l 257
 -231 1079 l 257
 181 1491 l 257
 231 1441 l 257
-34 1062 m 257
 34 1062 l 257
 34 145 l 257
 -34 145 l 257
 -34 1062 l 257
EndSplineSet
EndChar

StartChar: uni200E
Encoding: 8206 8206 1586
GlifName: uni200E_
Width: 0
VWidth: 0
GlyphClass: 2
Flags: H
LayerCount: 2
Fore
SplineSet
285 1040 m 257
 235 1090 l 257
 417 1271 l 257
 235 1452 l 257
 285 1502 l 257
 515 1271 l 257
 285 1040 l 257
286 -293 m 257
 236 -243 l 257
 418 -62 l 257
 236 119 l 257
 286 169 l 257
 516 -62 l 257
 286 -293 l 257
34 49 m 258
 34 5 68 -29 112 -29 c 258
 268 -29 l 257
 268 -97 l 257
 112 -97 l 258
 30 -97 -34 -33 -34 49 c 258
 -34 1159 l 258
 -34 1241 30 1305 112 1305 c 258
 268 1305 l 257
 268 1237 l 257
 112 1237 l 258
 68 1237 34 1203 34 1159 c 258
 34 49 l 258
EndSplineSet
EndChar

StartChar: uni200F
Encoding: 8207 8207 1587
GlifName: uni200F_
Width: 0
VWidth: 0
GlyphClass: 2
Flags: H
LayerCount: 2
Fore
SplineSet
-285 1040 m 257
 -515 1271 l 257
 -285 1502 l 257
 -235 1452 l 257
 -417 1271 l 257
 -235 1090 l 257
 -285 1040 l 257
-286 -293 m 257
 -516 -62 l 257
 -286 169 l 257
 -236 119 l 257
 -418 -62 l 257
 -236 -243 l 257
 -286 -293 l 257
-34 49 m 258
 -34 1159 l 258
 -34 1203 -68 1237 -112 1237 c 258
 -268 1237 l 257
 -268 1305 l 257
 -112 1305 l 258
 -30 1305 34 1241 34 1159 c 258
 34 49 l 258
 34 -33 -30 -97 -112 -97 c 258
 -268 -97 l 257
 -268 -29 l 257
 -112 -29 l 258
 -68 -29 -34 5 -34 49 c 258
EndSplineSet
EndChar

StartChar: uni202A
Encoding: 8234 8234 1592
GlifName: uni202A_
Width: 0
VWidth: 0
GlyphClass: 2
Flags: H
LayerCount: 2
Fore
SplineSet
-67 1032 m 257
 -116 1082 l 257
 66 1263 l 257
 -116 1444 l 257
 -67 1494 l 257
 164 1263 l 257
 -67 1032 l 257
-35 888 m 257
 34 888 l 257
 34 49 l 257
 -35 49 l 257
 -35 888 l 257
EndSplineSet
EndChar

StartChar: uni202B
Encoding: 8235 8235 1593
GlifName: uni202B_
Width: 0
VWidth: 0
GlyphClass: 2
Flags: H
LayerCount: 2
Fore
SplineSet
67 1032 m 257
 -164 1263 l 257
 67 1494 l 257
 116 1444 l 257
 -66 1263 l 257
 116 1082 l 257
 67 1032 l 257
-34 888 m 257
 35 888 l 257
 35 49 l 257
 -34 49 l 257
 -34 888 l 257
EndSplineSet
EndChar

StartChar: uni202C
Encoding: 8236 8236 1594
GlifName: uni202C_
Width: 0
VWidth: 0
GlyphClass: 2
Flags: H
LayerCount: 2
Fore
SplineSet
-230 1179 m 257
 0 1409 l 257
 231 1179 l 257
 182 1129 l 257
 0 1311 l 257
 -181 1129 l 257
 -230 1179 l 257
-35 934 m 257
 34 934 l 257
 34 49 l 257
 -35 49 l 257
 -35 934 l 257
EndSplineSet
EndChar

StartChar: uni202D
Encoding: 8237 8237 1595
GlifName: uni202D_
Width: 0
VWidth: 0
GlyphClass: 2
Flags: H
LayerCount: 2
Fore
SplineSet
75 1032 m 257
 26 1082 l 257
 207 1263 l 257
 26 1444 l 257
 75 1494 l 257
 306 1263 l 257
 75 1032 l 257
-159 1032 m 257
 -208 1082 l 257
 -27 1263 l 257
 -208 1444 l 257
 -159 1494 l 257
 72 1263 l 257
 -159 1032 l 257
-35 888 m 257
 34 888 l 257
 34 49 l 257
 -35 49 l 257
 -35 888 l 257
EndSplineSet
EndChar

StartChar: uni202E
Encoding: 8238 8238 1596
GlifName: uni202E_
Width: 0
VWidth: 0
GlyphClass: 2
Flags: H
LayerCount: 2
Fore
SplineSet
-75 1032 m 257
 -306 1263 l 257
 -75 1494 l 257
 -26 1444 l 257
 -207 1263 l 257
 -26 1082 l 257
 -75 1032 l 257
159 1032 m 257
 -72 1263 l 257
 159 1494 l 257
 208 1444 l 257
 27 1263 l 257
 208 1082 l 257
 159 1032 l 257
-34 888 m 257
 35 888 l 257
 35 49 l 257
 -34 49 l 257
 -34 888 l 257
EndSplineSet
EndChar

StartChar: uni2035
Encoding: 8245 8245 1598
GlifName: uni2035
Width: 448
VWidth: 0
GlyphClass: 2
Flags: HW
LayerCount: 2
Fore
SplineSet
222 1353 m 257
 324 928 l 257
 248 928 l 257
 124 1353 l 257
 222 1353 l 257
EndSplineSet
EndChar

StartChar: uni2070
Encoding: 8304 8304 1601
GlifName: uni2070
Width: 729
VWidth: 0
GlyphClass: 2
Flags: HW
LayerCount: 2
Fore
SplineSet
364 1724 m 256
 242 1724 212 1607 212 1455 c 256
 212 1303 242 1186 364 1186 c 256
 486 1186 518 1303 518 1455 c 256
 518 1607 486 1724 364 1724 c 256
364 1790 m 256
 531 1790 588 1642 588 1455 c 256
 588 1268 531 1122 364 1122 c 256
 197 1122 141 1268 141 1455 c 256
 141 1642 197 1790 364 1790 c 256
EndSplineSet
EndChar

StartChar: uni2074
Encoding: 8308 8308 1602
GlifName: uni2074
Width: 810
VWidth: 0
GlyphClass: 2
Flags: HW
LayerCount: 2
Fore
SplineSet
487 1321 m 257
 487 1673 l 257
 217 1321 l 257
 487 1321 l 257
487 1258 m 257
 141 1258 l 257
 141 1313 l 257
 491 1779 l 257
 557 1779 l 257
 557 1321 l 257
 669 1321 l 257
 669 1258 l 257
 557 1258 l 257
 557 1132 l 257
 487 1132 l 257
 487 1258 l 257
EndSplineSet
EndChar

StartChar: uni2075
Encoding: 8309 8309 1603
GlifName: uni2075
Width: 705
VWidth: 0
GlyphClass: 2
Flags: HW
LayerCount: 2
Fore
SplineSet
141 1311 m 257
 212 1311 l 257
 212 1233 256 1185 348 1185 c 256
 439 1185 495 1240 495 1344 c 256
 495 1444 443 1506 346 1506 c 256
 290 1506 244 1481 198 1439 c 257
 150 1464 l 257
 184 1779 l 257
 558 1779 l 257
 558 1716 l 257
 247 1716 l 257
 223 1530 l 257
 258 1554 304 1569 352 1569 c 256
 482 1569 564 1480 564 1346 c 256
 564 1206 474 1122 345 1122 c 256
 222 1122 141 1197 141 1311 c 257
EndSplineSet
EndChar

StartChar: uni2076
Encoding: 8310 8310 1604
GlifName: uni2076
Width: 704
VWidth: 0
GlyphClass: 2
Flags: HW
LayerCount: 2
Fore
SplineSet
363 1789 m 256
 481 1789 552 1710 552 1615 c 257
 487 1615 l 257
 487 1671 454 1726 362 1726 c 256
 243 1726 210 1595 206 1474 c 257
 243 1522 299 1553 364 1553 c 256
 483 1553 564 1464 564 1341 c 256
 564 1208 487 1122 361 1122 c 256
 198 1122 141 1246 141 1424 c 256
 141 1639 201 1789 363 1789 c 256
358 1488 m 256
 299 1488 248 1468 206 1396 c 257
 206 1268 248 1185 361 1185 c 256
 446 1185 494 1242 494 1337 c 256
 494 1426 443 1488 358 1488 c 256
EndSplineSet
EndChar

StartChar: uni2077
Encoding: 8311 8311 1605
GlifName: uni2077
Width: 749
VWidth: 0
GlyphClass: 2
Flags: HW
LayerCount: 2
Fore
SplineSet
608 1726 m 257
 489 1576 366 1367 366 1132 c 257
 296 1132 l 257
 296 1355 411 1573 520 1714 c 257
 141 1714 l 257
 141 1779 l 257
 594 1779 l 257
 608 1726 l 257
EndSplineSet
EndChar

StartChar: uni2078
Encoding: 8312 8312 1606
GlifName: uni2078
Width: 715
VWidth: 0
GlyphClass: 2
Flags: HW
LayerCount: 2
Fore
SplineSet
358 1789 m 256
 467 1789 546 1713 546 1615 c 256
 546 1555 514 1500 466 1467 c 257
 531 1429 574 1369 574 1300 c 256
 574 1196 492 1122 358 1122 c 256
 223 1122 141 1197 141 1302 c 256
 141 1371 183 1430 248 1468 c 257
 201 1501 169 1555 169 1615 c 256
 169 1714 249 1789 358 1789 c 256
358 1729 m 256
 288 1729 239 1678 239 1609 c 256
 239 1538 288 1493 358 1493 c 256
 427 1493 476 1538 476 1609 c 256
 476 1679 428 1729 358 1729 c 256
356 1434 m 256
 274 1434 212 1381 212 1303 c 256
 212 1225 267 1182 358 1182 c 256
 449 1182 504 1224 504 1302 c 256
 504 1379 440 1434 356 1434 c 256
EndSplineSet
EndChar

StartChar: uni2079
Encoding: 8313 8313 1607
GlifName: uni2079
Width: 704
VWidth: 0
GlyphClass: 2
Flags: HW
LayerCount: 2
Fore
SplineSet
498 1514 m 257
 498 1642 457 1726 344 1726 c 256
 259 1726 211 1669 211 1574 c 256
 211 1485 262 1422 347 1422 c 256
 406 1422 456 1442 498 1514 c 257
499 1436 m 257
 462 1388 406 1358 341 1358 c 256
 222 1358 141 1447 141 1570 c 256
 141 1703 218 1789 344 1789 c 256
 507 1789 564 1664 564 1486 c 256
 564 1271 504 1122 342 1122 c 256
 224 1122 153 1200 153 1295 c 257
 218 1295 l 257
 218 1239 250 1185 342 1185 c 256
 461 1185 495 1315 499 1436 c 257
EndSplineSet
EndChar

StartChar: uni2196
Encoding: 8598 8598 1629
GlifName: uni2196
Width: 1080
VWidth: 0
GlyphClass: 2
Flags: HW
LayerCount: 2
Fore
SplineSet
878 104 m 257
 250 732 l 257
 227 771 l 257
 227 386 l 257
 150 386 l 257
 150 884 l 257
 648 884 l 257
 648 807 l 257
 263 807 l 257
 302 785 l 257
 930 156 l 257
 878 104 l 257
EndSplineSet
EndChar

StartChar: uni2197
Encoding: 8599 8599 1630
GlifName: uni2197
Width: 1080
VWidth: 0
GlyphClass: 2
Flags: HW
LayerCount: 2
Fore
SplineSet
150 156 m 257
 778 785 l 257
 817 807 l 257
 432 807 l 257
 432 884 l 257
 930 884 l 257
 930 386 l 257
 854 386 l 257
 854 771 l 257
 831 732 l 257
 203 104 l 257
 150 156 l 257
EndSplineSet
EndChar

StartChar: uni2198
Encoding: 8600 8600 1631
GlifName: uni2198
Width: 1080
VWidth: 0
GlyphClass: 2
Flags: HW
LayerCount: 2
Fore
SplineSet
203 884 m 257
 831 256 l 257
 854 217 l 257
 854 602 l 257
 930 602 l 257
 930 104 l 257
 432 104 l 257
 432 180 l 257
 817 180 l 257
 778 203 l 257
 150 832 l 257
 203 884 l 257
EndSplineSet
EndChar

StartChar: uni2199
Encoding: 8601 8601 1632
GlifName: uni2199
Width: 1080
VWidth: 0
GlyphClass: 2
Flags: HW
LayerCount: 2
Fore
SplineSet
930 832 m 257
 302 203 l 257
 263 180 l 257
 648 180 l 257
 648 104 l 257
 150 104 l 257
 150 602 l 257
 227 602 l 257
 227 217 l 257
 250 256 l 257
 878 884 l 257
 930 832 l 257
EndSplineSet
EndChar

StartChar: uni220E
Encoding: 8718 8718 1633
GlifName: uni220E_
Width: 1049
VWidth: 0
GlyphClass: 2
Flags: HW
LayerCount: 2
Fore
SplineSet
204 1187 m 257
 846 1187 l 257
 846 0 l 257
 204 0 l 257
 204 1187 l 257
EndSplineSet
EndChar

StartChar: uni25CC
Encoding: 9676 9676 1634
GlifName: uni25C_C_
Width: 1702
VWidth: 0
GlyphClass: 2
Flags: HW
LayerCount: 2
Fore
SplineSet
790 91 m 256
 790 136 806 152 851 152 c 256
 896 152 912 136 912 91 c 256
 912 46 896 30 851 30 c 256
 806 30 790 46 790 91 c 256
790 1447 m 256
 790 1492 806 1508 851 1508 c 256
 896 1508 912 1492 912 1447 c 256
 912 1402 896 1386 851 1386 c 256
 806 1386 790 1402 790 1447 c 256
1529 708 m 256
 1484 708 1468 724 1468 769 c 256
 1468 814 1484 830 1529 830 c 256
 1574 830 1590 814 1590 769 c 256
 1590 724 1574 708 1529 708 c 256
173 708 m 256
 128 708 112 724 112 769 c 256
 112 814 128 830 173 830 c 256
 218 830 234 814 234 769 c 256
 234 724 218 708 173 708 c 256
1270 290 m 256
 1270 335 1285 350 1330 350 c 256
 1375 350 1390 335 1390 290 c 256
 1390 245 1375 230 1330 230 c 256
 1285 230 1270 245 1270 290 c 256
312 1248 m 256
 312 1293 327 1308 372 1308 c 256
 417 1308 432 1293 432 1248 c 256
 432 1203 417 1188 372 1188 c 256
 327 1188 312 1203 312 1248 c 256
1330 1188 m 256
 1285 1188 1270 1203 1270 1248 c 256
 1270 1293 1285 1308 1330 1308 c 256
 1375 1308 1390 1293 1390 1248 c 256
 1390 1203 1375 1188 1330 1188 c 256
372 230 m 256
 327 230 312 245 312 290 c 256
 312 335 327 350 372 350 c 256
 417 350 432 335 432 290 c 256
 432 245 417 230 372 230 c 256
532 143 m 256
 532 188 547 202 592 202 c 256
 637 202 652 188 652 143 c 256
 652 98 637 82 592 82 c 256
 547 82 532 98 532 143 c 256
1110 1456 m 256
 1155 1456 1170 1440 1170 1395 c 256
 1170 1350 1155 1336 1110 1336 c 256
 1065 1336 1050 1350 1050 1395 c 256
 1050 1440 1065 1456 1110 1456 c 256
1477 450 m 256
 1432 450 1418 465 1418 510 c 256
 1418 555 1432 570 1477 570 c 256
 1522 570 1538 555 1538 510 c 256
 1538 465 1522 450 1477 450 c 256
164 1028 m 256
 164 1073 180 1088 225 1088 c 256
 270 1088 284 1073 284 1028 c 256
 284 983 270 968 225 968 c 256
 180 968 164 983 164 1028 c 256
1050 143 m 256
 1050 188 1065 202 1110 202 c 256
 1155 202 1170 188 1170 143 c 256
 1170 98 1155 82 1110 82 c 256
 1065 82 1050 98 1050 143 c 256
532 1395 m 256
 532 1440 547 1456 592 1456 c 256
 637 1456 652 1440 652 1395 c 256
 652 1350 637 1336 592 1336 c 256
 547 1336 532 1350 532 1395 c 256
1477 968 m 256
 1432 968 1418 983 1418 1028 c 256
 1418 1073 1432 1088 1477 1088 c 256
 1522 1088 1538 1073 1538 1028 c 256
 1538 983 1522 968 1477 968 c 256
225 450 m 256
 180 450 164 465 164 510 c 256
 164 555 180 570 225 570 c 256
 270 570 284 555 284 510 c 256
 284 465 270 450 225 450 c 256
EndSplineSet
EndChar

StartChar: uniA729
Encoding: 42793 42793 1636
GlifName: uniA_729
Width: 1658
VWidth: 0
GlyphClass: 2
Flags: HW
LayerCount: 2
Fore
SplineSet
654 85 m 257
 670 11 l 257
 626 -2 577 -10 528 -10 c 256
 376 -10 256 61 256 235 c 258
 256 1296 l 257
 357 1296 l 257
 357 244 l 258
 357 126 425 73 542 73 c 256
 584 73 628 79 654 85 c 257
EndSplineSet
Refer: 1669 57354 N 1 0 0 1 -24 434 2
Refer: 560 658 N 1 0 0 1 583 0 2
EndChar

StartChar: uniA730
Encoding: 42800 42800 1637
GlifName: uniA_730
Width: 843
VWidth: 0
GlyphClass: 2
Flags: HW
LayerCount: 2
Fore
SplineSet
166 0 m 257
 166 1008 l 257
 760 1008 l 257
 760 922 l 257
 266 922 l 257
 266 535 l 257
 717 535 l 257
 717 457 l 257
 266 457 l 257
 266 0 l 257
 166 0 l 257
EndSplineSet
EndChar

StartChar: uniA731
Encoding: 42801 42801 1638
GlifName: uniA_731
Width: 876
VWidth: 0
GlyphClass: 2
Flags: HW
LayerCount: 2
Fore
SplineSet
86 278 m 257
 181 278 l 257
 181 132 302 72 448 72 c 256
 586 72 694 121 694 254 c 256
 694 383 610 413 428 469 c 256
 255 522 109 579 109 756 c 256
 109 918 245 1019 426 1019 c 256
 609 1019 769 910 769 734 c 257
 674 734 l 257
 674 869 566 937 430 937 c 256
 294 937 204 880 204 758 c 256
 204 642 288 601 460 552 c 256
 651 498 790 441 790 258 c 256
 790 82 636 -11 450 -11 c 256
 260 -11 86 87 86 278 c 257
EndSplineSet
EndChar

StartChar: uniA733
Encoding: 42803 42803 1640
GlifName: uniA_733
Width: 1718
VWidth: 0
GlyphClass: 2
Flags: HW
LayerCount: 2
Fore
SplineSet
508 1017 m 256
 722 1017 881 916 881 718 c 258
 881 268 l 257
 780 265 l 257
 780 718 l 258
 780 867 660 934 506 934 c 256
 352 934 231 867 231 718 c 257
 138 718 l 257
 136 917 294 1017 508 1017 c 256
1170 1017 m 256
 1384 1017 1556 916 1556 718 c 258
 1556 229 l 258
 1556 129 1586 75 1693 75 c 257
 1694 -0 l 257
 1543 -6 1454 65 1454 226 c 258
 1454 718 l 258
 1454 867 1322 934 1168 934 c 256
 1014 934 881 867 881 718 c 257
 788 718 l 257
 786 917 956 1017 1170 1017 c 256
EndSplineSet
Refer: 1670 57355 N 1 0 0 1 676 0 2
Refer: 1670 57355 N 1 0 0 1 -2 0 2
EndChar

StartChar: uniA735
Encoding: 42805 42805 1642
GlifName: uniA_735
Width: 1783
VWidth: 0
GlyphClass: 2
Flags: HW
LayerCount: 2
Fore
SplineSet
780 258 m 257
 780 718 l 258
 780 867 660 934 506 934 c 256
 352 934 230 867 230 718 c 257
 138 718 l 257
 136 917 294 1017 508 1017 c 256
 722 1017 881 916 881 718 c 258
 881 257 l 257
 780 258 l 257
110 263 m 256
 110 479 276 558 489 558 c 258
 875 558 l 257
 875 486 l 257
 492 486 l 258
 325 486 206 425 206 273 c 256
 206 150 268 71 432 71 c 256
 625 71 759 228 792 282 c 257
 835 263 l 257
 799 181 642 -12 401 -12 c 256
 224 -12 110 84 110 263 c 256
EndSplineSet
Refer: 324 111 N 1 0 0 1 693 0 2
EndChar

StartChar: uniA736
Encoding: 42806 42806 1643
GlifName: uniA_736
Width: 1840
VWidth: 0
GlyphClass: 2
Flags: HW
LayerCount: 2
Fore
SplineSet
1571 1354 m 257
 1673 1354 l 257
 1673 489 l 258
 1673 181 1477 0 1170 0 c 257
 1113 88 l 257
 1170 88 l 258
 1415 88 1571 235 1571 489 c 258
 1571 1354 l 257
EndSplineSet
Refer: 0 65 N 1 0 0 1 0 0 2
EndChar

StartChar: uniA737
Encoding: 42807 42807 1644
GlifName: uniA_737
Width: 1744
VWidth: 0
GlyphClass: 2
Flags: HW
LayerCount: 2
Fore
SplineSet
138 718 m 257
 136 917 294 1017 508 1017 c 256
 722 1017 881 916 881 718 c 258
 881 373 l 258
 881 204 968 84 1132 84 c 256
 1344 84 1447 269 1478 486 c 257
 1508 424 l 257
 1475 189 1344 -9 1095 -9 c 256
 891 -9 780 141 780 356 c 258
 780 718 l 258
 780 867 660 934 506 934 c 256
 352 934 230 867 230 718 c 257
 138 718 l 257
1478 1008 m 257
 1578 1008 l 257
 1578 0 l 257
 1481 0 l 257
 1478 302 l 257
 1478 1008 l 257
857 558 m 257
 857 486 l 257
 492 486 l 258
 325 486 206 425 206 273 c 256
 206 150 268 71 432 71 c 256
 625 71 759 228 792 282 c 257
 835 263 l 257
 799 181 642 -12 401 -12 c 256
 224 -12 110 84 110 263 c 256
 110 479 276 558 489 558 c 258
 857 558 l 257
EndSplineSet
EndChar

StartChar: uniA738
Encoding: 42808 42808 1645
GlifName: uniA_738
Width: 1725
VWidth: 0
GlyphClass: 2
Flags: HW
LayerCount: 2
Fore
SplineSet
304 485 m 257
 884 485 l 257
 595 1262 l 257
 304 485 l 257
274 399 m 257
 125 0 l 257
 18 0 l 257
 530 1353 l 257
 660 1353 l 257
 1131 91 l 257
 1600 1353 l 257
 1708 1353 l 257
 1195 0 l 257
 1063 0 l 257
 914 399 l 257
 274 399 l 257
EndSplineSet
EndChar

StartChar: uniA739
Encoding: 42809 42809 1646
GlifName: uniA_739
Width: 1604
VWidth: 0
GlyphClass: 2
Flags: HW
LayerCount: 2
Fore
SplineSet
138 718 m 257
 136 917 294 1017 508 1017 c 256
 680 1017 815 952 863 824 c 258
 1145 90 l 257
 1487 1008 l 257
 1592 1008 l 257
 1214 0 l 257
 1075 0 l 257
 768 795 l 258
 731 889 629 934 506 934 c 256
 352 934 230 867 230 718 c 257
 138 718 l 257
900 558 m 257
 900 486 l 257
 492 486 l 258
 325 486 206 425 206 273 c 256
 206 150 268 71 432 71 c 256
 625 71 759 228 792 282 c 257
 835 263 l 257
 799 181 642 -12 401 -12 c 256
 224 -12 110 84 110 263 c 256
 110 479 276 558 489 558 c 258
 900 558 l 257
EndSplineSet
EndChar

StartChar: uniA73A
Encoding: 42810 42810 1647
GlifName: uniA_73A_
Width: 1725
VWidth: 0
GlyphClass: 2
Flags: HW
LayerCount: 2
Fore
SplineSet
781 954 m 257
 1478 954 l 257
 1478 868 l 257
 781 868 l 257
 781 954 l 257
304 485 m 257
 884 485 l 257
 595 1262 l 257
 304 485 l 257
274 399 m 257
 125 0 l 257
 18 0 l 257
 530 1353 l 257
 660 1353 l 257
 1131 91 l 257
 1600 1353 l 257
 1708 1353 l 257
 1195 0 l 257
 1063 0 l 257
 914 399 l 257
 274 399 l 257
EndSplineSet
EndChar

StartChar: uniA73B
Encoding: 42811 42811 1648
GlifName: uniA_73B_
Width: 1604
VWidth: 0
GlyphClass: 2
Flags: HW
LayerCount: 2
Fore
SplineSet
877 733 m 257
 1402 733 l 257
 1402 661 l 257
 886 661 l 257
 877 733 l 257
138 718 m 257
 136 917 294 1017 508 1017 c 256
 680 1017 815 952 863 824 c 258
 1145 90 l 257
 1487 1008 l 257
 1592 1008 l 257
 1214 0 l 257
 1075 0 l 257
 768 795 l 258
 731 889 629 934 506 934 c 256
 352 934 230 867 230 718 c 257
 138 718 l 257
900 558 m 257
 900 486 l 257
 492 486 l 258
 325 486 206 425 206 273 c 256
 206 150 268 71 432 71 c 256
 625 71 759 228 792 282 c 257
 835 263 l 257
 799 181 642 -12 401 -12 c 256
 224 -12 110 84 110 263 c 256
 110 479 276 558 489 558 c 258
 900 558 l 257
EndSplineSet
EndChar

StartChar: uniA73C
Encoding: 42812 42812 1649
GlifName: uniA_73C_
Width: 1681
VWidth: 0
GlyphClass: 2
Flags: HW
LayerCount: 2
Fore
SplineSet
599 1273 m 257
 304 485 l 257
 1062 485 l 257
 1062 582 l 257
 599 1273 l 257
530 1353 m 257
 662 1353 l 257
 1113 680 l 257
 1565 1353 l 257
 1680 1353 l 257
 1163 582 l 257
 1163 0 l 257
 1062 0 l 257
 1062 399 l 257
 274 399 l 257
 125 0 l 257
 18 0 l 257
 530 1353 l 257
EndSplineSet
EndChar

StartChar: uniA73D
Encoding: 42813 42813 1650
GlifName: uniA_73D_
Width: 1604
VWidth: 0
GlyphClass: 2
Flags: HW
LayerCount: 2
Fore
SplineSet
138 718 m 257
 136 917 294 1017 508 1017 c 256
 680 1017 815 952 863 824 c 258
 1145 90 l 257
 1487 1008 l 257
 1592 1008 l 257
 1035 -475 l 257
 910 -475 l 257
 1093 -38 l 257
 768 795 l 258
 731 889 629 934 506 934 c 256
 352 934 230 867 230 718 c 257
 138 718 l 257
900 558 m 257
 900 486 l 257
 492 486 l 258
 325 486 206 425 206 273 c 256
 206 150 268 71 432 71 c 256
 625 71 759 228 792 282 c 257
 835 263 l 257
 799 181 642 -12 401 -12 c 256
 224 -12 110 84 110 263 c 256
 110 479 276 558 489 558 c 258
 900 558 l 257
EndSplineSet
EndChar

StartChar: uniA760
Encoding: 42848 42848 1653
GlifName: uniA_760
Width: 2198
VWidth: 0
GlyphClass: 2
Flags: HW
LayerCount: 2
Fore
SplineSet
2082 1353 m 257
 2197 1353 l 257
 1680 582 l 257
 1680 0 l 257
 1578 0 l 257
 1578 582 l 257
 1131 1249 l 257
 658 0 l 257
 528 0 l 257
 18 1353 l 257
 125 1353 l 257
 593 91 l 257
 1063 1353 l 257
 1179 1353 l 257
 1630 680 l 257
 2082 1353 l 257
EndSplineSet
EndChar

StartChar: uniA761
Encoding: 42849 42849 1654
GlifName: uniA_761
Width: 1730
VWidth: 0
GlyphClass: 2
Flags: HW
LayerCount: 2
Fore
SplineSet
920 1008 m 257
 1272 90 l 257
 1613 1008 l 257
 1718 1008 l 257
 1162 -475 l 257
 1037 -475 l 257
 1220 -38 l 257
 866 868 l 257
 540 0 l 257
 401 0 l 257
 13 1008 l 257
 119 1008 l 257
 471 90 l 257
 813 1008 l 257
 920 1008 l 257
EndSplineSet
EndChar

StartChar: uniAB50
Encoding: 43856 43856 1657
GlifName: uniA_B_50
Width: 1816
VWidth: 0
GlyphClass: 2
Flags: HW
LayerCount: 2
Fore
SplineSet
852 504 m 257
 953 504 l 257
 953 373 l 258
 953 204 1040 84 1204 84 c 256
 1416 84 1519 269 1550 486 c 257
 1580 424 l 257
 1547 189 1417 -9 1168 -9 c 256
 964 -9 852 141 852 356 c 258
 852 504 l 257
1550 1008 m 257
 1651 1008 l 257
 1651 0 l 257
 1553 0 l 257
 1550 302 l 257
 1550 1008 l 257
EndSplineSet
Refer: 1672 57357 N -1 0 0 -1 1125 1008 2
Refer: 357 46 N 1 0 0 1 610 829 2
EndChar

StartChar: uniAB5B
Encoding: 43867 43867 1658
GlifName: uniA_B_5B_
Width: 899
VWidth: 0
GlyphClass: 2
Flags: HW
LayerCount: 2
Fore
SplineSet
450 1447 m 256
 642 1447 761 1325 761 1132 c 257
 699 1132 l 257
 699 1293 610 1384 450 1384 c 256
 290 1384 201 1293 201 1132 c 257
 139 1132 l 257
 139 1325 258 1447 450 1447 c 256
EndSplineSet
EndChar

StartChar: uniE000
Encoding: 57344 57344 1659
GlifName: uniE_000
Width: 132
VWidth: 0
GlyphClass: 2
Flags: HW
LayerCount: 2
Fore
SplineSet
0 101 m 258
 134 101 l 257
 134 0 l 257
 0 0 l 258
 -28 0 -51 23 -51 51 c 256
 -51 79 -28 101 0 101 c 258
EndSplineSet
EndChar

StartChar: uniE001
Encoding: 57345 57345 1660
GlifName: uniE_001
Width: 353
VWidth: 0
GlyphClass: 2
Flags: HW
LayerCount: 2
Fore
SplineSet
0 101 m 258
 356 101 l 257
 356 0 l 257
 0 0 l 258
 -28 0 -51 23 -51 51 c 256
 -51 79 -28 101 0 101 c 258
EndSplineSet
EndChar

StartChar: uniE002
Encoding: 57346 57346 1661
GlifName: uniE_002
Width: 497
VWidth: 0
GlyphClass: 2
Flags: HW
LayerCount: 2
Fore
SplineSet
0 101 m 258
 500 101 l 257
 500 0 l 257
 0 0 l 258
 -28 0 -51 23 -51 51 c 256
 -51 79 -28 101 0 101 c 258
EndSplineSet
EndChar

StartChar: uniE003
Encoding: 57347 57347 1662
GlifName: uniE_003
Width: 1950
VWidth: 0
GlyphClass: 2
Flags: HW
LayerCount: 2
Fore
SplineSet
1280 1376 m 257
 1337 1323 l 257
 198 -57 l 257
 139 -4 l 257
 1280 1376 l 257
EndSplineSet
EndChar

StartChar: uniE004
Encoding: 57348 57348 1663
GlifName: uniE_004
Width: 1083
VWidth: 0
GlyphClass: 2
Flags: HW
LayerCount: 2
Fore
SplineSet
160 -46 m 257
 97 1 l 257
 904 1050 l 257
 967 1004 l 257
 160 -46 l 257
EndSplineSet
EndChar

StartChar: uniE005
Encoding: 57349 57349 1664
GlifName: uniE_005
Width: 1523
VWidth: 0
GlyphClass: 2
Flags: HW
LayerCount: 2
Fore
SplineSet
1223 -170 m 257
 1114 -170 l 257
 829 327 l 257
 904 371 l 257
 1223 -170 l 257
EndSplineSet
EndChar

StartChar: uniE006
Encoding: 57350 57350 1665
GlifName: uniE_006
Width: 1141
VWidth: 0
GlyphClass: 2
Flags: HW
LayerCount: 2
Fore
SplineSet
199 158 m 257
 199 238 l 257
 942 238 l 257
 942 158 l 257
 199 158 l 257
199 438 m 257
 199 518 l 257
 942 518 l 257
 942 438 l 257
 199 438 l 257
EndSplineSet
EndChar

StartChar: uniE007
Encoding: 57351 57351 1666
GlifName: uniE_007
Width: 967
VWidth: 0
GlyphClass: 2
Flags: HW
LayerCount: 2
Fore
SplineSet
361 1186 m 256
 325 1186 287 1189 255 1194 c 257
 268 1255 l 257
 296 1249 333 1247 368 1247 c 256
 454 1247 564 1271 564 1355 c 256
 564 1397 508 1414 456 1427 c 256
 382 1445 307 1468 307 1564 c 256
 307 1677 395 1755 507 1755 c 256
 546 1755 581 1745 613 1732 c 257
 590 1676 l 257
 566 1686 539 1694 509 1694 c 256
 433 1694 365 1649 365 1571 c 256
 365 1513 416 1500 480 1485 c 256
 552 1467 622 1445 622 1359 c 256
 622 1236 493 1186 361 1186 c 256
EndSplineSet
EndChar

StartChar: uniE008
Encoding: 57352 57352 1667
GlifName: uniE_008
Width: 1520
VWidth: 0
GlyphClass: 2
Flags: HW
LayerCount: 2
Fore
SplineSet
606 1228 m 256
 606 1322 534 1406 435 1406 c 256
 336 1406 264 1322 264 1228 c 256
 264 1132 339 1052 435 1052 c 256
 531 1052 606 1132 606 1228 c 256
683 1227 m 256
 683 1089 578 974 435 974 c 256
 292 974 182 1089 182 1227 c 256
 182 1360 287 1486 435 1486 c 256
 583 1486 683 1360 683 1227 c 256
EndSplineSet
EndChar

StartChar: uniE009
Encoding: 57353 57353 1668
GlifName: uniE_009
Width: 1267
VWidth: 0
GlyphClass: 2
Flags: HW
LayerCount: 2
Fore
SplineSet
600 1570 m 257
 672 1570 l 257
 672 -228 l 257
 600 -228 l 257
 600 1570 l 257
EndSplineSet
EndChar

StartChar: uniE00A
Encoding: 57354 57354 1669
GlifName: uniE_00A_
Width: 1343
VWidth: 0
GlyphClass: 2
Flags: HW
LayerCount: 2
Fore
SplineSet
112 499 m 257
 112 576 l 257
 670 576 l 257
 670 499 l 257
 112 499 l 257
EndSplineSet
EndChar

StartChar: uniE00B
Encoding: 57355 57355 1670
GlifName: uniE_00B_
Width: 1225
VWidth: 0
GlyphClass: 2
Flags: HW
LayerCount: 2
Fore
SplineSet
843 262 m 257
 803 170 683 -11 410 -11 c 256
 220 -11 112 89 112 259 c 256
 112 475 270 583 509 583 c 256
 629 583 731 572 831 544 c 257
 800 477 l 257
 716 500 634 507 517 507 c 256
 321 507 207 420 207 270 c 256
 207 145 273 72 440 72 c 256
 657 72 764 230 798 283 c 257
 843 262 l 257
EndSplineSet
EndChar

StartChar: uniE00C
Encoding: 57356 57356 1671
GlifName: uniE_00C_
Width: 1717
VWidth: 0
GlyphClass: 2
Flags: HW
LayerCount: 2
Fore
SplineSet
1551 654 m 258
 1551 0 l 257
 1450 0 l 257
 1450 646 l 258
 1450 814 1373 924 1237 924 c 256
 1035 924 940 744 909 523 c 257
 876 584 l 257
 906 823 1032 1017 1261 1017 c 256
 1440 1017 1551 872 1551 654 c 258
EndSplineSet
EndChar

StartChar: uniE00D
Encoding: 57357 57357 1672
GlifName: uniE_00D_
Width: 1196
VWidth: 0
GlyphClass: 2
Flags: HW
LayerCount: 2
Fore
SplineSet
971 648 m 258
 971 0 l 257
 870 0 l 257
 870 641 l 258
 870 819 776 924 620 924 c 256
 437 924 311 780 273 523 c 257
 243 584 l 257
 282 855 434 1017 642 1017 c 256
 847 1017 971 876 971 648 c 258
EndSplineSet
EndChar

StartChar: uniE00E
Encoding: 57358 57358 1673
GlifName: uniE_00E_
Width: 839
VWidth: 0
GlyphClass: 2
Flags: HW
LayerCount: 2
Fore
SplineSet
733 916 m 257
 719 922 686 928 652 928 c 256
 414 928 300 711 269 474 c 257
 229 517 l 257
 262 772 391 1018 666 1018 c 256
 695 1018 722 1014 747 1008 c 257
 733 916 l 257
EndSplineSet
EndChar

StartChar: uniE00F
Encoding: 57359 57359 1674
GlifName: uniE_00F_
Width: 1282
VWidth: 0
GlyphClass: 2
Flags: HW
LayerCount: 2
Fore
SplineSet
1024 503 m 256
 1024 194 863 -11 625 -11 c 256
 482 -11 347 63 251 205 c 257
 292 244 l 257
 370 133 489 74 602 74 c 256
 790 74 922 234 922 503 c 256
 922 773 790 933 602 933 c 256
 489 933 370 874 292 763 c 257
 251 802 l 257
 347 944 482 1017 625 1017 c 256
 863 1017 1024 813 1024 503 c 256
EndSplineSet
EndChar

StartChar: uniE010
Encoding: 57360 57360 1675
GlifName: uniE_010
Width: 1617
VWidth: 0
GlyphClass: 2
Flags: HW
LayerCount: 2
Fore
SplineSet
1232 -184 m 257
 1118 -184 l 257
 987 69 l 257
 1050 106 l 257
 1232 -184 l 257
EndSplineSet
EndChar

StartChar: uniE011
Encoding: 57361 57361 1676
GlifName: uniE_011
Width: 1040
VWidth: 0
GlyphClass: 2
Flags: HW
LayerCount: 2
Fore
SplineSet
493 1360 m 257
 594 1360 l 257
 594 961 l 257
 493 961 l 257
 493 1360 l 257
493 28 m 257
 594 28 l 257
 594 -438 l 257
 493 -438 l 257
 493 28 l 257
EndSplineSet
EndChar

StartChar: uniE012
Encoding: 57362 57362 1677
GlifName: uniE_012
Width: 1542
VWidth: 0
GlyphClass: 2
Flags: HW
LayerCount: 2
Fore
SplineSet
1147 1181 m 257
 1313 1376 l 257
 1369 1323 l 257
 1186 1110 l 257
 1147 1181 l 257
402 151 m 257
 230 -57 l 257
 172 -4 l 257
 360 220 l 257
 402 151 l 257
EndSplineSet
EndChar

StartChar: uniE013
Encoding: 57363 57363 1678
GlifName: uniE_013
Width: 1035
VWidth: 0
GlyphClass: 2
Flags: HW
LayerCount: 2
Fore
SplineSet
800 896 m 257
 918 1050 l 257
 981 1004 l 257
 853 838 l 257
 800 896 l 257
293 109 m 257
 173 -46 l 257
 111 1 l 257
 241 169 l 257
 293 109 l 257
EndSplineSet
EndChar

StartChar: uniE014
Encoding: 57364 57364 1679
GlifName: uniE_014
Width: 1141
VWidth: 0
GlyphClass: 2
Flags: HW
LayerCount: 2
Fore
SplineSet
199 298 m 257
 199 378 l 257
 942 378 l 257
 942 298 l 257
 199 298 l 257
EndSplineSet
EndChar

StartChar: uniE015
Encoding: 57365 57365 1680
GlifName: uniE_015
Width: 1431
VWidth: 0
GlyphClass: 2
Flags: HW
LayerCount: 2
Fore
SplineSet
1361 1035 m 257
 1361 969 l 257
 71 969 l 257
 71 1035 l 257
 1361 1035 l 257
EndSplineSet
EndChar

StartChar: uniE016
Encoding: 57366 57366 1681
GlifName: uniE_016
Width: 411
VWidth: 0
GlyphClass: 2
Flags: HW
LayerCount: 2
Fore
SplineSet
91 929 m 257
 91 1000 l 257
 321 1000 l 257
 321 929 l 257
 91 929 l 257
EndSplineSet
EndChar

StartChar: uniE017
Encoding: 57367 57367 1682
GlifName: uniE_017
Width: 547
VWidth: 0
GlyphClass: 2
Flags: HW
LayerCount: 2
Fore
SplineSet
493 882 m 257
 526 822 l 257
 54 568 l 257
 22 628 l 257
 493 882 l 257
EndSplineSet
EndChar

StartChar: uniE018
Encoding: 57368 57368 1683
GlifName: uniE_018
Width: 1142
VWidth: 0
GlyphClass: 2
Flags: HW
LayerCount: 2
Fore
SplineSet
242 73 m 257
 156 73 l 257
 901 1102 l 257
 987 1102 l 257
 242 73 l 257
EndSplineSet
EndChar

StartChar: uniE019
Encoding: 57369 57369 1684
GlifName: uniE_019
Width: 1436
VWidth: 0
GlyphClass: 2
Flags: HW
LayerCount: 2
Fore
SplineSet
519 -62 m 257
 616 34 l 257
 712 -62 l 257
 616 -159 l 257
 519 -62 l 257
839 -63 m 257
 936 33 l 257
 1032 -63 l 257
 936 -160 l 257
 839 -63 l 257
680 -307 m 257
 775 -212 l 257
 870 -307 l 257
 775 -402 l 257
 680 -307 l 257
EndSplineSet
EndChar

StartChar: uniE01A
Encoding: 57370 57370 1685
GlifName: uniE_01A_
Width: 1093
VWidth: 0
GlyphClass: 2
Flags: HW
LayerCount: 2
Fore
SplineSet
246 224 m 257
 208 292 l 257
 852 1128 l 257
 881 1048 l 257
 246 224 l 257
EndSplineSet
EndChar

StartChar: uniE020
Encoding: 57376 57376 1686
GlifName: uniE_020
Width: 910
VWidth: 0
GlyphClass: 2
Flags: HW
LayerCount: 2
Fore
SplineSet
153 406 m 256
 153 595 301 724 461 724 c 256
 555 724 633 691 709 619 c 257
 666 569 l 257
 604 626 540 652 464 652 c 256
 337 652 227 551 227 409 c 256
 227 278 335 204 492 204 c 256
 574 204 656 221 766 260 c 257
 789 194 l 257
 141 -11 l 257
 121 58 l 257
 436 156 l 257
 273 162 153 258 153 406 c 256
EndSplineSet
EndChar

StartChar: uniE021
Encoding: 57377 57377 1687
GlifName: uniE_021
Width: 497
VWidth: 0
GlyphClass: 2
Flags: HW
LayerCount: 2
Fore
SplineSet
572 1743 m 257
 631 1713 l 257
 572 1590 499 1546 408 1546 c 256
 344 1546 280 1572 226 1598 c 256
 178 1621 132 1640 89 1640 c 256
 12 1640 -37 1565 -78 1500 c 257
 -132 1533 l 257
 -59 1665 21 1714 93 1714 c 256
 145 1714 200 1690 254 1666 c 256
 309 1642 365 1618 417 1618 c 256
 478 1618 526 1650 572 1743 c 257
299 1324 m 257
 299 0 l 257
 198 0 l 257
 198 1324 l 257
 299 1324 l 257
EndSplineSet
EndChar

StartChar: uniE022
Encoding: 57378 57378 1688
GlifName: uniE_022
Width: 497
VWidth: 0
GlyphClass: 2
Flags: HW
LayerCount: 2
Fore
SplineSet
299 0 m 257
 198 0 l 257
 198 1324 l 257
 299 1324 l 257
 299 0 l 257
EndSplineSet
EndChar

StartChar: uniE023
Encoding: 57379 57379 1689
GlifName: uniE_023
Width: 1336
VWidth: 0
GlyphClass: 2
Flags: HW
LayerCount: 2
Fore
SplineSet
468 767 m 256
 553 767 642 728 759 673 c 256
 882 615 1012 558 1167 530 c 257
 1165 402 l 257
 740 292 222 71 222 -311 c 256
 222 -554 467 -665 744 -665 c 256
 902 -665 1058 -628 1179 -580 c 257
 1217 -677 l 257
 1080 -733 916 -773 746 -773 c 256
 405 -773 121 -623 121 -318 c 256
 121 87 569 325 1040 467 c 257
 905 491 795 543 699 589 c 256
 608 633 537 666 473 666 c 256
 348 666 293 573 266 450 c 258
 260 423 l 257
 170 441 l 257
 177 470 l 258
 212 642 299 767 468 767 c 256
EndSplineSet
EndChar

StartChar: uniE024
Encoding: 57380 57380 1690
GlifName: uniE_024
Width: 1001
VWidth: 0
GlyphClass: 2
Flags: HW
LayerCount: 2
Fore
SplineSet
880 346 m 256
 880 74 617 -9 378 -9 c 256
 289 -9 200 2 111 26 c 257
 134 123 l 257
 216 101 298 92 379 92 c 256
 623 92 780 175 780 348 c 256
 780 496 669 663 438 872 c 257
 506 952 l 257
 744 738 880 538 880 346 c 256
EndSplineSet
EndChar

StartChar: uniE025
Encoding: 57381 57381 1691
GlifName: uniE_025
Width: 736
VWidth: 0
GlyphClass: 2
Flags: HW
LayerCount: 2
Fore
SplineSet
414 556 m 257
 512 586 l 257
 577 358 605 208 605 77 c 256
 605 -231 441 -418 35 -576 c 257
 -6 -483 l 257
 363 -339 503 -186 503 74 c 256
 503 195 476 341 414 556 c 257
EndSplineSet
EndChar

StartChar: uniE026
Encoding: 57382 57382 1692
GlifName: uniE_026
Width: 2500
VWidth: 0
GlyphClass: 2
Flags: HW
LayerCount: 2
Fore
SplineSet
1547 0 m 256
 1420 0 1355 54 1309 144 c 257
 1358 -297 1179 -513 732 -513 c 256
 308 -513 121 -325 121 47 c 256
 121 204 154 397 190 523 c 257
 283 497 l 257
 252 384 221 209 221 64 c 256
 221 -282 387 -411 727 -411 c 256
 1094 -411 1226 -262 1226 20 c 256
 1226 159 1191 348 1144 524 c 257
 1243 557 l 257
 1281 395 l 258
 1320 213 1384 101 1553 101 c 256
 1687 101 1756 177 1772 360 c 258
 1787 539 l 257
 1883 530 l 257
 1870 368 l 258
 1855 184 1935 101 2083 101 c 256
 2215 101 2280 183 2280 341 c 256
 2280 409 2268 523 2252 601 c 257
 2352 626 l 257
 2369 544 2381 422 2381 340 c 256
 2381 114 2282 0 2091 0 c 256
 1942 0 1846 71 1818 196 c 257
 1784 67 1683 0 1547 0 c 256
EndSplineSet
EndChar

StartChar: uniE027
Encoding: 57383 57383 1693
GlifName: uniE_027
Width: 2414
VWidth: 0
GlyphClass: 2
Flags: HW
LayerCount: 2
Fore
SplineSet
1949 599 m 256
 1811 599 1631 498 1394 145 c 257
 1476 112 1582 101 1704 101 c 256
 1941 101 2185 141 2185 369 c 256
 2185 503 2096 599 1949 599 c 256
1958 700 m 256
 2171 700 2293 555 2293 369 c 256
 2293 77 2016 0 1698 0 c 256
 1541 0 1415 20 1321 60 c 257
 1330 -329 1149 -510 729 -510 c 256
 308 -510 121 -323 121 43 c 256
 121 206 154 400 190 526 c 257
 283 499 l 257
 252 386 221 212 221 49 c 256
 221 -279 387 -408 728 -408 c 256
 1094 -408 1226 -259 1226 25 c 256
 1226 161 1194 327 1144 516 c 257
 1243 554 l 257
 1273 446 1296 314 1310 185 c 257
 1561 562 1774 700 1958 700 c 256
EndSplineSet
EndChar

StartChar: uniE028
Encoding: 57384 57384 1694
GlifName: uniE_028
Width: 1604
VWidth: 0
GlyphClass: 2
Flags: HW
LayerCount: 2
Fore
SplineSet
549 101 m 257
 895 101 l 258
 1134 101 1376 139 1376 367 c 256
 1376 502 1287 599 1140 599 c 256
 998 599 801 498 549 101 c 257
432 101 m 257
 456 139 478 174 501 209 c 257
 501 1324 l 257
 602 1324 l 257
 602 577 l 258
 602 480 600 401 589 311 c 257
 777 568 969 700 1150 700 c 256
 1363 700 1484 554 1484 369 c 256
 1484 176 1369 0 883 0 c 258
 121 0 l 257
 121 101 l 257
 432 101 l 257
EndSplineSet
EndChar

StartChar: uniE029
Encoding: 57385 57385 1695
GlifName: uniE_029
Width: 1379
VWidth: 0
GlyphClass: 2
Flags: HW
LayerCount: 2
Fore
SplineSet
972 1011 m 257
 902 936 l 257
 845 1002 767 1061 638 1061 c 256
 477 1061 307 929 307 721 c 256
 307 523 485 446 746 446 c 256
 838 446 967 463 1039 473 c 257
 1048 369 l 257
 638 341 222 147 222 -249 c 256
 222 -525 499 -635 794 -635 c 256
 947 -635 1107 -604 1222 -553 c 257
 1258 -649 l 257
 1125 -706 956 -739 789 -739 c 256
 438 -739 121 -595 121 -248 c 256
 121 21 325 265 623 365 c 257
 392 377 206 494 206 714 c 256
 206 978 416 1161 636 1161 c 256
 789 1161 900 1091 972 1011 c 257
EndSplineSet
EndChar

StartChar: uniE02A
Encoding: 57386 57386 1696
GlifName: uniE_02A_
Width: 897
VWidth: 0
GlyphClass: 2
Flags: HW
LayerCount: 2
Fore
SplineSet
0 101 m 258
 897 101 l 257
 897 0 l 257
 0 0 l 258
 -19 0 -24 16 -24 51 c 256
 -24 86 -19 101 0 101 c 258
EndSplineSet
EndChar

StartChar: uniE02B
Encoding: 57387 57387 1697
GlifName: uniE_02B_
Width: 1645
VWidth: 0
GlyphClass: 2
Flags: HW
LayerCount: 2
Fore
SplineSet
792 101 m 256
 1215 101 1366 185 1366 540 c 258
 1366 1323 l 257
 1466 1323 l 257
 1466 540 l 258
 1466 127 1266 0 776 0 c 256
 301 0 121 105 121 379 c 256
 121 453 134 552 155 638 c 257
 246 617 l 257
 227 539 213 441 213 378 c 256
 213 171 360 101 792 101 c 256
EndSplineSet
EndChar

StartChar: uniE02C
Encoding: 57388 57388 1698
GlifName: uniE_02C_
Width: 1353
VWidth: 0
GlyphClass: 2
Flags: HW
LayerCount: 2
Fore
SplineSet
640 -452 m 256
 936 -452 1073 -301 1073 18 c 258
 1073 1324 l 257
 1174 1324 l 257
 1174 18 l 258
 1174 -372 986 -553 625 -553 c 256
 306 -553 121 -379 121 -88 c 256
 121 41 150 187 210 339 c 257
 301 303 l 257
 248 163 221 26 221 -81 c 256
 221 -322 363 -452 640 -452 c 256
EndSplineSet
EndChar

StartChar: uniE02D
Encoding: 57389 57389 1699
GlifName: uniE_02D_
Width: 1266
VWidth: 0
GlyphClass: 2
Flags: HW
LayerCount: 2
Fore
SplineSet
804 612 m 256
 606 612 542 356 503 171 c 257
 538 163 583 151 619 141 c 256
 723 112 812 90 889 90 c 256
 1002 90 1046 160 1046 292 c 256
 1046 456 978 612 804 612 c 256
806 712 m 256
 1038 712 1142 516 1142 280 c 256
 1142 102 1055 -11 894 -11 c 256
 802 -11 697 14 586 44 c 256
 494 70 415 87 360 87 c 256
 261 87 224 33 224 -94 c 258
 224 -788 l 257
 121 -788 l 257
 121 -89 l 258
 121 105 217 220 409 189 c 257
 456 432 554 712 806 712 c 256
EndSplineSet
EndChar

StartChar: uniE02E
Encoding: 57390 57390 1700
GlifName: uniE_02E_
Width: 880
VWidth: 0
GlyphClass: 2
Flags: HW
LayerCount: 2
Fore
SplineSet
439 91 m 256
 584 91 657 172 657 297 c 256
 657 432 568 586 439 706 c 257
 312 587 220 433 220 297 c 256
 220 172 294 91 439 91 c 256
439 -11 m 256
 243 -11 121 114 121 287 c 256
 121 464 235 639 376 772 c 257
 341 806 311 833 275 863 c 257
 338 938 l 257
 607 715 759 505 759 292 c 256
 759 116 633 -11 439 -11 c 256
EndSplineSet
EndChar

StartChar: uniE02F
Encoding: 57391 57391 1701
GlifName: uniE_02F_
Width: 982
VWidth: 0
GlyphClass: 2
Flags: HW
LayerCount: 2
Fore
SplineSet
756 23 m 257
 682 5 595 -11 494 -11 c 256
 296 -11 167 71 167 271 c 256
 167 487 272 720 495 720 c 256
 780 720 861 336 861 43 c 256
 861 -260 597 -457 156 -571 c 257
 121 -475 l 257
 527 -372 746 -207 756 23 c 257
762 126 m 257
 750 334 688 621 494 621 c 256
 333 621 262 438 262 276 c 256
 262 134 351 92 501 92 c 256
 601 92 690 108 762 126 c 257
EndSplineSet
EndChar

StartChar: uniE030
Encoding: 57392 57392 1702
GlifName: uniE_030
Width: 0
VWidth: 0
GlyphClass: 2
Flags: H
LayerCount: 2
Fore
SplineSet
82 1572 m 256
 23 1572 -35 1515 -35 1450 c 256
 -35 1376 54 1345 114 1333 c 257
 147 1373 163 1415 163 1461 c 256
 163 1520 138 1572 82 1572 c 256
86 1630 m 256
 168 1630 223 1561 223 1464 c 256
 223 1283 40 1180 -183 1113 c 257
 -201 1177 -253 1262 -331 1320 c 257
 -294 1374 l 257
 -227 1328 -179 1262 -145 1187 c 257
 -68 1214 15 1251 70 1289 c 257
 0 1309 -92 1352 -92 1448 c 256
 -92 1532 -14 1630 86 1630 c 256
EndSplineSet
EndChar

StartChar: uniE031
Encoding: 57393 57393 1703
GlifName: uniE_031
Width: 0
VWidth: 0
GlyphClass: 2
Flags: H
LayerCount: 2
Fore
SplineSet
218 1324 m 257
 236 1269 l 257
 -218 1125 l 257
 -236 1182 l 257
 218 1324 l 257
EndSplineSet
EndChar

StartChar: uniE032
Encoding: 57394 57394 1704
GlifName: uniE_032
Width: 0
VWidth: 0
GlyphClass: 2
Flags: H
LayerCount: 2
Fore
SplineSet
82 1572 m 256
 23 1572 -35 1515 -35 1450 c 256
 -35 1376 54 1345 114 1333 c 257
 147 1373 163 1415 163 1461 c 256
 163 1520 138 1572 82 1572 c 256
87 1630 m 256
 169 1630 223 1561 223 1464 c 256
 223 1278 30 1174 -204 1107 c 257
 -222 1162 l 257
 -124 1188 1 1242 70 1290 c 257
 -1 1310 -92 1352 -92 1447 c 256
 -92 1532 -13 1630 87 1630 c 256
EndSplineSet
EndChar

StartChar: uniE033
Encoding: 57395 57395 1705
GlifName: uniE_033
Width: 0
VWidth: 0
GlyphClass: 2
Flags: H
LayerCount: 2
Fore
SplineSet
219 1280 m 256
 219 1313 211 1356 197 1414 c 257
 252 1427 l 257
 266 1368 275 1318 275 1272 c 256
 275 1177 227 1124 137 1124 c 256
 68 1124 9 1173 0 1243 c 257
 -9 1173 -68 1124 -137 1124 c 256
 -227 1124 -275 1177 -275 1272 c 256
 -275 1318 -266 1368 -252 1427 c 257
 -197 1414 l 257
 -211 1356 -219 1313 -219 1280 c 256
 -219 1215 -190 1184 -128 1184 c 256
 -58 1184 -27 1239 -27 1365 c 258
 -27 1377 l 257
 27 1377 l 257
 27 1365 l 258
 27 1239 58 1184 128 1184 c 256
 190 1184 219 1215 219 1280 c 256
EndSplineSet
EndChar

StartChar: uniE034
Encoding: 57396 57396 1706
GlifName: uniE_034
Width: 0
VWidth: 0
GlyphClass: 2
Flags: H
LayerCount: 2
Fore
SplineSet
0 1384 m 256
 -67 1384 -103 1346 -103 1281 c 256
 -103 1216 -66 1177 0 1177 c 256
 64 1177 103 1218 103 1281 c 256
 103 1344 67 1384 0 1384 c 256
0 1441 m 256
 97 1441 161 1378 161 1281 c 256
 161 1184 98 1119 0 1119 c 256
 -98 1119 -161 1185 -161 1281 c 256
 -161 1377 -98 1441 0 1441 c 256
EndSplineSet
EndChar

StartChar: uniE035
Encoding: 57397 57397 1707
GlifName: uniE_035
Width: 0
VWidth: 0
GlyphClass: 2
Flags: H
LayerCount: 2
Fore
SplineSet
-260 1143 m 257
 -233 1193 -175 1256 -96 1256 c 256
 -58 1256 -23 1240 14 1214 c 256
 48 1191 72 1181 96 1181 c 256
 145 1181 178 1210 206 1261 c 257
 260 1236 l 257
 230 1177 180 1125 98 1125 c 256
 60 1125 33 1136 -13 1166 c 256
 -43 1186 -68 1197 -92 1197 c 256
 -142 1197 -187 1158 -207 1118 c 257
 -260 1143 l 257
EndSplineSet
EndChar

StartChar: uniE036
Encoding: 57398 57398 1708
GlifName: uniE_036
Width: 0
VWidth: 0
GlyphClass: 2
Flags: H
LayerCount: 2
Fore
SplineSet
148 1547 m 257
 128 1494 l 257
 102 1506 70 1512 42 1512 c 256
 -33 1512 -96 1467 -96 1386 c 256
 -96 1319 -47 1273 25 1273 c 256
 44 1273 66 1277 88 1283 c 258
 218 1324 l 257
 235 1269 l 257
 -218 1125 l 257
 -235 1182 l 257
 -51 1240 l 257
 -112 1263 -150 1320 -150 1388 c 256
 -150 1498 -57 1571 47 1571 c 256
 81 1571 114 1564 148 1547 c 257
EndSplineSet
EndChar

StartChar: uniE037
Encoding: 57399 57399 1709
GlifName: uniE_037
Width: 0
VWidth: 0
GlyphClass: 2
Flags: H
LayerCount: 2
Fore
SplineSet
22 1125 m 257
 -22 1125 l 257
 -236 1388 l 257
 -190 1427 l 257
 0 1189 l 257
 190 1427 l 257
 236 1388 l 257
 22 1125 l 257
EndSplineSet
EndChar

StartChar: uniE038
Encoding: 57400 57400 1710
GlifName: uniE_038
Width: 1757
VWidth: 0
GlyphClass: 2
Flags: HW
LayerCount: 2
Fore
SplineSet
1587 732 m 257
 1618 628 1636 530 1636 438 c 256
 1636 108 1423 0 878 0 c 256
 333 0 121 108 121 438 c 256
 121 530 138 628 169 732 c 257
 264 706 l 257
 235 609 220 521 220 441 c 256
 220 192 380 101 878 101 c 256
 1375 101 1536 192 1536 441 c 256
 1536 521 1522 609 1493 706 c 257
 1587 732 l 257
EndSplineSet
EndChar

StartChar: uniE039
Encoding: 57401 57401 1711
GlifName: uniE_039
Width: 1513
VWidth: 0
GlyphClass: 2
Flags: HW
LayerCount: 2
Fore
SplineSet
1293 124 m 257
 1281 332 1219 619 1025 619 c 256
 864 619 792 435 792 273 c 256
 792 131 882 89 1032 89 c 256
 1132 89 1221 106 1293 124 c 257
1026 720 m 256
 1301 720 1392 359 1392 64 c 257
 1392 -334 1194 -557 749 -557 c 256
 343 -557 121 -358 121 7 c 256
 121 120 140 250 177 393 c 257
 272 362 l 257
 240 228 222 108 222 7 c 256
 222 -309 407 -454 758 -454 c 256
 1115 -454 1290 -287 1294 27 c 257
 1220 5 1126 -11 1025 -11 c 256
 827 -11 698 71 698 271 c 256
 698 487 803 720 1026 720 c 256
EndSplineSet
EndChar

StartChar: uniE03A
Encoding: 57402 57402 1712
GlifName: uniE_03A_
Width: 0
VWidth: 0
GlyphClass: 2
Flags: H
LayerCount: 2
Fore
SplineSet
-32 1437 m 257
 32 1437 l 257
 32 1103 l 257
 -32 1103 l 257
 -32 1437 l 257
EndSplineSet
EndChar

StartChar: uniE03B
Encoding: 57403 57403 1713
GlifName: uniE_03B_
Width: 1790
VWidth: 0
GlyphClass: 2
Flags: HW
LayerCount: 2
Fore
SplineSet
1573 424 m 257
 1495 404 1403 387 1297 387 c 256
 1101 387 970 461 970 661 c 256
 970 876 1073 1112 1298 1112 c 256
 1596 1112 1669 692 1669 430 c 256
 1669 94 1481 0 864 0 c 256
 284 0 121 110 121 438 c 256
 121 529 137 630 167 732 c 257
 262 707 l 257
 234 611 219 520 219 441 c 256
 219 183 331 101 871 101 c 256
 1432 104 1573 151 1573 424 c 257
1565 518 m 257
 1553 726 1490 1012 1296 1012 c 256
 1135 1012 1064 829 1064 667 c 256
 1064 525 1153 483 1303 483 c 256
 1403 483 1493 500 1565 518 c 257
EndSplineSet
EndChar

StartChar: uniE03C
Encoding: 57404 57404 1714
GlifName: uniE_03C_
Width: 1658
VWidth: 0
GlyphClass: 2
Flags: HW
LayerCount: 2
Fore
SplineSet
167 733 m 257
 262 707 l 257
 234 611 219 518 219 438 c 256
 219 188 365 101 785 101 c 256
 1195 101 1395 185 1395 359 c 256
 1395 526 1209 738 894 943 c 257
 894 1059 l 257
 1147 1197 1413 1310 1700 1402 c 257
 1727 1304 l 257
 1429 1207 1199 1113 993 1003 c 257
 993 993 l 257
 1327 756 1496 550 1496 358 c 256
 1496 124 1248 0 776 0 c 256
 304 0 121 123 121 439 c 256
 121 530 136 627 167 733 c 257
EndSplineSet
EndChar

StartChar: uniE03D
Encoding: 57405 57405 1715
GlifName: uniE_03D_
Width: 1506
VWidth: 0
GlyphClass: 2
Flags: HW
LayerCount: 2
Fore
SplineSet
1177 541 m 257
 1270 580 l 257
 1344 378 1385 210 1385 37 c 256
 1385 -320 1154 -515 745 -515 c 256
 329 -515 121 -316 121 55 c 256
 121 190 147 348 193 523 c 257
 287 495 l 257
 248 336 221 185 221 60 c 256
 221 -260 392 -412 750 -412 c 256
 1101 -412 1285 -251 1285 37 c 256
 1285 184 1244 351 1177 541 c 257
EndSplineSet
EndChar

StartChar: uniE03E
Encoding: 57406 57406 1716
GlifName: uniE_03E_
Width: 1484
VWidth: 0
GlyphClass: 2
Flags: HW
LayerCount: 2
Fore
SplineSet
1318 671 m 257
 1288 578 l 257
 1229 596 1169 606 1112 606 c 256
 895 606 731 464 731 268 c 256
 731 142 803 98 1031 77 c 256
 1264 56 1363 7 1363 -145 c 256
 1363 -401 1089 -555 705 -555 c 256
 307 -555 124 -389 124 -18 c 256
 124 85 136 200 163 334 c 257
 261 315 l 257
 235 184 221 73 221 -28 c 256
 221 -333 365 -455 704 -455 c 256
 1023 -455 1264 -342 1264 -167 c 256
 1264 -77 1206 -43 1016 -24 c 256
 738 3 632 73 632 258 c 256
 632 513 831 707 1106 707 c 256
 1175 707 1248 694 1318 671 c 257
EndSplineSet
EndChar

StartChar: uniE03F
Encoding: 57407 57407 1717
GlifName: uniE_03F_
Width: 1970
VWidth: 0
GlyphClass: 2
Flags: HW
LayerCount: 2
Fore
SplineSet
167 733 m 257
 262 707 l 257
 234 611 219 518 219 438 c 256
 219 188 365 101 785 101 c 256
 1195 101 1394 185 1394 359 c 256
 1394 526 1211 736 894 943 c 257
 894 1059 l 257
 1147 1197 1413 1310 1700 1402 c 257
 1727 1304 l 257
 1429 1207 1199 1113 993 1003 c 257
 993 993 l 257
 1265 798 1407 648 1523 410 c 256
 1641 169 1740 101 1969 101 c 258
 1970 101 l 257
 1970 0 l 257
 1969 0 l 258
 1710 0 1567 99 1467 355 c 257
 1482 119 1250 0 780 0 c 256
 303 0 121 122 121 439 c 256
 121 530 136 627 167 733 c 257
EndSplineSet
EndChar

StartChar: uniE040
Encoding: 57408 57408 1718
GlifName: uniE_040
Width: 1701
VWidth: 0
GlyphClass: 2
Flags: HW
LayerCount: 2
Fore
SplineSet
193 523 m 257
 287 495 l 257
 248 336 221 185 221 60 c 256
 221 -260 392 -412 750 -412 c 256
 1104 -412 1284 -255 1284 41 c 256
 1284 184 1244 350 1177 541 c 257
 1273 582 l 257
 1329 420 l 258
 1395 218 1455 101 1700 101 c 258
 1701 101 l 257
 1701 0 l 257
 1700 0 l 258
 1556 0 1426 54 1369 158 c 257
 1421 -281 1198 -515 745 -515 c 256
 329 -515 121 -316 121 55 c 256
 121 190 147 348 193 523 c 257
EndSplineSet
EndChar

StartChar: uniE041
Encoding: 57409 57409 1719
GlifName: uniE_041
Width: 576
VWidth: 0
GlyphClass: 2
Flags: HW
LayerCount: 2
Fore
SplineSet
397 756 m 257
 431 616 455 488 455 380 c 256
 455 147 345 0 57 0 c 258
 0 0 l 258
 -19 0 -24 16 -24 51 c 256
 -24 86 -19 101 0 101 c 258
 57 101 l 258
 278 101 359 203 359 377 c 256
 359 473 334 592 302 730 c 257
 397 756 l 257
EndSplineSet
EndChar

StartChar: uniE042
Encoding: 57410 57410 1720
GlifName: uniE_042
Width: 849
VWidth: 0
GlyphClass: 2
Flags: HW
LayerCount: 2
Fore
SplineSet
476 447 m 258
 476 232 525 101 762 101 c 258
 849 101 l 257
 849 0 l 257
 759 0 l 258
 586 0 456 82 424 236 c 257
 391 81 234 0 56 0 c 258
 0 0 l 258
 -19 0 -24 16 -24 51 c 256
 -24 86 -19 101 0 101 c 258
 56 101 l 258
 321 101 374 234 374 447 c 258
 374 576 l 257
 476 576 l 257
 476 447 l 258
EndSplineSet
EndChar

StartChar: uniE043
Encoding: 57411 57411 1721
GlifName: uniE_043
Width: 1402
VWidth: 0
GlyphClass: 2
Flags: HW
LayerCount: 2
Fore
SplineSet
1403 101 m 257
 1403 0 l 257
 1096 0 l 257
 1232 -35 1325 -114 1325 -236 c 256
 1325 -478 1015 -581 741 -581 c 256
 358 -581 121 -415 121 -65 c 256
 121 152 150 289 184 424 c 257
 279 398 l 257
 247 269 221 141 221 -52 c 256
 221 -356 409 -479 734 -479 c 256
 953 -479 1228 -416 1228 -218 c 256
 1228 -66 1043 -39 737 -1 c 257
 750 101 l 257
 1403 101 l 257
EndSplineSet
EndChar

StartChar: uniE044
Encoding: 57412 57412 1722
GlifName: uniE_044
Width: 587
VWidth: 0
GlyphClass: 2
Flags: HW
LayerCount: 2
Fore
SplineSet
179 1324 m 257
 280 1324 l 257
 280 402 l 258
 280 190 352 101 587 101 c 258
 588 101 l 257
 588 0 l 257
 587 0 l 258
 313 0 179 132 179 401 c 258
 179 1324 l 257
EndSplineSet
EndChar

StartChar: uniE045
Encoding: 57413 57413 1723
GlifName: uniE_045
Width: 1332
VWidth: 0
GlyphClass: 2
Flags: HW
LayerCount: 2
Fore
SplineSet
468 767 m 256
 553 767 642 728 759 673 c 256
 882 615 1012 557 1167 530 c 257
 1165 402 l 257
 1088 381 1004 356 921 326 c 257
 1008 119 1104 101 1267 101 c 258
 1332 101 l 257
 1332 0 l 257
 1262 0 l 258
 1077 0 943 37 843 299 c 257
 515 172 222 -24 222 -311 c 256
 222 -554 467 -665 744 -665 c 256
 902 -665 1058 -628 1179 -580 c 257
 1217 -677 l 257
 1080 -733 915 -773 746 -773 c 256
 405 -773 121 -623 121 -318 c 256
 121 87 569 325 1040 467 c 257
 905 491 795 543 699 589 c 256
 608 633 537 666 473 666 c 256
 348 666 293 573 266 450 c 258
 260 423 l 257
 170 441 l 257
 177 470 l 258
 212 642 299 767 468 767 c 256
EndSplineSet
EndChar

StartChar: uniE046
Encoding: 57414 57414 1724
GlifName: uniE_046
Width: 1282
VWidth: 0
GlyphClass: 2
Flags: HW
LayerCount: 2
Fore
SplineSet
463 762 m 256
 549 762 642 719 752 668 c 256
 867 614 999 554 1161 525 c 257
 1161 420 l 257
 774 162 l 258
 612 54 437 0 228 0 c 258
 0 0 l 258
 -19 0 -24 18 -24 51 c 256
 -24 84 -19 101 0 101 c 258
 238 101 l 258
 423 101 578 149 724 245 c 258
 1047 459 l 257
 905 484 791 538 693 585 c 256
 605 627 532 661 466 661 c 256
 342 661 287 569 260 445 c 258
 254 418 l 257
 164 436 l 257
 171 465 l 258
 206 633 290 762 463 762 c 256
EndSplineSet
EndChar

StartChar: uniE047
Encoding: 57415 57415 1725
GlifName: uniE_047
Width: 1329
VWidth: 0
GlyphClass: 2
Flags: HW
LayerCount: 2
Fore
SplineSet
463 762 m 256
 549 762 642 719 752 668 c 256
 867 614 999 554 1161 525 c 257
 1161 420 l 257
 933 269 l 257
 1024 143 1103 101 1249 101 c 258
 1329 101 l 257
 1329 0 l 257
 1244 0 l 258
 1082 0 964 55 858 219 c 257
 774 162 l 258
 612 54 437 0 228 0 c 258
 0 0 l 258
 -19 0 -24 18 -24 51 c 256
 -24 84 -19 101 0 101 c 258
 238 101 l 258
 423 101 578 149 724 245 c 258
 1047 459 l 257
 905 484 791 538 693 585 c 256
 605 627 532 661 466 661 c 256
 342 661 287 569 260 445 c 258
 254 418 l 257
 164 436 l 257
 171 465 l 258
 206 633 290 762 463 762 c 256
EndSplineSet
EndChar

StartChar: uniE048
Encoding: 57416 57416 1726
GlifName: uniE_048
Width: 1267
VWidth: 0
GlyphClass: 2
Flags: HW
LayerCount: 2
Fore
SplineSet
675 940 m 257
 950 299 l 258
 1015 148 1101 101 1248 101 c 258
 1268 101 l 257
 1268 0 l 257
 1248 0 l 258
 1082 0 955 59 884 213 c 257
 802 66 645 -10 479 -10 c 256
 352 -10 220 35 111 131 c 257
 167 212 l 257
 263 129 374 92 479 92 c 256
 625 92 761 163 839 296 c 257
 577 893 l 257
 675 940 l 257
EndSplineSet
EndChar

StartChar: uniE049
Encoding: 57417 57417 1727
GlifName: uniE_049
Width: 915
VWidth: 0
GlyphClass: 2
Flags: HW
LayerCount: 2
Fore
SplineSet
414 556 m 257
 512 586 l 257
 561 401 l 258
 621 173 706 101 914 101 c 258
 916 101 l 257
 916 0 l 257
 914 0 l 258
 765 0 644 55 592 150 c 257
 621 -216 457 -411 35 -576 c 257
 -6 -483 l 257
 362 -339 503 -187 503 78 c 256
 503 196 475 344 414 556 c 257
EndSplineSet
EndChar

StartChar: uniE04A
Encoding: 57418 57418 1728
GlifName: uniE_04A_
Width: 2743
VWidth: 0
GlyphClass: 2
Flags: HW
LayerCount: 2
Fore
SplineSet
190 523 m 257
 283 497 l 257
 252 384 221 209 221 64 c 256
 221 -282 387 -411 727 -411 c 256
 1094 -411 1226 -262 1226 20 c 256
 1226 159 1191 348 1144 524 c 257
 1243 557 l 257
 1281 395 l 258
 1320 213 1384 101 1553 101 c 256
 1687 101 1756 177 1772 360 c 258
 1787 539 l 257
 1883 530 l 257
 1870 368 l 258
 1854 184 1935 101 2076 101 c 256
 2212 101 2273 178 2273 337 c 256
 2273 404 2262 497 2241 599 c 257
 2340 619 l 257
 2367 436 l 258
 2403 194 2509 101 2742 101 c 258
 2744 101 l 257
 2744 0 l 257
 2742 0 l 258
 2522 0 2378 94 2346 258 c 257
 2332 84 2240 0 2083 0 c 256
 1935 0 1846 71 1818 196 c 257
 1784 67 1683 0 1547 0 c 256
 1420 0 1355 54 1309 144 c 257
 1358 -297 1179 -513 732 -513 c 256
 308 -513 121 -325 121 47 c 256
 121 204 154 397 190 523 c 257
EndSplineSet
EndChar

StartChar: uniE04B
Encoding: 57419 57419 1729
GlifName: uniE_04B_
Width: 1655
VWidth: 0
GlyphClass: 2
Flags: HW
LayerCount: 2
Fore
SplineSet
703 101 m 256
 838 100 908 176 924 360 c 258
 940 539 l 257
 1036 530 l 257
 1023 368 l 258
 1008 184 1088 101 1236 101 c 256
 1368 101 1433 182 1433 342 c 256
 1433 414 1419 548 1405 620 c 257
 1504 644 l 257
 1520 567 1534 428 1534 343 c 256
 1534 116 1436 0 1244 0 c 256
 1095 0 999 71 971 196 c 257
 935 66 842 0 700 0 c 256
 544 0 447 81 426 228 c 257
 389 91 241 0 57 0 c 258
 0 0 l 258
 -17 0 -24 15 -24 51 c 256
 -24 86 -17 101 0 101 c 258
 57 101 l 258
 272 101 372 200 397 449 c 258
 410 584 l 257
 513 575 l 257
 495 390 l 258
 476 203 548 102 703 101 c 256
EndSplineSet
EndChar

StartChar: uniE04C
Encoding: 57420 57420 1730
GlifName: uniE_04C_
Width: 1896
VWidth: 0
GlyphClass: 2
Flags: HW
LayerCount: 2
Fore
SplineSet
1229 101 m 256
 1365 101 1426 178 1426 337 c 256
 1426 404 1415 497 1394 599 c 257
 1493 619 l 257
 1520 436 l 258
 1556 194 1662 101 1895 101 c 258
 1896 101 l 257
 1896 0 l 257
 1895 0 l 258
 1675 0 1531 94 1499 258 c 257
 1485 84 1393 0 1236 0 c 256
 1090 0 999 71 971 196 c 257
 935 66 842 0 701 0 c 256
 544 0 447 81 426 228 c 257
 389 91 241 0 57 0 c 258
 0 0 l 258
 -17 0 -24 15 -24 51 c 256
 -24 86 -17 101 0 101 c 258
 57 101 l 258
 272 101 372 200 397 449 c 258
 410 584 l 257
 513 575 l 257
 495 390 l 258
 476 203 548 102 703 101 c 256
 838 100 908 176 924 360 c 258
 940 539 l 257
 1036 530 l 257
 1023 368 l 258
 1008 184 1088 101 1229 101 c 256
EndSplineSet
EndChar

StartChar: uniE04D
Encoding: 57421 57421 1731
GlifName: uniE_04D_
Width: 2488
VWidth: 0
GlyphClass: 2
Flags: HW
LayerCount: 2
Fore
SplineSet
1949 599 m 256
 1811 599 1631 498 1394 145 c 257
 1476 112 1582 101 1704 101 c 256
 1941 101 2185 141 2185 369 c 256
 2185 503 2096 599 1949 599 c 256
1958 700 m 256
 2171 700 2293 555 2293 369 c 256
 2293 285 2268 220 2224 171 c 257
 2283 124 2371 101 2488 101 c 258
 2489 101 l 257
 2489 0 l 257
 2488 0 l 258
 2349 0 2238 35 2163 104 c 257
 2053 25 1882 0 1698 0 c 256
 1541 0 1415 20 1321 60 c 257
 1330 -329 1149 -510 729 -510 c 256
 308 -510 121 -323 121 43 c 256
 121 206 154 400 190 526 c 257
 283 499 l 257
 252 386 221 212 221 49 c 256
 221 -279 387 -408 728 -408 c 256
 1094 -408 1226 -259 1226 25 c 256
 1226 161 1194 327 1144 516 c 257
 1243 554 l 257
 1273 446 1296 314 1310 185 c 257
 1561 562 1774 700 1958 700 c 256
EndSplineSet
EndChar

StartChar: uniE04E
Encoding: 57422 57422 1732
GlifName: uniE_04E_
Width: 1686
VWidth: 0
GlyphClass: 2
Flags: HW
LayerCount: 2
Fore
SplineSet
1222 599 m 256
 1084 599 904 498 667 145 c 257
 749 112 855 101 977 101 c 256
 1214 101 1458 141 1458 369 c 256
 1458 503 1369 599 1222 599 c 256
374 576 m 257
 476 576 l 257
 476 466 l 258
 477 280 518 230 588 186 c 257
 833 565 1049 700 1232 700 c 256
 1445 700 1566 555 1566 369 c 256
 1566 77 1289 0 971 0 c 256
 679 0 488 71 424 236 c 257
 391 81 234 0 56 0 c 258
 0 0 l 258
 -19 0 -24 16 -24 51 c 256
 -24 86 -19 101 0 101 c 258
 56 101 l 258
 321 101 374 234 374 447 c 258
 374 576 l 257
EndSplineSet
EndChar

StartChar: uniE04F
Encoding: 57423 57423 1733
GlifName: uniE_04F_
Width: 1762
VWidth: 0
GlyphClass: 2
Flags: HW
LayerCount: 2
Fore
SplineSet
374 576 m 257
 476 576 l 257
 476 466 l 258
 477 280 518 230 588 186 c 257
 833 565 1049 700 1232 700 c 256
 1445 700 1566 555 1566 369 c 256
 1566 285 1541 220 1497 171 c 257
 1557 124 1644 101 1762 101 c 258
 1762 101 l 257
 1762 0 l 257
 1762 0 l 258
 1626 0 1512 33 1436 104 c 257
 1326 25 1155 0 971 0 c 256
 679 0 488 71 424 236 c 257
 391 81 234 0 56 0 c 258
 0 0 l 258
 -19 0 -24 16 -24 51 c 256
 -24 86 -19 101 0 101 c 258
 56 101 l 258
 321 101 374 234 374 447 c 258
 374 576 l 257
1222 599 m 256
 1084 599 904 498 667 145 c 257
 749 112 855 101 977 101 c 256
 1214 101 1458 141 1458 369 c 256
 1458 503 1369 599 1222 599 c 256
EndSplineSet
EndChar

StartChar: uniE050
Encoding: 57424 57424 1734
GlifName: uniE_050
Width: 1708
VWidth: 0
GlyphClass: 2
Flags: HW
LayerCount: 2
Fore
SplineSet
549 101 m 257
 895 101 l 258
 1134 101 1376 139 1376 367 c 256
 1376 502 1287 599 1140 599 c 256
 998 599 801 498 549 101 c 257
432 101 m 257
 456 139 478 174 501 209 c 257
 501 1324 l 257
 602 1324 l 257
 602 577 l 258
 602 480 600 401 589 311 c 257
 777 568 969 700 1150 700 c 256
 1363 700 1484 554 1484 369 c 256
 1484 299 1465 242 1435 196 c 257
 1495 136 1582 101 1708 101 c 258
 1709 101 l 257
 1709 0 l 257
 1708 0 l 258
 1550 0 1459 54 1383 128 c 257
 1275 30 1087 0 883 0 c 258
 121 0 l 257
 121 101 l 257
 432 101 l 257
EndSplineSet
EndChar

StartChar: uniE051
Encoding: 57425 57425 1735
GlifName: uniE_051
Width: 1343
VWidth: 0
GlyphClass: 2
Flags: HW
LayerCount: 2
Fore
SplineSet
4 0 m 258
 -15 0 -19 16 -19 51 c 256
 -19 86 -15 101 4 101 c 258
 171 101 l 257
 195 139 217 174 240 209 c 257
 240 1324 l 257
 341 1324 l 257
 341 577 l 258
 341 480 339 401 328 311 c 257
 516 568 708 700 889 700 c 256
 1102 700 1222 554 1222 369 c 256
 1222 176 1108 0 622 0 c 258
 4 0 l 258
288 101 m 257
 634 101 l 258
 873 101 1115 139 1115 367 c 256
 1115 502 1026 599 879 599 c 256
 737 599 540 498 288 101 c 257
EndSplineSet
EndChar

StartChar: uniE052
Encoding: 57426 57426 1736
GlifName: uniE_052
Width: 1449
VWidth: 0
GlyphClass: 2
Flags: HW
LayerCount: 2
Fore
SplineSet
4 0 m 258
 -15 0 -19 16 -19 51 c 256
 -19 86 -15 101 4 101 c 258
 173 101 l 257
 197 139 219 174 242 209 c 257
 242 1324 l 257
 342 1324 l 257
 342 577 l 258
 342 480 341 401 330 311 c 257
 518 568 709 700 890 700 c 256
 1103 700 1224 554 1224 369 c 256
 1224 299 1206 242 1176 196 c 257
 1236 136 1322 101 1448 101 c 258
 1450 101 l 257
 1450 0 l 257
 1448 0 l 258
 1290 0 1200 54 1124 128 c 257
 1016 30 828 0 624 0 c 258
 4 0 l 258
290 101 m 257
 636 101 l 258
 875 101 1117 139 1117 367 c 256
 1117 502 1028 599 881 599 c 256
 739 599 542 498 290 101 c 257
EndSplineSet
EndChar

StartChar: uniE053
Encoding: 57427 57427 1737
GlifName: uniE_053
Width: 1200
VWidth: 0
GlyphClass: 2
Flags: HW
LayerCount: 2
Fore
SplineSet
955 498 m 256
 955 624 803 672 672 672 c 256
 534 672 403 634 306 560 c 257
 306 554 l 257
 667 209 l 257
 828 293 955 391 955 498 c 256
1051 500 m 256
 1051 359 915 249 756 159 c 257
 838 101 935 101 1035 101 c 258
 1201 101 l 257
 1201 0 l 257
 1021 0 l 258
 877 0 768 12 654 99 c 257
 390 -24 222 -168 222 -369 c 256
 222 -623 488 -706 767 -706 c 256
 889 -706 1014 -690 1116 -664 c 257
 1143 -763 l 257
 1024 -794 889 -812 758 -812 c 256
 426 -812 121 -698 121 -368 c 256
 121 -122 318 43 571 166 c 257
 202 519 l 257
 202 611 l 257
 327 711 490 771 671 771 c 256
 855 771 1051 695 1051 500 c 256
EndSplineSet
EndChar

StartChar: uniE054
Encoding: 57428 57428 1738
GlifName: uniE_054
Width: 1098
VWidth: 0
GlyphClass: 2
Flags: HW
LayerCount: 2
Fore
SplineSet
249 435 m 256
 249 273 383 168 518 168 c 256
 544 168 606 177 664 188 c 258
 960 244 l 257
 977 145 l 257
 466 46 l 258
 310 16 169 0 49 0 c 258
 0 0 l 258
 -18 0 -24 19 -24 51 c 256
 -24 83 -18 101 0 101 c 258
 47 101 l 258
 138 101 228 109 348 128 c 257
 233 180 148 284 148 436 c 256
 148 700 347 869 558 869 c 256
 707 869 798 816 884 722 c 257
 818 651 l 257
 752 723 664 767 558 767 c 256
 405 767 249 646 249 435 c 256
EndSplineSet
EndChar

StartChar: uniE055
Encoding: 57429 57429 1739
GlifName: uniE_055
Width: 1187
VWidth: 0
GlyphClass: 2
Flags: HW
LayerCount: 2
Fore
SplineSet
633 672 m 256
 496 672 364 635 266 560 c 257
 266 554 l 257
 628 209 l 257
 789 293 916 391 916 498 c 256
 916 623 765 672 633 672 c 256
632 771 m 256
 817 771 1014 696 1014 501 c 256
 1014 360 876 249 717 159 c 257
 799 101 893 101 994 101 c 258
 1187 101 l 257
 1187 0 l 257
 979 0 l 258
 834 0 733 10 618 99 c 257
 490 40 354 0 170 0 c 258
 0 0 l 258
 -18 0 -24 16 -24 51 c 256
 -24 86 -18 101 0 101 c 258
 160 101 l 258
 313 101 423 130 528 170 c 257
 162 519 l 257
 163 611 l 257
 290 711 451 771 632 771 c 256
EndSplineSet
EndChar

StartChar: uniE056
Encoding: 57430 57430 1740
GlifName: uniE_056
Width: 1838
VWidth: 0
GlyphClass: 2
Flags: HW
LayerCount: 2
Fore
SplineSet
1466 540 m 258
 1466 216 1564 101 1838 101 c 258
 1839 101 l 257
 1839 0 l 257
 1838 0 l 258
 1602 0 1449 107 1417 292 c 257
 1359 82 1182 0 766 0 c 256
 299 0 121 104 121 379 c 256
 121 453 134 552 155 638 c 257
 246 617 l 257
 227 539 213 441 213 378 c 256
 213 175 357 101 767 101 c 256
 1238 101 1366 200 1366 540 c 258
 1366 1323 l 257
 1466 1323 l 257
 1466 540 l 258
EndSplineSet
EndChar

StartChar: uniE057
Encoding: 57431 57431 1741
GlifName: uniE_057
Width: 865
VWidth: 0
GlyphClass: 2
Flags: HW
LayerCount: 2
Fore
SplineSet
861 1402 m 257
 888 1304 l 257
 591 1207 359 1113 153 1003 c 257
 153 993 l 257
 491 755 657 548 657 339 c 256
 657 116 470 0 111 0 c 258
 0 0 l 258
 -17 0 -24 15 -24 51 c 256
 -24 87 -17 101 0 101 c 258
 110 101 l 258
 408 101 556 182 556 345 c 256
 556 519 386 718 55 943 c 257
 55 1059 l 257
 308 1197 574 1310 861 1402 c 257
EndSplineSet
EndChar

StartChar: uniE058
Encoding: 57432 57432 1742
GlifName: uniE_058
Width: 1129
VWidth: 0
GlyphClass: 2
Flags: HW
LayerCount: 2
Fore
SplineSet
861 1402 m 257
 888 1304 l 257
 591 1207 359 1113 153 1003 c 257
 153 993 l 257
 425 799 572 644 686 406 c 256
 800 170 898 101 1129 101 c 258
 1130 101 l 257
 1130 0 l 257
 1129 0 l 258
 870 0 726 99 625 355 c 257
 642 117 470 0 113 0 c 258
 0 0 l 258
 -17 0 -24 15 -24 51 c 256
 -24 87 -17 101 0 101 c 258
 112 101 l 258
 407 101 556 182 556 345 c 256
 556 523 377 723 55 943 c 257
 55 1059 l 257
 308 1197 574 1310 861 1402 c 257
EndSplineSet
EndChar

StartChar: uniE059
Encoding: 57433 57433 1743
GlifName: uniE_059
Width: 1513
VWidth: 0
GlyphClass: 2
Flags: HW
LayerCount: 2
Fore
SplineSet
1514 101 m 257
 1514 0 l 257
 1506 0 l 258
 1356 0 1224 61 1174 172 c 257
 1173 6 l 258
 1171 -371 985 -553 625 -553 c 256
 306 -553 121 -379 121 -88 c 256
 121 41 150 187 210 339 c 257
 301 303 l 257
 248 163 221 26 221 -81 c 256
 221 -322 363 -452 640 -452 c 256
 936 -452 1073 -301 1073 18 c 258
 1073 1324 l 257
 1174 1324 l 257
 1175 448 l 258
 1175 237 1248 101 1506 101 c 258
 1514 101 l 257
EndSplineSet
EndChar

StartChar: uniE05A
Encoding: 57434 57434 1744
GlifName: uniE_05A_
Width: 575
VWidth: 0
GlyphClass: 2
Flags: HW
LayerCount: 2
Fore
SplineSet
0 101 m 256
 238 101 296 207 296 423 c 258
 296 1324 l 257
 397 1324 l 257
 397 423 l 258
 397 143 284 0 0 0 c 256
 -17 0 -24 18 -24 51 c 256
 -24 84 -17 101 0 101 c 256
EndSplineSet
EndChar

StartChar: uniE05B
Encoding: 57435 57435 1745
GlifName: uniE_05B_
Width: 692
VWidth: 0
GlyphClass: 2
Flags: HW
LayerCount: 2
Fore
SplineSet
397 446 m 258
 397 238 433 101 691 101 c 258
 692 101 l 257
 692 0 l 257
 691 0 l 258
 504 0 368 82 345 236 c 257
 321 81 190 0 0 0 c 256
 -17 0 -24 18 -24 51 c 256
 -24 84 -17 101 0 101 c 256
 259 101 296 231 296 438 c 258
 296 1324 l 257
 397 1324 l 257
 397 446 l 258
EndSplineSet
EndChar

StartChar: uniE05C
Encoding: 57436 57436 1746
GlifName: uniE_05C_
Width: 1467
VWidth: 0
GlyphClass: 2
Flags: HW
LayerCount: 2
Fore
SplineSet
804 612 m 256
 606 612 542 356 503 171 c 257
 538 163 583 151 619 141 c 256
 732 111 812 90 889 90 c 256
 999 90 1046 155 1046 300 c 256
 1046 447 981 612 804 612 c 256
805 712 m 256
 985 712 1066 594 1130 437 c 256
 1194 280 1275 101 1466 101 c 258
 1467 101 l 257
 1467 0 l 257
 1466 0 l 258
 1297 0 1194 104 1124 276 c 257
 1128 107 1048 -11 896 -11 c 256
 801 -11 705 14 588 44 c 256
 497 69 415 87 359 87 c 256
 260 87 224 33 224 -94 c 258
 224 -788 l 257
 121 -788 l 257
 121 -89 l 258
 121 103 215 220 409 189 c 257
 455 427 549 712 805 712 c 256
EndSplineSet
EndChar

StartChar: uniE05D
Encoding: 57437 57437 1747
GlifName: uniE_05D_
Width: 1172
VWidth: 0
GlyphClass: 2
Flags: HW
LayerCount: 2
Fore
SplineSet
0 101 m 256
 193 101 270 258 344 413 c 256
 420 570 495 718 678 718 c 256
 877 718 1008 506 1008 311 c 256
 1008 119 885 -11 698 -11 c 256
 552 -11 428 66 322 189 c 257
 254 83 161 0 0 0 c 256
 -19 0 -24 16 -24 51 c 256
 -24 86 -19 101 0 101 c 256
374 272 m 257
 472 155 573 90 699 90 c 256
 830 90 917 177 917 312 c 256
 917 451 814 617 675 617 c 256
 541 617 480 502 414 359 c 258
 374 272 l 257
EndSplineSet
EndChar

StartChar: uniE05E
Encoding: 57438 57438 1748
GlifName: uniE_05E_
Width: 1333
VWidth: 0
GlyphClass: 2
Flags: HW
LayerCount: 2
Fore
SplineSet
374 272 m 257
 472 155 573 90 699 90 c 256
 830 90 917 177 917 312 c 256
 917 451 814 617 675 617 c 256
 541 617 480 502 414 359 c 258
 374 272 l 257
0 101 m 256
 192 101 270 259 345 414 c 256
 421 571 495 718 676 718 c 256
 863 718 942 562 1011 404 c 256
 1079 248 1153 101 1333 101 c 258
 1334 101 l 257
 1334 0 l 257
 1333 0 l 258
 1164 0 1044 119 993 275 c 257
 979 96 860 -11 698 -11 c 256
 552 -11 428 66 322 189 c 257
 254 83 161 0 0 0 c 256
 -19 0 -24 16 -24 51 c 256
 -24 86 -19 101 0 101 c 256
EndSplineSet
EndChar

StartChar: uniE05F
Encoding: 57439 57439 1749
GlifName: uniE_05F_
Width: 1179
VWidth: 0
GlyphClass: 2
Flags: HW
LayerCount: 2
Fore
SplineSet
724 807 m 257
 713 972 l 257
 815 977 l 257
 850 374 l 258
 862 176 948 101 1178 101 c 258
 1180 101 l 257
 1180 0 l 257
 1178 0 l 258
 970 0 860 54 800 162 c 257
 723 136 639 125 560 125 c 256
 335 125 188 220 188 391 c 256
 188 605 402 761 724 807 c 257
729 708 m 257
 434 672 289 544 289 399 c 256
 289 289 389 224 566 224 c 256
 635 224 711 234 770 251 c 257
 759 284 753 320 750 368 c 258
 729 708 l 257
EndSplineSet
EndChar

StartChar: uniE060
Encoding: 57440 57440 1750
GlifName: uniE_060
Width: 1340
VWidth: 0
GlyphClass: 2
Flags: HW
LayerCount: 2
Fore
SplineSet
0 101 m 258
 38 101 l 258
 180 101 264 119 357 152 c 257
 248 219 128 326 128 477 c 256
 128 628 223 779 370 822 c 257
 197 896 l 257
 236 989 l 257
 728 779 l 258
 1068 632 1219 508 1219 295 c 256
 1219 96 1079 -11 868 -11 c 256
 735 -11 591 30 466 86 c 257
 347 32 236 0 54 0 c 258
 0 0 l 258
 -18 0 -24 17 -24 51 c 256
 -24 85 -18 101 0 101 c 258
467 187 m 257
 613 260 687 374 687 484 c 256
 687 642 620 753 474 753 c 256
 332 753 224 618 224 476 c 256
 224 340 352 243 467 187 c 257
569 152 m 257
 667 114 778 91 869 91 c 256
 1017 91 1120 149 1120 298 c 256
 1120 444 1022 539 738 664 c 257
 829 440 746 261 569 152 c 257
EndSplineSet
EndChar

StartChar: uniE061
Encoding: 57441 57441 1751
GlifName: uniE_061
Width: 1023
VWidth: 0
GlyphClass: 2
Flags: HW
LayerCount: 2
Fore
SplineSet
553 775 m 256
 718 775 829 654 829 472 c 256
 829 226 610 41 280 10 c 257
 310 -216 436 -377 636 -447 c 257
 648 -439 l 257
 697 -40 790 101 986 101 c 258
 1024 101 l 257
 1024 0 l 257
 974 0 l 258
 825 0 771 -104 724 -504 c 257
 641 -555 l 257
 383 -472 218 -273 181 0 c 257
 0 0 l 258
 -16 0 -24 17 -24 51 c 256
 -24 84 -16 101 0 101 c 258
 171 101 l 257
 157 498 313 775 553 775 c 256
270 106 m 257
 554 119 737 261 737 469 c 256
 737 596 670 675 559 675 c 256
 372 675 253 439 270 106 c 257
EndSplineSet
EndChar

StartChar: uniE062
Encoding: 57442 57442 1752
GlifName: uniE_062
Width: 977
VWidth: 0
GlyphClass: 2
Flags: HW
LayerCount: 2
Fore
SplineSet
764 102 m 257
 754 317 696 622 494 622 c 256
 334 622 262 449 262 287 c 256
 262 145 352 101 501 101 c 257
 588 101 676 102 764 102 c 257
758 0 m 257
 668 0 581 0 494 0 c 257
 297 0 167 81 167 282 c 256
 167 496 273 723 495 723 c 256
 766 723 849 373 859 101 c 257
 977 101 l 257
 977 0 l 257
 857 0 l 257
 837 -278 576 -461 156 -569 c 257
 121 -473 l 257
 513 -374 736 -215 758 0 c 257
EndSplineSet
EndChar

StartChar: uniE063
Encoding: 57443 57443 1753
GlifName: uniE_063
Width: 1361
VWidth: 0
GlyphClass: 2
Flags: HW
LayerCount: 2
Fore
SplineSet
231 1310 m 257
 324 1347 l 257
 462 1023 531 716 535 353 c 257
 436 346 l 257
 432 698 365 997 231 1310 c 257
1080 1324 m 257
 1182 1324 l 257
 1182 718 l 258
 1182 131 937 0 333 0 c 258
 165 0 l 257
 165 101 l 257
 334 101 l 258
 841 101 1080 168 1080 692 c 258
 1080 1324 l 257
EndSplineSet
EndChar

StartChar: uniE064
Encoding: 57444 57444 1754
GlifName: uniE_064
Width: 1490
VWidth: 0
GlyphClass: 2
Flags: HW
LayerCount: 2
Fore
SplineSet
248 1310 m 257
 342 1347 l 257
 482 1017 547 712 551 356 c 257
 452 350 l 257
 448 696 384 991 248 1310 c 257
1081 1324 m 257
 1182 1324 l 257
 1182 402 l 258
 1182 181 1263 101 1489 101 c 258
 1490 101 l 257
 1490 0 l 257
 1489 0 l 258
 1230 0 1101 119 1094 368 c 257
 1094 431 l 257
 901 140 601 0 165 0 c 257
 165 101 l 257
 616 101 886 237 1081 561 c 257
 1081 1324 l 257
EndSplineSet
EndChar

StartChar: uniE065
Encoding: 57445 57445 1755
GlifName: uniE_065
Width: 1942
VWidth: 0
GlyphClass: 2
Flags: HW
LayerCount: 2
Fore
SplineSet
1668 601 m 257
 1652 515 1640 443 1640 358 c 256
 1640 217 1689 101 1942 101 c 258
 1943 101 l 257
 1943 0 l 257
 1942 0 l 258
 1706 0 1579 103 1553 288 c 257
 1431 76 1155 0 783 0 c 256
 307 0 121 167 121 450 c 256
 121 542 142 648 179 752 c 257
 272 720 l 257
 237 622 218 533 218 453 c 256
 218 218 388 101 802 101 c 256
 1360 101 1523 263 1573 615 c 257
 1668 601 l 257
EndSplineSet
EndChar

StartChar: uniE066
Encoding: 57446 57446 1756
GlifName: uniE_066
Width: 960
VWidth: 0
GlyphClass: 2
Flags: HW
LayerCount: 2
Fore
SplineSet
734 518 m 257
 722 726 661 1012 467 1012 c 256
 306 1012 234 829 234 667 c 256
 234 525 323 483 473 483 c 256
 573 483 662 500 734 518 c 257
0 101 m 258
 196 101 l 258
 604 101 742 152 742 424 c 257
 664 404 573 387 467 387 c 256
 271 387 141 461 141 661 c 256
 141 876 243 1112 468 1112 c 256
 766 1112 839 692 839 430 c 256
 839 111 685 0 174 0 c 258
 0 0 l 258
 -19 0 -24 16 -24 51 c 256
 -24 86 -18 101 0 101 c 258
EndSplineSet
EndChar

StartChar: uniE067
Encoding: 57447 57447 1757
GlifName: uniE_067
Width: 1938
VWidth: 0
GlyphClass: 2
Flags: HW
LayerCount: 2
Fore
SplineSet
1436 72 m 257
 1284 19 1094 0 908 0 c 256
 443 0 121 62 121 405 c 256
 121 517 153 631 188 733 c 257
 279 702 l 257
 247 607 219 506 219 406 c 256
 219 157 457 101 908 101 c 256
 1047 101 1201 112 1324 144 c 257
 1194 216 1098 331 1098 509 c 256
 1098 734 1241 866 1437 866 c 256
 1630 866 1776 733 1776 509 c 256
 1776 330 1673 213 1543 141 c 257
 1618 115 1706 101 1795 101 c 258
 1939 101 l 257
 1939 0 l 257
 1776 0 l 258
 1649 0 1548 23 1436 72 c 257
1437 176 m 257
 1578 240 1674 344 1674 509 c 256
 1674 666 1577 770 1437 770 c 256
 1295 770 1200 667 1200 509 c 256
 1200 346 1297 241 1437 176 c 257
EndSplineSet
EndChar

StartChar: uniE068
Encoding: 57448 57448 1758
GlifName: uniE_068
Width: 971
VWidth: 0
GlyphClass: 2
Flags: HW
LayerCount: 2
Fore
SplineSet
147 509 m 256
 147 734 290 866 486 866 c 256
 679 866 825 733 825 509 c 256
 825 331 721 213 591 141 c 257
 666 115 754 101 843 101 c 258
 972 101 l 257
 972 0 l 257
 824 0 l 258
 697 0 597 23 485 72 c 257
 373 23 270 0 140 0 c 258
 0 0 l 258
 -19 0 -24 16 -24 51 c 256
 -24 86 -19 101 0 101 c 258
 128 101 l 258
 219 101 302 115 382 141 c 257
 251 213 147 331 147 509 c 256
486 176 m 257
 626 241 722 345 722 509 c 256
 722 666 626 770 486 770 c 256
 344 770 248 667 248 509 c 256
 248 346 346 241 486 176 c 257
EndSplineSet
EndChar

StartChar: uniE069
Encoding: 57449 57449 1759
GlifName: uniE_069
Width: 1531
VWidth: 0
GlyphClass: 2
Flags: HW
LayerCount: 2
Fore
SplineSet
1300 100 m 257
 1290 315 1231 619 1029 619 c 256
 869 619 796 446 796 284 c 256
 796 142 887 99 1036 99 c 256
 1123 99 1212 100 1300 100 c 257
1294 2 m 257
 1206 1 1116 0 1029 0 c 256
 832 0 702 80 702 281 c 256
 702 495 808 722 1030 722 c 256
 1296 722 1385 378 1395 101 c 257
 1532 101 l 257
 1532 0 l 257
 1392 0 l 257
 1384 -358 1149 -557 749 -557 c 256
 343 -557 121 -358 121 7 c 256
 121 120 140 250 177 393 c 257
 272 362 l 257
 240 228 222 108 222 7 c 256
 222 -309 407 -454 758 -454 c 256
 1092 -454 1290 -295 1294 2 c 257
EndSplineSet
EndChar

StartChar: uniE06E
Encoding: 57454 57454 1764
GlifName: uniE_06E_
Width: 0
VWidth: 0
GlyphClass: 2
Flags: H
LayerCount: 2
Fore
SplineSet
-108 1184 m 257
 27 1184 l 258
 148 1184 248 1209 248 1301 c 256
 248 1358 207 1401 146 1401 c 256
 78 1401 -2 1338 -108 1184 c 257
-165 1184 m 257
 -165 1611 l 257
 -105 1611 l 257
 -105 1282 l 257
 -8 1413 69 1462 154 1462 c 256
 245 1462 309 1395 309 1301 c 256
 309 1165 185 1125 27 1125 c 258
 -307 1125 l 257
 -307 1184 l 257
 -165 1184 l 257
EndSplineSet
EndChar

StartChar: uniE06F
Encoding: 57455 57455 1765
GlifName: uniE_06F_
Width: 0
VWidth: 0
GlyphClass: 2
Flags: H
LayerCount: 2
Fore
SplineSet
18 1250 m 257
 65 1229 116 1208 175 1208 c 256
 252 1208 324 1237 324 1314 c 256
 324 1368 287 1406 229 1406 c 256
 171 1406 107 1373 18 1250 c 257
-38 1275 m 257
 56 1405 143 1474 235 1474 c 256
 328 1474 388 1409 388 1313 c 256
 388 1184 270 1132 161 1132 c 256
 87 1132 27 1158 -26 1184 c 256
 -72 1206 -112 1224 -158 1224 c 256
 -234 1224 -283 1150 -324 1085 c 257
 -382 1120 l 257
 -309 1253 -228 1304 -154 1304 c 256
 -112 1304 -75 1291 -38 1275 c 257
EndSplineSet
EndChar

StartChar: uniE070
Encoding: 57456 57456 1766
GlifName: uniE_070
Width: 0
VWidth: 0
GlyphClass: 2
Flags: H
LayerCount: 2
Fore
SplineSet
230 1378 m 257
 230 1245 158 1145 0 1145 c 256
 -159 1145 -230 1246 -230 1378 c 257
 -172 1378 l 257
 -172 1278 -131 1202 0 1202 c 256
 127 1202 172 1282 172 1378 c 257
 230 1378 l 257
EndSplineSet
EndChar

StartChar: uniE071
Encoding: 57457 57457 1767
GlifName: uniE_071
Width: 0
VWidth: 0
GlyphClass: 2
Flags: H
LayerCount: 2
Fore
SplineSet
230 1185 m 257
 -230 1185 l 257
 -230 1244 l 257
 230 1244 l 257
 230 1185 l 257
EndSplineSet
EndChar

StartChar: uniE072
Encoding: 57458 57458 1768
GlifName: uniE_072
Width: 0
VWidth: 0
GlyphClass: 2
Flags: H
LayerCount: 2
Fore
SplineSet
-82 1572 m 256
 -138 1572 -163 1520 -163 1461 c 256
 -163 1415 -147 1373 -114 1333 c 257
 -54 1345 35 1376 35 1450 c 256
 35 1515 -23 1572 -82 1572 c 256
-87 1630 m 256
 13 1630 92 1532 92 1447 c 256
 92 1352 1 1310 -70 1290 c 257
 -1 1242 124 1188 222 1162 c 257
 204 1107 l 257
 -30 1174 -223 1278 -223 1464 c 256
 -223 1561 -169 1630 -87 1630 c 256
EndSplineSet
EndChar

StartChar: uniE073
Encoding: 57459 57459 1769
GlifName: uniE_073
Width: 0
VWidth: 0
GlyphClass: 2
Flags: H
LayerCount: 2
Fore
SplineSet
-193 1125 m 257
 -219 1177 l 257
 195 1374 l 257
 220 1322 l 257
 -193 1125 l 257
-181 1420 m 257
 -111 1490 l 257
 -41 1420 l 257
 -111 1351 l 257
 -181 1420 l 257
15 1063 m 257
 85 1133 l 257
 155 1063 l 257
 85 994 l 257
 15 1063 l 257
EndSplineSet
EndChar

StartChar: uniE075
Encoding: 57461 57461 1770
GlifName: uniE_075
Width: 2104
VWidth: 0
GlyphClass: 2
Flags: HW
LayerCount: 2
Fore
SplineSet
962 1147 m 257
 1013 1062 l 257
 654 851 498 714 483 594 c 257
 1406 594 l 258
 1821 594 1984 549 1984 375 c 256
 1984 142 1700 0 1294 0 c 258
 121 0 l 257
 121 101 l 257
 1314 101 l 258
 1656 101 1880 211 1880 363 c 256
 1880 467 1776 493 1408 493 c 258
 424 493 l 257
 370 552 l 257
 376 737 528 890 962 1147 c 257
EndSplineSet
EndChar

StartChar: uniE076
Encoding: 57462 57462 1771
GlifName: uniE_076
Width: 1821
VWidth: 0
GlyphClass: 2
Flags: HW
LayerCount: 2
Fore
SplineSet
599 315 m 257
 550 278 l 257
 456 249 269 186 158 140 c 257
 125 231 l 257
 320 305 427 345 503 345 c 256
 540 345 570 335 599 315 c 257
EndSplineSet
Refer: 1716 57406 N 1 0 0 1 338 0 2
EndChar

StartChar: uniE077
Encoding: 57463 57463 1772
GlifName: uniE_077
Width: 1681
VWidth: 0
GlyphClass: 2
Flags: HW
LayerCount: 2
Fore
SplineSet
1298 821 m 257
 1267 951 1236 1066 1130 1066 c 256
 1051 1066 1007 980 972 908 c 256
 865 689 729 557 530 506 c 256
 357 461 222 394 222 247 c 256
 222 131 322 101 465 101 c 258
 1560 101 l 257
 1560 0 l 257
 452 0 l 258
 274 0 121 61 121 243 c 256
 121 468 326 556 508 604 c 256
 685 652 791 768 878 942 c 256
 928 1043 995 1172 1130 1172 c 256
 1312 1172 1353 1010 1391 843 c 257
 1298 821 l 257
EndSplineSet
EndChar

StartChar: uniE078
Encoding: 57464 57464 1773
GlifName: uniE_078
Width: 1480
VWidth: 0
GlyphClass: 2
Flags: HW
LayerCount: 2
Fore
SplineSet
1000 1195 m 257
 1030 1187 1064 1182 1106 1182 c 256
 1194 1182 1297 1191 1297 1281 c 256
 1297 1330 1265 1364 1211 1364 c 256
 1157 1364 1086 1317 1000 1195 c 257
950 1217 m 257
 1044 1358 1132 1420 1212 1420 c 256
 1297 1420 1355 1366 1355 1281 c 256
 1355 1152 1232 1124 1108 1124 c 256
 999 1124 930 1146 888 1202 c 257
 855 1149 814 1124 734 1124 c 256
 661 1124 609 1148 580 1192 c 257
 552 1149 511 1124 443 1124 c 258
 411 1124 l 258
 302 1124 185 1083 185 990 c 256
 185 948 224 940 268 940 c 258
 847 940 l 257
 847 882 l 257
 267 882 l 258
 189 882 125 910 125 988 c 256
 125 1103 250 1182 411 1182 c 258
 443 1182 l 258
 536 1182 551 1222 551 1311 c 258
 551 1623 l 257
 609 1623 l 257
 609 1314 l 258
 609 1223 629 1182 734 1182 c 256
 830 1182 859 1215 859 1323 c 258
 859 1381 l 257
 917 1381 l 257
 917 1324 l 258
 917 1261 924 1240 950 1217 c 257
EndSplineSet
EndChar

StartChar: uniE079
Encoding: 57465 57465 1774
GlifName: uniE_079
Width: 1186
VWidth: 0
GlyphClass: 2
Flags: HW
LayerCount: 2
Fore
SplineSet
819 1398 m 256
 819 1345 852 1333 906 1333 c 256
 942 1333 973 1339 1002 1346 c 257
 996 1414 980 1529 904 1529 c 256
 843 1529 819 1456 819 1398 c 256
1005 1288 m 257
 975 1282 942 1276 904 1276 c 256
 820 1276 763 1312 763 1396 c 256
 763 1487 805 1586 904 1586 c 256
 1030 1586 1063 1421 1063 1305 c 256
 1063 1150 957 1124 791 1124 c 258
 720 1124 l 258
 653 1124 609 1148 580 1192 c 257
 552 1149 511 1124 443 1124 c 258
 411 1124 l 258
 302 1124 185 1083 185 990 c 256
 185 948 224 940 268 940 c 258
 847 940 l 257
 847 882 l 257
 267 882 l 258
 189 882 125 910 125 988 c 256
 125 1103 250 1182 411 1182 c 258
 443 1182 l 258
 536 1182 551 1222 551 1311 c 258
 551 1623 l 257
 609 1623 l 257
 609 1314 l 258
 609 1223 624 1182 720 1182 c 258
 806 1182 l 258
 928 1182 995 1190 1005 1288 c 257
1038 1698 m 257
 987 1646 l 257
 936 1698 l 257
 987 1748 l 257
 1038 1698 l 257
901 1698 m 257
 850 1646 l 257
 798 1698 l 257
 850 1748 l 257
 901 1698 l 257
EndSplineSet
EndChar

StartChar: uniE07A
Encoding: 57466 57466 1775
GlifName: uniE_07A_
Width: 0
VWidth: 0
GlyphClass: 2
Flags: H
LayerCount: 2
Fore
SplineSet
-118 1394 m 257
 118 1394 l 257
 118 1331 l 257
 -118 1331 l 257
 -118 1394 l 257
EndSplineSet
EndChar

StartChar: uniE07B
Encoding: 57467 57467 1776
GlifName: uniE_07B_
Width: 0
VWidth: 0
GlyphClass: 2
Flags: H
LayerCount: 2
Fore
SplineSet
-107 1286 m 257
 -180 1652 l 257
 -121 1665 l 257
 -49 1299 l 257
 -107 1286 l 257
214 1663 m 257
 214 1346 l 258
 214 1142 77 1123 -45 1123 c 258
 -215 1123 l 257
 -215 1185 l 257
 -45 1185 l 258
 93 1185 152 1209 152 1343 c 258
 152 1663 l 257
 214 1663 l 257
EndSplineSet
EndChar

StartChar: uniE07C
Encoding: 57468 57468 1777
GlifName: uniE_07C_
Width: 0
VWidth: 0
GlyphClass: 2
Flags: H
LayerCount: 2
Fore
SplineSet
7 1185 m 257
 61 1131 l 257
 7 1077 l 257
 -48 1131 l 257
 7 1185 l 257
100 1376 m 257
 -26 1430 l 258
 -52 1442 -73 1446 -90 1446 c 256
 -137 1446 -153 1408 -163 1354 c 257
 -215 1364 l 257
 -199 1440 -172 1504 -92 1504 c 256
 -65 1504 -36 1497 1 1481 c 258
 188 1400 l 257
 180 1341 l 257
 -58 1278 -172 1196 -172 1090 c 256
 -172 1008 -92 972 10 972 c 256
 72 972 135 986 183 1006 c 257
 204 951 l 257
 148 927 79 910 9 910 c 256
 -117 910 -230 963 -230 1088 c 256
 -230 1216 -119 1307 100 1376 c 257
EndSplineSet
EndChar

StartChar: uniE07D
Encoding: 57469 57469 1778
GlifName: uniE_07D_
Width: 0
VWidth: 0
GlyphClass: 2
Flags: H
LayerCount: 2
Fore
SplineSet
-106 1253 m 257
 -43 1189 l 257
 -106 1126 l 257
 -169 1189 l 257
 -106 1253 l 257
106 1253 m 257
 169 1189 l 257
 106 1126 l 257
 42 1189 l 257
 106 1253 l 257
0 1428 m 257
 64 1365 l 257
 0 1301 l 257
 -63 1365 l 257
 0 1428 l 257
EndSplineSet
EndChar

